%TF.GenerationSoftware,KiCad,Pcbnew,8.0.4*%
%TF.CreationDate,2024-10-27T13:41:01+07:00*%
%TF.ProjectId,ShinA4,5368696e-4134-42e6-9b69-6361645f7063,rev?*%
%TF.SameCoordinates,Original*%
%TF.FileFunction,Drillmap*%
%TF.FilePolarity,Positive*%
%FSLAX45Y45*%
G04 Gerber Fmt 4.5, Leading zero omitted, Abs format (unit mm)*
G04 Created by KiCad (PCBNEW 8.0.4) date 2024-10-27 13:41:01*
%MOMM*%
%LPD*%
G01*
G04 APERTURE LIST*
%ADD10C,0.200000*%
%ADD11C,0.100000*%
%ADD12C,0.230000*%
G04 APERTURE END LIST*
D10*
X704000Y8064500D02*
X704000Y10179000D01*
X-14170000Y-10180000D02*
G75*
G02*
X-14350000Y-10000000I0J180000D01*
G01*
X14170000Y10180000D02*
G75*
G02*
X14350000Y10000000I0J-180000D01*
G01*
X8880000Y-4600000D02*
G75*
G02*
X8260000Y-4600000I-310000J0D01*
G01*
X8260000Y-4600000D02*
G75*
G02*
X8880000Y-4600000I310000J0D01*
G01*
X-13060000Y0D02*
G75*
G02*
X-13680000Y0I-310000J0D01*
G01*
X-13680000Y0D02*
G75*
G02*
X-13060000Y0I310000J0D01*
G01*
X14170000Y10180000D02*
X704000Y10179000D01*
X14350000Y-10000000D02*
X14350000Y10000000D01*
X-704000Y8065500D02*
X-704000Y10180000D01*
X-704000Y10180000D02*
X-14170000Y10180000D01*
X3677500Y9200000D02*
G75*
G02*
X3057500Y9200000I-310000J0D01*
G01*
X3057500Y9200000D02*
G75*
G02*
X3677500Y9200000I310000J0D01*
G01*
X-6375000Y-4600000D02*
G75*
G02*
X-6995000Y-4600000I-310000J0D01*
G01*
X-6995000Y-4600000D02*
G75*
G02*
X-6375000Y-4600000I310000J0D01*
G01*
X-13060000Y-9200000D02*
G75*
G02*
X-13680000Y-9200000I-310000J0D01*
G01*
X-13680000Y-9200000D02*
G75*
G02*
X-13060000Y-9200000I310000J0D01*
G01*
X-14350000Y10000000D02*
G75*
G02*
X-14170000Y10180000I180000J0D01*
G01*
X-13060000Y9200000D02*
G75*
G02*
X-13680000Y9200000I-310000J0D01*
G01*
X-13680000Y9200000D02*
G75*
G02*
X-13060000Y9200000I310000J0D01*
G01*
X-1480826Y0D02*
G75*
G02*
X-2100827Y0I-310000J0D01*
G01*
X-2100827Y0D02*
G75*
G02*
X-1480826Y0I310000J0D01*
G01*
X310000Y-9200000D02*
G75*
G02*
X-310000Y-9200000I-310000J0D01*
G01*
X-310000Y-9200000D02*
G75*
G02*
X310000Y-9200000I310000J0D01*
G01*
X13680000Y0D02*
G75*
G02*
X13060000Y0I-310000J0D01*
G01*
X13060000Y0D02*
G75*
G02*
X13680000Y0I310000J0D01*
G01*
X13680000Y9200000D02*
G75*
G02*
X13060000Y9200000I-310000J0D01*
G01*
X13060000Y9200000D02*
G75*
G02*
X13680000Y9200000I310000J0D01*
G01*
X-6375000Y7305000D02*
G75*
G02*
X-6995000Y7305000I-310000J0D01*
G01*
X-6995000Y7305000D02*
G75*
G02*
X-6375000Y7305000I310000J0D01*
G01*
X-704000Y8065500D02*
X704000Y8064500D01*
X13680000Y-9200000D02*
G75*
G02*
X13060000Y-9200000I-310000J0D01*
G01*
X13060000Y-9200000D02*
G75*
G02*
X13680000Y-9200000I310000J0D01*
G01*
X-14350000Y10000000D02*
X-14350000Y-10000000D01*
X-14170000Y-10180000D02*
X14170000Y-10180000D01*
X14350000Y-10000000D02*
G75*
G02*
X14170000Y-10180000I-180000J0D01*
G01*
X6229269Y4487011D02*
G75*
G02*
X5609269Y4487011I-310000J0D01*
G01*
X5609269Y4487011D02*
G75*
G02*
X6229269Y4487011I310000J0D01*
G01*
D11*
X-4890000Y4345000D02*
X-4890000Y4035000D01*
X-4890000Y4035000D02*
X-4530000Y4035000D01*
X-4530000Y4345000D02*
X-4890000Y4345000D01*
X-4530000Y4035000D02*
X-4530000Y4345000D01*
X858900Y693200D02*
X858900Y383200D01*
X858900Y383200D02*
X1218900Y383200D01*
X1218900Y693200D02*
X858900Y693200D01*
X1218900Y383200D02*
X1218900Y693200D01*
X3989600Y5872800D02*
X3989600Y5562800D01*
X3989600Y5562800D02*
X4349600Y5562800D01*
X4349600Y5872800D02*
X3989600Y5872800D01*
X4349600Y5562800D02*
X4349600Y5872800D01*
X-8290000Y4345000D02*
X-8290000Y4035000D01*
X-8290000Y4035000D02*
X-7930000Y4035000D01*
X-7930000Y4345000D02*
X-8290000Y4345000D01*
X-7930000Y4035000D02*
X-7930000Y4345000D01*
X-281600Y-3036600D02*
X-281600Y-3346600D01*
X-281600Y-3346600D02*
X78400Y-3346600D01*
X78400Y-3036600D02*
X-281600Y-3036600D01*
X78400Y-3346600D02*
X78400Y-3036600D01*
X7409600Y5852400D02*
X7409600Y5542400D01*
X7409600Y5542400D02*
X7769600Y5542400D01*
X7769600Y5852400D02*
X7409600Y5852400D01*
X7769600Y5542400D02*
X7769600Y5852400D01*
X-11460000Y3095000D02*
X-11460000Y2785000D01*
X-11460000Y2785000D02*
X-11100000Y2785000D01*
X-11100000Y3095000D02*
X-11460000Y3095000D01*
X-11100000Y2785000D02*
X-11100000Y3095000D01*
X10639600Y2332400D02*
X10639600Y2022400D01*
X10639600Y2022400D02*
X10999600Y2022400D01*
X10999600Y2332400D02*
X10639600Y2332400D01*
X10999600Y2022400D02*
X10999600Y2332400D01*
X7369100Y2452400D02*
X7369100Y2142400D01*
X7369100Y2142400D02*
X7729100Y2142400D01*
X7729100Y2452400D02*
X7369100Y2452400D01*
X7729100Y2142400D02*
X7729100Y2452400D01*
X4089100Y2472800D02*
X4089100Y2162800D01*
X4089100Y2162800D02*
X4449100Y2162800D01*
X4449100Y2472800D02*
X4089100Y2472800D01*
X4449100Y2162800D02*
X4449100Y2472800D01*
X10609600Y5732400D02*
X10609600Y5422400D01*
X10609600Y5422400D02*
X10969600Y5422400D01*
X10969600Y5732400D02*
X10609600Y5732400D01*
X10969600Y5422400D02*
X10969600Y5732400D01*
X-1970800Y2593600D02*
X-1970800Y2283600D01*
X-1970800Y2283600D02*
X-1610800Y2283600D01*
X-1610800Y2593600D02*
X-1970800Y2593600D01*
X-1610800Y2283600D02*
X-1610800Y2593600D01*
X1089400Y4093200D02*
X1089400Y3783200D01*
X1089400Y3783200D02*
X1449400Y3783200D01*
X1449400Y4093200D02*
X1089400Y4093200D01*
X1449400Y3783200D02*
X1449400Y4093200D01*
X3847900Y-927200D02*
X3847900Y-1237200D01*
X3847900Y-1237200D02*
X4207900Y-1237200D01*
X4207900Y-927200D02*
X3847900Y-927200D01*
X4207900Y-1237200D02*
X4207900Y-927200D01*
D10*
D11*
X-12105000Y2835000D02*
X-12075000Y2805000D01*
X-12075000Y2835000D02*
X-12105000Y2805000D01*
X-11795000Y2835000D02*
X-11765000Y2805000D01*
X-11765000Y2835000D02*
X-11795000Y2805000D01*
X-11765000Y9585000D02*
X-11735000Y9555000D01*
X-11735000Y9585000D02*
X-11765000Y9555000D01*
X-11615000Y4365000D02*
X-11585000Y4335000D01*
X-11585000Y4365000D02*
X-11615000Y4335000D01*
X-9865000Y9585000D02*
X-9835000Y9555000D01*
X-9835000Y9585000D02*
X-9865000Y9555000D01*
X-9745000Y2880000D02*
X-9715000Y2850000D01*
X-9715000Y2880000D02*
X-9745000Y2850000D01*
X-9745000Y2325000D02*
X-9715000Y2295000D01*
X-9715000Y2325000D02*
X-9745000Y2295000D01*
X-8775000Y7715000D02*
X-8745000Y7685000D01*
X-8745000Y7715000D02*
X-8775000Y7685000D01*
X-8775000Y7615000D02*
X-8745000Y7585000D01*
X-8745000Y7615000D02*
X-8775000Y7585000D01*
X-8775000Y7375000D02*
X-8745000Y7345000D01*
X-8745000Y7375000D02*
X-8775000Y7345000D01*
X-8775000Y7275000D02*
X-8745000Y7245000D01*
X-8745000Y7275000D02*
X-8775000Y7245000D01*
X-8775000Y7015000D02*
X-8745000Y6985000D01*
X-8745000Y7015000D02*
X-8775000Y6985000D01*
X-8775000Y6915000D02*
X-8745000Y6885000D01*
X-8745000Y6915000D02*
X-8775000Y6885000D01*
X-8775000Y6555000D02*
X-8745000Y6525000D01*
X-8745000Y6555000D02*
X-8775000Y6525000D01*
X-8775000Y6455000D02*
X-8745000Y6425000D01*
X-8745000Y6455000D02*
X-8775000Y6425000D01*
X-8775000Y6175000D02*
X-8745000Y6145000D01*
X-8745000Y6175000D02*
X-8775000Y6145000D01*
X-8775000Y6075000D02*
X-8745000Y6045000D01*
X-8745000Y6075000D02*
X-8775000Y6045000D01*
X-8675000Y7715000D02*
X-8645000Y7685000D01*
X-8645000Y7715000D02*
X-8675000Y7685000D01*
X-8675000Y7615000D02*
X-8645000Y7585000D01*
X-8645000Y7615000D02*
X-8675000Y7585000D01*
X-8675000Y7375000D02*
X-8645000Y7345000D01*
X-8645000Y7375000D02*
X-8675000Y7345000D01*
X-8675000Y7275000D02*
X-8645000Y7245000D01*
X-8645000Y7275000D02*
X-8675000Y7245000D01*
X-8675000Y7015000D02*
X-8645000Y6985000D01*
X-8645000Y7015000D02*
X-8675000Y6985000D01*
X-8675000Y6915000D02*
X-8645000Y6885000D01*
X-8645000Y6915000D02*
X-8675000Y6885000D01*
X-8675000Y6555000D02*
X-8645000Y6525000D01*
X-8645000Y6555000D02*
X-8675000Y6525000D01*
X-8675000Y6455000D02*
X-8645000Y6425000D01*
X-8645000Y6455000D02*
X-8675000Y6425000D01*
X-8675000Y6175000D02*
X-8645000Y6145000D01*
X-8645000Y6175000D02*
X-8675000Y6145000D01*
X-8675000Y6075000D02*
X-8645000Y6045000D01*
X-8645000Y6075000D02*
X-8675000Y6045000D01*
X-8615000Y4075000D02*
X-8585000Y4045000D01*
X-8585000Y4075000D02*
X-8615000Y4045000D01*
X-8615000Y3825000D02*
X-8585000Y3795000D01*
X-8585000Y3825000D02*
X-8615000Y3795000D01*
X-8452500Y5670000D02*
X-8422500Y5640000D01*
X-8422500Y5670000D02*
X-8452500Y5640000D01*
X-7965000Y9585000D02*
X-7935000Y9555000D01*
X-7935000Y9585000D02*
X-7965000Y9555000D01*
X-7515000Y7715000D02*
X-7485000Y7685000D01*
X-7485000Y7715000D02*
X-7515000Y7685000D01*
X-7515000Y7615000D02*
X-7485000Y7585000D01*
X-7485000Y7615000D02*
X-7515000Y7585000D01*
X-7515000Y7375000D02*
X-7485000Y7345000D01*
X-7485000Y7375000D02*
X-7515000Y7345000D01*
X-7515000Y7275000D02*
X-7485000Y7245000D01*
X-7485000Y7275000D02*
X-7515000Y7245000D01*
X-7515000Y7015000D02*
X-7485000Y6985000D01*
X-7485000Y7015000D02*
X-7515000Y6985000D01*
X-7515000Y6915000D02*
X-7485000Y6885000D01*
X-7485000Y6915000D02*
X-7515000Y6885000D01*
X-7515000Y6555000D02*
X-7485000Y6525000D01*
X-7485000Y6555000D02*
X-7515000Y6525000D01*
X-7515000Y6455000D02*
X-7485000Y6425000D01*
X-7485000Y6455000D02*
X-7515000Y6425000D01*
X-7515000Y6175000D02*
X-7485000Y6145000D01*
X-7485000Y6175000D02*
X-7515000Y6145000D01*
X-7515000Y6075000D02*
X-7485000Y6045000D01*
X-7485000Y6075000D02*
X-7515000Y6045000D01*
X-7415000Y7715000D02*
X-7385000Y7685000D01*
X-7385000Y7715000D02*
X-7415000Y7685000D01*
X-7415000Y7615000D02*
X-7385000Y7585000D01*
X-7385000Y7615000D02*
X-7415000Y7585000D01*
X-7415000Y7375000D02*
X-7385000Y7345000D01*
X-7385000Y7375000D02*
X-7415000Y7345000D01*
X-7415000Y7275000D02*
X-7385000Y7245000D01*
X-7385000Y7275000D02*
X-7415000Y7245000D01*
X-7415000Y7015000D02*
X-7385000Y6985000D01*
X-7385000Y7015000D02*
X-7415000Y6985000D01*
X-7415000Y6915000D02*
X-7385000Y6885000D01*
X-7385000Y6915000D02*
X-7415000Y6885000D01*
X-7415000Y6555000D02*
X-7385000Y6525000D01*
X-7385000Y6555000D02*
X-7415000Y6525000D01*
X-7415000Y6455000D02*
X-7385000Y6425000D01*
X-7385000Y6455000D02*
X-7415000Y6425000D01*
X-7415000Y6175000D02*
X-7385000Y6145000D01*
X-7385000Y6175000D02*
X-7415000Y6145000D01*
X-7415000Y6075000D02*
X-7385000Y6045000D01*
X-7385000Y6075000D02*
X-7415000Y6045000D01*
X-6355000Y3795000D02*
X-6325000Y3765000D01*
X-6325000Y3795000D02*
X-6355000Y3765000D01*
X-6355000Y3445000D02*
X-6325000Y3415000D01*
X-6325000Y3445000D02*
X-6355000Y3415000D01*
X-6062500Y9585000D02*
X-6032500Y9555000D01*
X-6032500Y9585000D02*
X-6062500Y9555000D01*
X-6015000Y7735000D02*
X-5985000Y7705000D01*
X-5985000Y7735000D02*
X-6015000Y7705000D01*
X-6015000Y7635000D02*
X-5985000Y7605000D01*
X-5985000Y7635000D02*
X-6015000Y7605000D01*
X-6015000Y7395000D02*
X-5985000Y7365000D01*
X-5985000Y7395000D02*
X-6015000Y7365000D01*
X-6015000Y7295000D02*
X-5985000Y7265000D01*
X-5985000Y7295000D02*
X-6015000Y7265000D01*
X-6015000Y7035000D02*
X-5985000Y7005000D01*
X-5985000Y7035000D02*
X-6015000Y7005000D01*
X-6015000Y6935000D02*
X-5985000Y6905000D01*
X-5985000Y6935000D02*
X-6015000Y6905000D01*
X-6015000Y6575000D02*
X-5985000Y6545000D01*
X-5985000Y6575000D02*
X-6015000Y6545000D01*
X-6015000Y6475000D02*
X-5985000Y6445000D01*
X-5985000Y6475000D02*
X-6015000Y6445000D01*
X-6015000Y6195000D02*
X-5985000Y6165000D01*
X-5985000Y6195000D02*
X-6015000Y6165000D01*
X-6015000Y6095000D02*
X-5985000Y6065000D01*
X-5985000Y6095000D02*
X-6015000Y6065000D01*
X-5915000Y7735000D02*
X-5885000Y7705000D01*
X-5885000Y7735000D02*
X-5915000Y7705000D01*
X-5915000Y7635000D02*
X-5885000Y7605000D01*
X-5885000Y7635000D02*
X-5915000Y7605000D01*
X-5915000Y7395000D02*
X-5885000Y7365000D01*
X-5885000Y7395000D02*
X-5915000Y7365000D01*
X-5915000Y7295000D02*
X-5885000Y7265000D01*
X-5885000Y7295000D02*
X-5915000Y7265000D01*
X-5915000Y7035000D02*
X-5885000Y7005000D01*
X-5885000Y7035000D02*
X-5915000Y7005000D01*
X-5915000Y6935000D02*
X-5885000Y6905000D01*
X-5885000Y6935000D02*
X-5915000Y6905000D01*
X-5915000Y6575000D02*
X-5885000Y6545000D01*
X-5885000Y6575000D02*
X-5915000Y6545000D01*
X-5915000Y6475000D02*
X-5885000Y6445000D01*
X-5885000Y6475000D02*
X-5915000Y6445000D01*
X-5915000Y6195000D02*
X-5885000Y6165000D01*
X-5885000Y6195000D02*
X-5915000Y6165000D01*
X-5915000Y6095000D02*
X-5885000Y6065000D01*
X-5885000Y6095000D02*
X-5915000Y6065000D01*
X-5515000Y4125000D02*
X-5485000Y4095000D01*
X-5485000Y4125000D02*
X-5515000Y4095000D01*
X-5235000Y7735000D02*
X-5205000Y7705000D01*
X-5205000Y7735000D02*
X-5235000Y7705000D01*
X-5235000Y7635000D02*
X-5205000Y7605000D01*
X-5205000Y7635000D02*
X-5235000Y7605000D01*
X-5235000Y7395000D02*
X-5205000Y7365000D01*
X-5205000Y7395000D02*
X-5235000Y7365000D01*
X-5235000Y7295000D02*
X-5205000Y7265000D01*
X-5205000Y7295000D02*
X-5235000Y7265000D01*
X-5235000Y7035000D02*
X-5205000Y7005000D01*
X-5205000Y7035000D02*
X-5235000Y7005000D01*
X-5235000Y6935000D02*
X-5205000Y6905000D01*
X-5205000Y6935000D02*
X-5235000Y6905000D01*
X-5235000Y6575000D02*
X-5205000Y6545000D01*
X-5205000Y6575000D02*
X-5235000Y6545000D01*
X-5235000Y6475000D02*
X-5205000Y6445000D01*
X-5205000Y6475000D02*
X-5235000Y6445000D01*
X-5235000Y6195000D02*
X-5205000Y6165000D01*
X-5205000Y6195000D02*
X-5235000Y6165000D01*
X-5235000Y6095000D02*
X-5205000Y6065000D01*
X-5205000Y6095000D02*
X-5235000Y6065000D01*
X-5165000Y4125000D02*
X-5135000Y4095000D01*
X-5135000Y4125000D02*
X-5165000Y4095000D01*
X-5135000Y7735000D02*
X-5105000Y7705000D01*
X-5105000Y7735000D02*
X-5135000Y7705000D01*
X-5135000Y7635000D02*
X-5105000Y7605000D01*
X-5105000Y7635000D02*
X-5135000Y7605000D01*
X-5135000Y7395000D02*
X-5105000Y7365000D01*
X-5105000Y7395000D02*
X-5135000Y7365000D01*
X-5135000Y7295000D02*
X-5105000Y7265000D01*
X-5105000Y7295000D02*
X-5135000Y7265000D01*
X-5135000Y7035000D02*
X-5105000Y7005000D01*
X-5105000Y7035000D02*
X-5135000Y7005000D01*
X-5135000Y6935000D02*
X-5105000Y6905000D01*
X-5105000Y6935000D02*
X-5135000Y6905000D01*
X-5135000Y6575000D02*
X-5105000Y6545000D01*
X-5105000Y6575000D02*
X-5135000Y6545000D01*
X-5135000Y6475000D02*
X-5105000Y6445000D01*
X-5105000Y6475000D02*
X-5135000Y6445000D01*
X-5135000Y6195000D02*
X-5105000Y6165000D01*
X-5105000Y6195000D02*
X-5135000Y6165000D01*
X-5135000Y6095000D02*
X-5105000Y6065000D01*
X-5105000Y6095000D02*
X-5135000Y6065000D01*
X-5052500Y5670000D02*
X-5022500Y5640000D01*
X-5022500Y5670000D02*
X-5052500Y5640000D01*
X-4545000Y7735000D02*
X-4515000Y7705000D01*
X-4515000Y7735000D02*
X-4545000Y7705000D01*
X-4545000Y7635000D02*
X-4515000Y7605000D01*
X-4515000Y7635000D02*
X-4545000Y7605000D01*
X-4545000Y7395000D02*
X-4515000Y7365000D01*
X-4515000Y7395000D02*
X-4545000Y7365000D01*
X-4545000Y7295000D02*
X-4515000Y7265000D01*
X-4515000Y7295000D02*
X-4545000Y7265000D01*
X-4545000Y7035000D02*
X-4515000Y7005000D01*
X-4515000Y7035000D02*
X-4545000Y7005000D01*
X-4545000Y6935000D02*
X-4515000Y6905000D01*
X-4515000Y6935000D02*
X-4545000Y6905000D01*
X-4445000Y7735000D02*
X-4415000Y7705000D01*
X-4415000Y7735000D02*
X-4445000Y7705000D01*
X-4445000Y7635000D02*
X-4415000Y7605000D01*
X-4415000Y7635000D02*
X-4445000Y7605000D01*
X-4445000Y7395000D02*
X-4415000Y7365000D01*
X-4415000Y7395000D02*
X-4445000Y7365000D01*
X-4445000Y7295000D02*
X-4415000Y7265000D01*
X-4415000Y7295000D02*
X-4445000Y7265000D01*
X-4445000Y7035000D02*
X-4415000Y7005000D01*
X-4415000Y7035000D02*
X-4445000Y7005000D01*
X-4445000Y6935000D02*
X-4415000Y6905000D01*
X-4415000Y6935000D02*
X-4445000Y6905000D01*
X-4165000Y9585000D02*
X-4135000Y9555000D01*
X-4135000Y9585000D02*
X-4165000Y9555000D01*
X-2575000Y2385000D02*
X-2545000Y2355000D01*
X-2545000Y2385000D02*
X-2575000Y2355000D01*
X-2320000Y1765000D02*
X-2290000Y1735000D01*
X-2290000Y1765000D02*
X-2320000Y1735000D01*
X-2295000Y7935000D02*
X-2265000Y7905000D01*
X-2265000Y7935000D02*
X-2295000Y7905000D01*
X-2255000Y2385000D02*
X-2225000Y2355000D01*
X-2225000Y2385000D02*
X-2255000Y2355000D01*
X-2133300Y3918600D02*
X-2103300Y3888600D01*
X-2103300Y3918600D02*
X-2133300Y3888600D01*
X-2055000Y7411250D02*
X-2025000Y7381250D01*
X-2025000Y7411250D02*
X-2055000Y7381250D01*
X-1635000Y9387990D02*
X-1605000Y9357990D01*
X-1605000Y9387990D02*
X-1635000Y9357990D01*
X-1635000Y9043000D02*
X-1605000Y9013000D01*
X-1605000Y9043000D02*
X-1635000Y9013000D01*
X-1635000Y8785000D02*
X-1605000Y8755000D01*
X-1605000Y8785000D02*
X-1635000Y8755000D01*
X-1635000Y8535000D02*
X-1605000Y8505000D01*
X-1605000Y8535000D02*
X-1635000Y8505000D01*
X-1635000Y8281000D02*
X-1605000Y8251000D01*
X-1605000Y8281000D02*
X-1635000Y8251000D01*
X-1635000Y8027000D02*
X-1605000Y7997000D01*
X-1605000Y8027000D02*
X-1635000Y7997000D01*
X-1435000Y7935000D02*
X-1405000Y7905000D01*
X-1405000Y7935000D02*
X-1435000Y7905000D01*
X-1215000Y10055000D02*
X-1185000Y10025000D01*
X-1185000Y10055000D02*
X-1215000Y10025000D01*
X-1165000Y1505000D02*
X-1135000Y1475000D01*
X-1135000Y1505000D02*
X-1165000Y1475000D01*
X-1115000Y7215000D02*
X-1085000Y7185000D01*
X-1085000Y7215000D02*
X-1115000Y7185000D01*
X-1115000Y7115000D02*
X-1085000Y7085000D01*
X-1085000Y7115000D02*
X-1115000Y7085000D01*
X-1015000Y7215000D02*
X-985000Y7185000D01*
X-985000Y7215000D02*
X-1015000Y7185000D01*
X-1015000Y7115000D02*
X-985000Y7085000D01*
X-985000Y7115000D02*
X-1015000Y7085000D01*
X-945000Y-3245000D02*
X-915000Y-3275000D01*
X-915000Y-3245000D02*
X-945000Y-3275000D01*
X-685000Y7845000D02*
X-655000Y7815000D01*
X-655000Y7845000D02*
X-685000Y7815000D01*
X-555000Y-3246600D02*
X-525000Y-3276600D01*
X-525000Y-3246600D02*
X-555000Y-3276600D01*
X-445000Y-1865000D02*
X-415000Y-1895000D01*
X-415000Y-1865000D02*
X-445000Y-1895000D01*
X-275000Y7155000D02*
X-245000Y7125000D01*
X-245000Y7155000D02*
X-275000Y7125000D01*
X-15000Y7155000D02*
X15000Y7125000D01*
X15000Y7155000D02*
X-15000Y7125000D01*
X165000Y7155000D02*
X195000Y7125000D01*
X195000Y7155000D02*
X165000Y7125000D01*
X375000Y7155000D02*
X405000Y7125000D01*
X405000Y7155000D02*
X375000Y7125000D01*
X545000Y7145000D02*
X575000Y7115000D01*
X575000Y7145000D02*
X545000Y7115000D01*
X685000Y7135000D02*
X715000Y7105000D01*
X715000Y7135000D02*
X685000Y7105000D01*
X685000Y1875000D02*
X715000Y1845000D01*
X715000Y1875000D02*
X685000Y1845000D01*
X743900Y378200D02*
X773900Y348200D01*
X773900Y378200D02*
X743900Y348200D01*
X765000Y3815000D02*
X795000Y3785000D01*
X795000Y3815000D02*
X765000Y3785000D01*
X925000Y7125000D02*
X955000Y7095000D01*
X955000Y7125000D02*
X925000Y7095000D01*
X926900Y5318200D02*
X956900Y5288200D01*
X956900Y5318200D02*
X926900Y5288200D01*
X955000Y-3105000D02*
X985000Y-3135000D01*
X985000Y-3105000D02*
X955000Y-3135000D01*
X1045000Y-3675000D02*
X1075000Y-3705000D01*
X1075000Y-3675000D02*
X1045000Y-3705000D01*
X1115000Y-2155000D02*
X1145000Y-2185000D01*
X1145000Y-2155000D02*
X1115000Y-2185000D01*
X1385000Y7215000D02*
X1415000Y7185000D01*
X1415000Y7215000D02*
X1385000Y7185000D01*
X1385000Y7115000D02*
X1415000Y7085000D01*
X1415000Y7115000D02*
X1385000Y7085000D01*
X1485000Y7215000D02*
X1515000Y7185000D01*
X1515000Y7215000D02*
X1485000Y7185000D01*
X1485000Y7115000D02*
X1515000Y7085000D01*
X1515000Y7115000D02*
X1485000Y7085000D01*
X1525000Y625000D02*
X1555000Y595000D01*
X1555000Y625000D02*
X1525000Y595000D01*
X1625000Y-1135000D02*
X1655000Y-1165000D01*
X1655000Y-1135000D02*
X1625000Y-1165000D01*
X1695000Y3535000D02*
X1725000Y3505000D01*
X1725000Y3535000D02*
X1695000Y3505000D01*
X1695000Y3447500D02*
X1725000Y3417500D01*
X1725000Y3447500D02*
X1695000Y3417500D01*
X1695000Y3365000D02*
X1725000Y3335000D01*
X1725000Y3365000D02*
X1695000Y3335000D01*
X1785000Y9815000D02*
X1815000Y9785000D01*
X1815000Y9815000D02*
X1785000Y9785000D01*
X1785000Y9715000D02*
X1815000Y9685000D01*
X1815000Y9715000D02*
X1785000Y9685000D01*
X1885000Y9815000D02*
X1915000Y9785000D01*
X1915000Y9815000D02*
X1885000Y9785000D01*
X1885000Y9715000D02*
X1915000Y9685000D01*
X1915000Y9715000D02*
X1885000Y9685000D01*
X2235000Y3605000D02*
X2265000Y3575000D01*
X2265000Y3605000D02*
X2235000Y3575000D01*
X2705000Y8605000D02*
X2735000Y8575000D01*
X2735000Y8605000D02*
X2705000Y8575000D01*
X2995000Y3535000D02*
X3025000Y3505000D01*
X3025000Y3535000D02*
X2995000Y3505000D01*
X2995000Y3447500D02*
X3025000Y3417500D01*
X3025000Y3447500D02*
X2995000Y3417500D01*
X3185000Y9815000D02*
X3215000Y9785000D01*
X3215000Y9815000D02*
X3185000Y9785000D01*
X3185000Y9715000D02*
X3215000Y9685000D01*
X3215000Y9715000D02*
X3185000Y9685000D01*
X3195000Y8605000D02*
X3225000Y8575000D01*
X3225000Y8605000D02*
X3195000Y8575000D01*
X3275000Y-1135000D02*
X3305000Y-1165000D01*
X3305000Y-1135000D02*
X3275000Y-1165000D01*
X3285000Y9815000D02*
X3315000Y9785000D01*
X3315000Y9815000D02*
X3285000Y9785000D01*
X3285000Y9715000D02*
X3315000Y9685000D01*
X3315000Y9715000D02*
X3285000Y9685000D01*
X3305000Y8615000D02*
X3335000Y8585000D01*
X3335000Y8615000D02*
X3305000Y8585000D01*
X3405000Y8615000D02*
X3435000Y8585000D01*
X3435000Y8615000D02*
X3405000Y8585000D01*
X3455000Y5000D02*
X3485000Y-25000D01*
X3485000Y5000D02*
X3455000Y-25000D01*
X3575000Y-1135000D02*
X3605000Y-1165000D01*
X3605000Y-1135000D02*
X3575000Y-1165000D01*
X3607800Y6797800D02*
X3637800Y6767800D01*
X3637800Y6797800D02*
X3607800Y6767800D01*
X3715000Y5665000D02*
X3745000Y5635000D01*
X3745000Y5665000D02*
X3715000Y5635000D01*
X3715000Y5125000D02*
X3745000Y5095000D01*
X3745000Y5125000D02*
X3715000Y5095000D01*
X3995000Y2165000D02*
X4025000Y2135000D01*
X4025000Y2165000D02*
X3995000Y2135000D01*
X4285000Y8915000D02*
X4315000Y8885000D01*
X4315000Y8915000D02*
X4285000Y8885000D01*
X4285000Y8815000D02*
X4315000Y8785000D01*
X4315000Y8815000D02*
X4285000Y8785000D01*
X4335000Y-875000D02*
X4365000Y-905000D01*
X4365000Y-875000D02*
X4335000Y-905000D01*
X4385000Y8915000D02*
X4415000Y8885000D01*
X4415000Y8915000D02*
X4385000Y8885000D01*
X4385000Y8815000D02*
X4415000Y8785000D01*
X4415000Y8815000D02*
X4385000Y8785000D01*
X4675000Y2405000D02*
X4705000Y2375000D01*
X4705000Y2405000D02*
X4675000Y2375000D01*
X6795000Y3375000D02*
X6825000Y3345000D01*
X6825000Y3375000D02*
X6795000Y3345000D01*
X6815000Y5645000D02*
X6845000Y5615000D01*
X6845000Y5645000D02*
X6815000Y5615000D01*
X7075000Y2237400D02*
X7105000Y2207400D01*
X7105000Y2237400D02*
X7075000Y2207400D01*
X7145000Y5645000D02*
X7175000Y5615000D01*
X7175000Y5645000D02*
X7145000Y5615000D01*
X7245000Y7055000D02*
X7275000Y7025000D01*
X7275000Y7055000D02*
X7245000Y7025000D01*
X7975000Y2385000D02*
X8005000Y2355000D01*
X8005000Y2385000D02*
X7975000Y2355000D01*
X10025000Y5515000D02*
X10055000Y5485000D01*
X10055000Y5515000D02*
X10025000Y5485000D01*
X10325000Y5525000D02*
X10355000Y5495000D01*
X10355000Y5525000D02*
X10325000Y5495000D01*
X10345000Y2117400D02*
X10375000Y2087400D01*
X10375000Y2117400D02*
X10345000Y2087400D01*
X10447100Y6932900D02*
X10477100Y6902900D01*
X10477100Y6932900D02*
X10447100Y6902900D01*
X10475000Y3465000D02*
X10505000Y3435000D01*
X10505000Y3465000D02*
X10475000Y3435000D01*
X10815000Y9845000D02*
X10845000Y9815000D01*
X10845000Y9845000D02*
X10815000Y9815000D01*
X11092500Y3830000D02*
X11122500Y3800000D01*
X11122500Y3830000D02*
X11092500Y3800000D01*
X11095000Y2375000D02*
X11125000Y2345000D01*
X11125000Y2375000D02*
X11095000Y2345000D01*
X1441000Y9443000D02*
G75*
G02*
X1391000Y9443000I-25000J0D01*
G01*
X1391000Y9443000D02*
G75*
G02*
X1441000Y9443000I25000J0D01*
G01*
X1441000Y9189000D02*
G75*
G02*
X1391000Y9189000I-25000J0D01*
G01*
X1391000Y9189000D02*
G75*
G02*
X1441000Y9189000I25000J0D01*
G01*
X1441000Y8935000D02*
G75*
G02*
X1391000Y8935000I-25000J0D01*
G01*
X1391000Y8935000D02*
G75*
G02*
X1441000Y8935000I25000J0D01*
G01*
X1441000Y8681000D02*
G75*
G02*
X1391000Y8681000I-25000J0D01*
G01*
X1391000Y8681000D02*
G75*
G02*
X1441000Y8681000I25000J0D01*
G01*
X1441000Y8427000D02*
G75*
G02*
X1391000Y8427000I-25000J0D01*
G01*
X1391000Y8427000D02*
G75*
G02*
X1441000Y8427000I25000J0D01*
G01*
X6983000Y9168000D02*
X6983000Y9076000D01*
X6937000Y9122000D02*
X7029000Y9122000D01*
X7233000Y9168000D02*
X7233000Y9076000D01*
X7187000Y9122000D02*
X7279000Y9122000D01*
X7433000Y9168000D02*
X7433000Y9076000D01*
X7387000Y9122000D02*
X7479000Y9122000D01*
X7683000Y9168000D02*
X7683000Y9076000D01*
X7637000Y9122000D02*
X7729000Y9122000D01*
X-447244Y-5295356D02*
X-447244Y-5224644D01*
X-517956Y-5224644D01*
X-517956Y-5295356D01*
X-447244Y-5295356D01*
X-193244Y-5295356D02*
X-193244Y-5224644D01*
X-263956Y-5224644D01*
X-263956Y-5295356D01*
X-193244Y-5295356D01*
X60756Y-5295356D02*
X60756Y-5224644D01*
X-9956Y-5224644D01*
X-9956Y-5295356D01*
X60756Y-5295356D01*
X314756Y-5295356D02*
X314756Y-5224644D01*
X244044Y-5224644D01*
X244044Y-5295356D01*
X314756Y-5295356D01*
D12*
X6676000Y9278000D02*
X6791000Y9393000D01*
X6676000Y9508000D01*
X6561000Y9393000D01*
X6676000Y9278000D01*
X7990000Y9278000D02*
X8105000Y9393000D01*
X7990000Y9508000D01*
X7875000Y9393000D01*
X7990000Y9278000D01*
D10*
X-14099223Y-10501484D02*
X-14099223Y-10301484D01*
X-14099223Y-10301484D02*
X-14051604Y-10301484D01*
X-14051604Y-10301484D02*
X-14023033Y-10311008D01*
X-14023033Y-10311008D02*
X-14003985Y-10330055D01*
X-14003985Y-10330055D02*
X-13994461Y-10349103D01*
X-13994461Y-10349103D02*
X-13984937Y-10387198D01*
X-13984937Y-10387198D02*
X-13984937Y-10415770D01*
X-13984937Y-10415770D02*
X-13994461Y-10453865D01*
X-13994461Y-10453865D02*
X-14003985Y-10472912D01*
X-14003985Y-10472912D02*
X-14023033Y-10491960D01*
X-14023033Y-10491960D02*
X-14051604Y-10501484D01*
X-14051604Y-10501484D02*
X-14099223Y-10501484D01*
X-13899223Y-10501484D02*
X-13899223Y-10368150D01*
X-13899223Y-10406246D02*
X-13889699Y-10387198D01*
X-13889699Y-10387198D02*
X-13880175Y-10377674D01*
X-13880175Y-10377674D02*
X-13861128Y-10368150D01*
X-13861128Y-10368150D02*
X-13842080Y-10368150D01*
X-13775414Y-10501484D02*
X-13775414Y-10368150D01*
X-13775414Y-10301484D02*
X-13784937Y-10311008D01*
X-13784937Y-10311008D02*
X-13775414Y-10320531D01*
X-13775414Y-10320531D02*
X-13765890Y-10311008D01*
X-13765890Y-10311008D02*
X-13775414Y-10301484D01*
X-13775414Y-10301484D02*
X-13775414Y-10320531D01*
X-13651604Y-10501484D02*
X-13670652Y-10491960D01*
X-13670652Y-10491960D02*
X-13680175Y-10472912D01*
X-13680175Y-10472912D02*
X-13680175Y-10301484D01*
X-13546842Y-10501484D02*
X-13565890Y-10491960D01*
X-13565890Y-10491960D02*
X-13575414Y-10472912D01*
X-13575414Y-10472912D02*
X-13575414Y-10301484D01*
X-13318271Y-10501484D02*
X-13318271Y-10301484D01*
X-13318271Y-10301484D02*
X-13251604Y-10444341D01*
X-13251604Y-10444341D02*
X-13184937Y-10301484D01*
X-13184937Y-10301484D02*
X-13184937Y-10501484D01*
X-13003985Y-10501484D02*
X-13003985Y-10396722D01*
X-13003985Y-10396722D02*
X-13013509Y-10377674D01*
X-13013509Y-10377674D02*
X-13032556Y-10368150D01*
X-13032556Y-10368150D02*
X-13070652Y-10368150D01*
X-13070652Y-10368150D02*
X-13089699Y-10377674D01*
X-13003985Y-10491960D02*
X-13023033Y-10501484D01*
X-13023033Y-10501484D02*
X-13070652Y-10501484D01*
X-13070652Y-10501484D02*
X-13089699Y-10491960D01*
X-13089699Y-10491960D02*
X-13099223Y-10472912D01*
X-13099223Y-10472912D02*
X-13099223Y-10453865D01*
X-13099223Y-10453865D02*
X-13089699Y-10434817D01*
X-13089699Y-10434817D02*
X-13070652Y-10425293D01*
X-13070652Y-10425293D02*
X-13023033Y-10425293D01*
X-13023033Y-10425293D02*
X-13003985Y-10415770D01*
X-12908747Y-10368150D02*
X-12908747Y-10568150D01*
X-12908747Y-10377674D02*
X-12889699Y-10368150D01*
X-12889699Y-10368150D02*
X-12851604Y-10368150D01*
X-12851604Y-10368150D02*
X-12832556Y-10377674D01*
X-12832556Y-10377674D02*
X-12823033Y-10387198D01*
X-12823033Y-10387198D02*
X-12813509Y-10406246D01*
X-12813509Y-10406246D02*
X-12813509Y-10463389D01*
X-12813509Y-10463389D02*
X-12823033Y-10482436D01*
X-12823033Y-10482436D02*
X-12832556Y-10491960D01*
X-12832556Y-10491960D02*
X-12851604Y-10501484D01*
X-12851604Y-10501484D02*
X-12889699Y-10501484D01*
X-12889699Y-10501484D02*
X-12908747Y-10491960D01*
X-12727794Y-10482436D02*
X-12718271Y-10491960D01*
X-12718271Y-10491960D02*
X-12727794Y-10501484D01*
X-12727794Y-10501484D02*
X-12737318Y-10491960D01*
X-12737318Y-10491960D02*
X-12727794Y-10482436D01*
X-12727794Y-10482436D02*
X-12727794Y-10501484D01*
X-12727794Y-10377674D02*
X-12718271Y-10387198D01*
X-12718271Y-10387198D02*
X-12727794Y-10396722D01*
X-12727794Y-10396722D02*
X-12737318Y-10387198D01*
X-12737318Y-10387198D02*
X-12727794Y-10377674D01*
X-12727794Y-10377674D02*
X-12727794Y-10396722D01*
D11*
X-14390000Y-10815000D02*
X-14360000Y-10845000D01*
X-14360000Y-10815000D02*
X-14390000Y-10845000D01*
D10*
X-14061128Y-10721484D02*
X-14042080Y-10721484D01*
X-14042080Y-10721484D02*
X-14023033Y-10731008D01*
X-14023033Y-10731008D02*
X-14013509Y-10740531D01*
X-14013509Y-10740531D02*
X-14003985Y-10759579D01*
X-14003985Y-10759579D02*
X-13994461Y-10797674D01*
X-13994461Y-10797674D02*
X-13994461Y-10845293D01*
X-13994461Y-10845293D02*
X-14003985Y-10883389D01*
X-14003985Y-10883389D02*
X-14013509Y-10902436D01*
X-14013509Y-10902436D02*
X-14023033Y-10911960D01*
X-14023033Y-10911960D02*
X-14042080Y-10921484D01*
X-14042080Y-10921484D02*
X-14061128Y-10921484D01*
X-14061128Y-10921484D02*
X-14080175Y-10911960D01*
X-14080175Y-10911960D02*
X-14089699Y-10902436D01*
X-14089699Y-10902436D02*
X-14099223Y-10883389D01*
X-14099223Y-10883389D02*
X-14108747Y-10845293D01*
X-14108747Y-10845293D02*
X-14108747Y-10797674D01*
X-14108747Y-10797674D02*
X-14099223Y-10759579D01*
X-14099223Y-10759579D02*
X-14089699Y-10740531D01*
X-14089699Y-10740531D02*
X-14080175Y-10731008D01*
X-14080175Y-10731008D02*
X-14061128Y-10721484D01*
X-13908747Y-10902436D02*
X-13899223Y-10911960D01*
X-13899223Y-10911960D02*
X-13908747Y-10921484D01*
X-13908747Y-10921484D02*
X-13918271Y-10911960D01*
X-13918271Y-10911960D02*
X-13908747Y-10902436D01*
X-13908747Y-10902436D02*
X-13908747Y-10921484D01*
X-13832556Y-10721484D02*
X-13708747Y-10721484D01*
X-13708747Y-10721484D02*
X-13775414Y-10797674D01*
X-13775414Y-10797674D02*
X-13746842Y-10797674D01*
X-13746842Y-10797674D02*
X-13727794Y-10807198D01*
X-13727794Y-10807198D02*
X-13718271Y-10816722D01*
X-13718271Y-10816722D02*
X-13708747Y-10835770D01*
X-13708747Y-10835770D02*
X-13708747Y-10883389D01*
X-13708747Y-10883389D02*
X-13718271Y-10902436D01*
X-13718271Y-10902436D02*
X-13727794Y-10911960D01*
X-13727794Y-10911960D02*
X-13746842Y-10921484D01*
X-13746842Y-10921484D02*
X-13803985Y-10921484D01*
X-13803985Y-10921484D02*
X-13823033Y-10911960D01*
X-13823033Y-10911960D02*
X-13832556Y-10902436D01*
X-13584937Y-10721484D02*
X-13565890Y-10721484D01*
X-13565890Y-10721484D02*
X-13546842Y-10731008D01*
X-13546842Y-10731008D02*
X-13537318Y-10740531D01*
X-13537318Y-10740531D02*
X-13527794Y-10759579D01*
X-13527794Y-10759579D02*
X-13518271Y-10797674D01*
X-13518271Y-10797674D02*
X-13518271Y-10845293D01*
X-13518271Y-10845293D02*
X-13527794Y-10883389D01*
X-13527794Y-10883389D02*
X-13537318Y-10902436D01*
X-13537318Y-10902436D02*
X-13546842Y-10911960D01*
X-13546842Y-10911960D02*
X-13565890Y-10921484D01*
X-13565890Y-10921484D02*
X-13584937Y-10921484D01*
X-13584937Y-10921484D02*
X-13603985Y-10911960D01*
X-13603985Y-10911960D02*
X-13613509Y-10902436D01*
X-13613509Y-10902436D02*
X-13623033Y-10883389D01*
X-13623033Y-10883389D02*
X-13632556Y-10845293D01*
X-13632556Y-10845293D02*
X-13632556Y-10797674D01*
X-13632556Y-10797674D02*
X-13623033Y-10759579D01*
X-13623033Y-10759579D02*
X-13613509Y-10740531D01*
X-13613509Y-10740531D02*
X-13603985Y-10731008D01*
X-13603985Y-10731008D02*
X-13584937Y-10721484D01*
X-13394461Y-10721484D02*
X-13375413Y-10721484D01*
X-13375413Y-10721484D02*
X-13356366Y-10731008D01*
X-13356366Y-10731008D02*
X-13346842Y-10740531D01*
X-13346842Y-10740531D02*
X-13337318Y-10759579D01*
X-13337318Y-10759579D02*
X-13327794Y-10797674D01*
X-13327794Y-10797674D02*
X-13327794Y-10845293D01*
X-13327794Y-10845293D02*
X-13337318Y-10883389D01*
X-13337318Y-10883389D02*
X-13346842Y-10902436D01*
X-13346842Y-10902436D02*
X-13356366Y-10911960D01*
X-13356366Y-10911960D02*
X-13375413Y-10921484D01*
X-13375413Y-10921484D02*
X-13394461Y-10921484D01*
X-13394461Y-10921484D02*
X-13413509Y-10911960D01*
X-13413509Y-10911960D02*
X-13423033Y-10902436D01*
X-13423033Y-10902436D02*
X-13432556Y-10883389D01*
X-13432556Y-10883389D02*
X-13442080Y-10845293D01*
X-13442080Y-10845293D02*
X-13442080Y-10797674D01*
X-13442080Y-10797674D02*
X-13432556Y-10759579D01*
X-13432556Y-10759579D02*
X-13423033Y-10740531D01*
X-13423033Y-10740531D02*
X-13413509Y-10731008D01*
X-13413509Y-10731008D02*
X-13394461Y-10721484D01*
X-13242080Y-10921484D02*
X-13242080Y-10788150D01*
X-13242080Y-10807198D02*
X-13232556Y-10797674D01*
X-13232556Y-10797674D02*
X-13213509Y-10788150D01*
X-13213509Y-10788150D02*
X-13184937Y-10788150D01*
X-13184937Y-10788150D02*
X-13165890Y-10797674D01*
X-13165890Y-10797674D02*
X-13156366Y-10816722D01*
X-13156366Y-10816722D02*
X-13156366Y-10921484D01*
X-13156366Y-10816722D02*
X-13146842Y-10797674D01*
X-13146842Y-10797674D02*
X-13127794Y-10788150D01*
X-13127794Y-10788150D02*
X-13099223Y-10788150D01*
X-13099223Y-10788150D02*
X-13080175Y-10797674D01*
X-13080175Y-10797674D02*
X-13070652Y-10816722D01*
X-13070652Y-10816722D02*
X-13070652Y-10921484D01*
X-12975413Y-10921484D02*
X-12975413Y-10788150D01*
X-12975413Y-10807198D02*
X-12965890Y-10797674D01*
X-12965890Y-10797674D02*
X-12946842Y-10788150D01*
X-12946842Y-10788150D02*
X-12918271Y-10788150D01*
X-12918271Y-10788150D02*
X-12899223Y-10797674D01*
X-12899223Y-10797674D02*
X-12889699Y-10816722D01*
X-12889699Y-10816722D02*
X-12889699Y-10921484D01*
X-12889699Y-10816722D02*
X-12880175Y-10797674D01*
X-12880175Y-10797674D02*
X-12861128Y-10788150D01*
X-12861128Y-10788150D02*
X-12832556Y-10788150D01*
X-12832556Y-10788150D02*
X-12813509Y-10797674D01*
X-12813509Y-10797674D02*
X-12803985Y-10816722D01*
X-12803985Y-10816722D02*
X-12803985Y-10921484D01*
X-12413509Y-10711960D02*
X-12584937Y-10969103D01*
X-12156366Y-10721484D02*
X-12137318Y-10721484D01*
X-12137318Y-10721484D02*
X-12118270Y-10731008D01*
X-12118270Y-10731008D02*
X-12108747Y-10740531D01*
X-12108747Y-10740531D02*
X-12099223Y-10759579D01*
X-12099223Y-10759579D02*
X-12089699Y-10797674D01*
X-12089699Y-10797674D02*
X-12089699Y-10845293D01*
X-12089699Y-10845293D02*
X-12099223Y-10883389D01*
X-12099223Y-10883389D02*
X-12108747Y-10902436D01*
X-12108747Y-10902436D02*
X-12118270Y-10911960D01*
X-12118270Y-10911960D02*
X-12137318Y-10921484D01*
X-12137318Y-10921484D02*
X-12156366Y-10921484D01*
X-12156366Y-10921484D02*
X-12175413Y-10911960D01*
X-12175413Y-10911960D02*
X-12184937Y-10902436D01*
X-12184937Y-10902436D02*
X-12194461Y-10883389D01*
X-12194461Y-10883389D02*
X-12203985Y-10845293D01*
X-12203985Y-10845293D02*
X-12203985Y-10797674D01*
X-12203985Y-10797674D02*
X-12194461Y-10759579D01*
X-12194461Y-10759579D02*
X-12184937Y-10740531D01*
X-12184937Y-10740531D02*
X-12175413Y-10731008D01*
X-12175413Y-10731008D02*
X-12156366Y-10721484D01*
X-12003985Y-10902436D02*
X-11994461Y-10911960D01*
X-11994461Y-10911960D02*
X-12003985Y-10921484D01*
X-12003985Y-10921484D02*
X-12013509Y-10911960D01*
X-12013509Y-10911960D02*
X-12003985Y-10902436D01*
X-12003985Y-10902436D02*
X-12003985Y-10921484D01*
X-11870651Y-10721484D02*
X-11851604Y-10721484D01*
X-11851604Y-10721484D02*
X-11832556Y-10731008D01*
X-11832556Y-10731008D02*
X-11823032Y-10740531D01*
X-11823032Y-10740531D02*
X-11813509Y-10759579D01*
X-11813509Y-10759579D02*
X-11803985Y-10797674D01*
X-11803985Y-10797674D02*
X-11803985Y-10845293D01*
X-11803985Y-10845293D02*
X-11813509Y-10883389D01*
X-11813509Y-10883389D02*
X-11823032Y-10902436D01*
X-11823032Y-10902436D02*
X-11832556Y-10911960D01*
X-11832556Y-10911960D02*
X-11851604Y-10921484D01*
X-11851604Y-10921484D02*
X-11870651Y-10921484D01*
X-11870651Y-10921484D02*
X-11889699Y-10911960D01*
X-11889699Y-10911960D02*
X-11899223Y-10902436D01*
X-11899223Y-10902436D02*
X-11908747Y-10883389D01*
X-11908747Y-10883389D02*
X-11918270Y-10845293D01*
X-11918270Y-10845293D02*
X-11918270Y-10797674D01*
X-11918270Y-10797674D02*
X-11908747Y-10759579D01*
X-11908747Y-10759579D02*
X-11899223Y-10740531D01*
X-11899223Y-10740531D02*
X-11889699Y-10731008D01*
X-11889699Y-10731008D02*
X-11870651Y-10721484D01*
X-11613509Y-10921484D02*
X-11727794Y-10921484D01*
X-11670651Y-10921484D02*
X-11670651Y-10721484D01*
X-11670651Y-10721484D02*
X-11689699Y-10750055D01*
X-11689699Y-10750055D02*
X-11708747Y-10769103D01*
X-11708747Y-10769103D02*
X-11727794Y-10778627D01*
X-11423032Y-10921484D02*
X-11537318Y-10921484D01*
X-11480175Y-10921484D02*
X-11480175Y-10721484D01*
X-11480175Y-10721484D02*
X-11499223Y-10750055D01*
X-11499223Y-10750055D02*
X-11518270Y-10769103D01*
X-11518270Y-10769103D02*
X-11537318Y-10778627D01*
X-11308747Y-10807198D02*
X-11327794Y-10797674D01*
X-11327794Y-10797674D02*
X-11337318Y-10788150D01*
X-11337318Y-10788150D02*
X-11346842Y-10769103D01*
X-11346842Y-10769103D02*
X-11346842Y-10759579D01*
X-11346842Y-10759579D02*
X-11337318Y-10740531D01*
X-11337318Y-10740531D02*
X-11327794Y-10731008D01*
X-11327794Y-10731008D02*
X-11308747Y-10721484D01*
X-11308747Y-10721484D02*
X-11270651Y-10721484D01*
X-11270651Y-10721484D02*
X-11251604Y-10731008D01*
X-11251604Y-10731008D02*
X-11242080Y-10740531D01*
X-11242080Y-10740531D02*
X-11232556Y-10759579D01*
X-11232556Y-10759579D02*
X-11232556Y-10769103D01*
X-11232556Y-10769103D02*
X-11242080Y-10788150D01*
X-11242080Y-10788150D02*
X-11251604Y-10797674D01*
X-11251604Y-10797674D02*
X-11270651Y-10807198D01*
X-11270651Y-10807198D02*
X-11308747Y-10807198D01*
X-11308747Y-10807198D02*
X-11327794Y-10816722D01*
X-11327794Y-10816722D02*
X-11337318Y-10826246D01*
X-11337318Y-10826246D02*
X-11346842Y-10845293D01*
X-11346842Y-10845293D02*
X-11346842Y-10883389D01*
X-11346842Y-10883389D02*
X-11337318Y-10902436D01*
X-11337318Y-10902436D02*
X-11327794Y-10911960D01*
X-11327794Y-10911960D02*
X-11308747Y-10921484D01*
X-11308747Y-10921484D02*
X-11270651Y-10921484D01*
X-11270651Y-10921484D02*
X-11251604Y-10911960D01*
X-11251604Y-10911960D02*
X-11242080Y-10902436D01*
X-11242080Y-10902436D02*
X-11232556Y-10883389D01*
X-11232556Y-10883389D02*
X-11232556Y-10845293D01*
X-11232556Y-10845293D02*
X-11242080Y-10826246D01*
X-11242080Y-10826246D02*
X-11251604Y-10816722D01*
X-11251604Y-10816722D02*
X-11270651Y-10807198D01*
X-11156366Y-10721484D02*
X-11156366Y-10759579D01*
X-11080175Y-10721484D02*
X-11080175Y-10759579D01*
X-10784937Y-10997674D02*
X-10794461Y-10988150D01*
X-10794461Y-10988150D02*
X-10813509Y-10959579D01*
X-10813509Y-10959579D02*
X-10823032Y-10940531D01*
X-10823032Y-10940531D02*
X-10832556Y-10911960D01*
X-10832556Y-10911960D02*
X-10842080Y-10864341D01*
X-10842080Y-10864341D02*
X-10842080Y-10826246D01*
X-10842080Y-10826246D02*
X-10832556Y-10778627D01*
X-10832556Y-10778627D02*
X-10823032Y-10750055D01*
X-10823032Y-10750055D02*
X-10813509Y-10731008D01*
X-10813509Y-10731008D02*
X-10794461Y-10702436D01*
X-10794461Y-10702436D02*
X-10784937Y-10692912D01*
X-10603985Y-10921484D02*
X-10718270Y-10921484D01*
X-10661128Y-10921484D02*
X-10661128Y-10721484D01*
X-10661128Y-10721484D02*
X-10680175Y-10750055D01*
X-10680175Y-10750055D02*
X-10699223Y-10769103D01*
X-10699223Y-10769103D02*
X-10718270Y-10778627D01*
X-10508747Y-10921484D02*
X-10470651Y-10921484D01*
X-10470651Y-10921484D02*
X-10451604Y-10911960D01*
X-10451604Y-10911960D02*
X-10442080Y-10902436D01*
X-10442080Y-10902436D02*
X-10423032Y-10873865D01*
X-10423032Y-10873865D02*
X-10413509Y-10835770D01*
X-10413509Y-10835770D02*
X-10413509Y-10759579D01*
X-10413509Y-10759579D02*
X-10423032Y-10740531D01*
X-10423032Y-10740531D02*
X-10432556Y-10731008D01*
X-10432556Y-10731008D02*
X-10451604Y-10721484D01*
X-10451604Y-10721484D02*
X-10489699Y-10721484D01*
X-10489699Y-10721484D02*
X-10508747Y-10731008D01*
X-10508747Y-10731008D02*
X-10518270Y-10740531D01*
X-10518270Y-10740531D02*
X-10527794Y-10759579D01*
X-10527794Y-10759579D02*
X-10527794Y-10807198D01*
X-10527794Y-10807198D02*
X-10518270Y-10826246D01*
X-10518270Y-10826246D02*
X-10508747Y-10835770D01*
X-10508747Y-10835770D02*
X-10489699Y-10845293D01*
X-10489699Y-10845293D02*
X-10451604Y-10845293D01*
X-10451604Y-10845293D02*
X-10432556Y-10835770D01*
X-10432556Y-10835770D02*
X-10423032Y-10826246D01*
X-10423032Y-10826246D02*
X-10413509Y-10807198D01*
X-10299223Y-10807198D02*
X-10318270Y-10797674D01*
X-10318270Y-10797674D02*
X-10327794Y-10788150D01*
X-10327794Y-10788150D02*
X-10337318Y-10769103D01*
X-10337318Y-10769103D02*
X-10337318Y-10759579D01*
X-10337318Y-10759579D02*
X-10327794Y-10740531D01*
X-10327794Y-10740531D02*
X-10318270Y-10731008D01*
X-10318270Y-10731008D02*
X-10299223Y-10721484D01*
X-10299223Y-10721484D02*
X-10261128Y-10721484D01*
X-10261128Y-10721484D02*
X-10242080Y-10731008D01*
X-10242080Y-10731008D02*
X-10232556Y-10740531D01*
X-10232556Y-10740531D02*
X-10223032Y-10759579D01*
X-10223032Y-10759579D02*
X-10223032Y-10769103D01*
X-10223032Y-10769103D02*
X-10232556Y-10788150D01*
X-10232556Y-10788150D02*
X-10242080Y-10797674D01*
X-10242080Y-10797674D02*
X-10261128Y-10807198D01*
X-10261128Y-10807198D02*
X-10299223Y-10807198D01*
X-10299223Y-10807198D02*
X-10318270Y-10816722D01*
X-10318270Y-10816722D02*
X-10327794Y-10826246D01*
X-10327794Y-10826246D02*
X-10337318Y-10845293D01*
X-10337318Y-10845293D02*
X-10337318Y-10883389D01*
X-10337318Y-10883389D02*
X-10327794Y-10902436D01*
X-10327794Y-10902436D02*
X-10318270Y-10911960D01*
X-10318270Y-10911960D02*
X-10299223Y-10921484D01*
X-10299223Y-10921484D02*
X-10261128Y-10921484D01*
X-10261128Y-10921484D02*
X-10242080Y-10911960D01*
X-10242080Y-10911960D02*
X-10232556Y-10902436D01*
X-10232556Y-10902436D02*
X-10223032Y-10883389D01*
X-10223032Y-10883389D02*
X-10223032Y-10845293D01*
X-10223032Y-10845293D02*
X-10232556Y-10826246D01*
X-10232556Y-10826246D02*
X-10242080Y-10816722D01*
X-10242080Y-10816722D02*
X-10261128Y-10807198D01*
X-9984937Y-10921484D02*
X-9984937Y-10721484D01*
X-9899223Y-10921484D02*
X-9899223Y-10816722D01*
X-9899223Y-10816722D02*
X-9908747Y-10797674D01*
X-9908747Y-10797674D02*
X-9927794Y-10788150D01*
X-9927794Y-10788150D02*
X-9956366Y-10788150D01*
X-9956366Y-10788150D02*
X-9975413Y-10797674D01*
X-9975413Y-10797674D02*
X-9984937Y-10807198D01*
X-9775413Y-10921484D02*
X-9794461Y-10911960D01*
X-9794461Y-10911960D02*
X-9803985Y-10902436D01*
X-9803985Y-10902436D02*
X-9813508Y-10883389D01*
X-9813508Y-10883389D02*
X-9813508Y-10826246D01*
X-9813508Y-10826246D02*
X-9803985Y-10807198D01*
X-9803985Y-10807198D02*
X-9794461Y-10797674D01*
X-9794461Y-10797674D02*
X-9775413Y-10788150D01*
X-9775413Y-10788150D02*
X-9746842Y-10788150D01*
X-9746842Y-10788150D02*
X-9727794Y-10797674D01*
X-9727794Y-10797674D02*
X-9718270Y-10807198D01*
X-9718270Y-10807198D02*
X-9708747Y-10826246D01*
X-9708747Y-10826246D02*
X-9708747Y-10883389D01*
X-9708747Y-10883389D02*
X-9718270Y-10902436D01*
X-9718270Y-10902436D02*
X-9727794Y-10911960D01*
X-9727794Y-10911960D02*
X-9746842Y-10921484D01*
X-9746842Y-10921484D02*
X-9775413Y-10921484D01*
X-9594461Y-10921484D02*
X-9613508Y-10911960D01*
X-9613508Y-10911960D02*
X-9623032Y-10892912D01*
X-9623032Y-10892912D02*
X-9623032Y-10721484D01*
X-9442080Y-10911960D02*
X-9461127Y-10921484D01*
X-9461127Y-10921484D02*
X-9499223Y-10921484D01*
X-9499223Y-10921484D02*
X-9518270Y-10911960D01*
X-9518270Y-10911960D02*
X-9527794Y-10892912D01*
X-9527794Y-10892912D02*
X-9527794Y-10816722D01*
X-9527794Y-10816722D02*
X-9518270Y-10797674D01*
X-9518270Y-10797674D02*
X-9499223Y-10788150D01*
X-9499223Y-10788150D02*
X-9461127Y-10788150D01*
X-9461127Y-10788150D02*
X-9442080Y-10797674D01*
X-9442080Y-10797674D02*
X-9432556Y-10816722D01*
X-9432556Y-10816722D02*
X-9432556Y-10835770D01*
X-9432556Y-10835770D02*
X-9527794Y-10854817D01*
X-9356366Y-10911960D02*
X-9337318Y-10921484D01*
X-9337318Y-10921484D02*
X-9299223Y-10921484D01*
X-9299223Y-10921484D02*
X-9280175Y-10911960D01*
X-9280175Y-10911960D02*
X-9270651Y-10892912D01*
X-9270651Y-10892912D02*
X-9270651Y-10883389D01*
X-9270651Y-10883389D02*
X-9280175Y-10864341D01*
X-9280175Y-10864341D02*
X-9299223Y-10854817D01*
X-9299223Y-10854817D02*
X-9327794Y-10854817D01*
X-9327794Y-10854817D02*
X-9346842Y-10845293D01*
X-9346842Y-10845293D02*
X-9356366Y-10826246D01*
X-9356366Y-10826246D02*
X-9356366Y-10816722D01*
X-9356366Y-10816722D02*
X-9346842Y-10797674D01*
X-9346842Y-10797674D02*
X-9327794Y-10788150D01*
X-9327794Y-10788150D02*
X-9299223Y-10788150D01*
X-9299223Y-10788150D02*
X-9280175Y-10797674D01*
X-9203985Y-10997674D02*
X-9194461Y-10988150D01*
X-9194461Y-10988150D02*
X-9175413Y-10959579D01*
X-9175413Y-10959579D02*
X-9165889Y-10940531D01*
X-9165889Y-10940531D02*
X-9156366Y-10911960D01*
X-9156366Y-10911960D02*
X-9146842Y-10864341D01*
X-9146842Y-10864341D02*
X-9146842Y-10826246D01*
X-9146842Y-10826246D02*
X-9156366Y-10778627D01*
X-9156366Y-10778627D02*
X-9165889Y-10750055D01*
X-9165889Y-10750055D02*
X-9175413Y-10731008D01*
X-9175413Y-10731008D02*
X-9194461Y-10702436D01*
X-9194461Y-10702436D02*
X-9203985Y-10692912D01*
D11*
X-14360000Y-11094000D02*
G75*
G02*
X-14410000Y-11094000I-25000J0D01*
G01*
X-14410000Y-11094000D02*
G75*
G02*
X-14360000Y-11094000I25000J0D01*
G01*
D10*
X-14061128Y-10985484D02*
X-14042080Y-10985484D01*
X-14042080Y-10985484D02*
X-14023033Y-10995008D01*
X-14023033Y-10995008D02*
X-14013509Y-11004531D01*
X-14013509Y-11004531D02*
X-14003985Y-11023579D01*
X-14003985Y-11023579D02*
X-13994461Y-11061674D01*
X-13994461Y-11061674D02*
X-13994461Y-11109293D01*
X-13994461Y-11109293D02*
X-14003985Y-11147389D01*
X-14003985Y-11147389D02*
X-14013509Y-11166436D01*
X-14013509Y-11166436D02*
X-14023033Y-11175960D01*
X-14023033Y-11175960D02*
X-14042080Y-11185484D01*
X-14042080Y-11185484D02*
X-14061128Y-11185484D01*
X-14061128Y-11185484D02*
X-14080175Y-11175960D01*
X-14080175Y-11175960D02*
X-14089699Y-11166436D01*
X-14089699Y-11166436D02*
X-14099223Y-11147389D01*
X-14099223Y-11147389D02*
X-14108747Y-11109293D01*
X-14108747Y-11109293D02*
X-14108747Y-11061674D01*
X-14108747Y-11061674D02*
X-14099223Y-11023579D01*
X-14099223Y-11023579D02*
X-14089699Y-11004531D01*
X-14089699Y-11004531D02*
X-14080175Y-10995008D01*
X-14080175Y-10995008D02*
X-14061128Y-10985484D01*
X-13908747Y-11166436D02*
X-13899223Y-11175960D01*
X-13899223Y-11175960D02*
X-13908747Y-11185484D01*
X-13908747Y-11185484D02*
X-13918271Y-11175960D01*
X-13918271Y-11175960D02*
X-13908747Y-11166436D01*
X-13908747Y-11166436D02*
X-13908747Y-11185484D01*
X-13718271Y-10985484D02*
X-13813509Y-10985484D01*
X-13813509Y-10985484D02*
X-13823033Y-11080722D01*
X-13823033Y-11080722D02*
X-13813509Y-11071198D01*
X-13813509Y-11071198D02*
X-13794461Y-11061674D01*
X-13794461Y-11061674D02*
X-13746842Y-11061674D01*
X-13746842Y-11061674D02*
X-13727794Y-11071198D01*
X-13727794Y-11071198D02*
X-13718271Y-11080722D01*
X-13718271Y-11080722D02*
X-13708747Y-11099770D01*
X-13708747Y-11099770D02*
X-13708747Y-11147389D01*
X-13708747Y-11147389D02*
X-13718271Y-11166436D01*
X-13718271Y-11166436D02*
X-13727794Y-11175960D01*
X-13727794Y-11175960D02*
X-13746842Y-11185484D01*
X-13746842Y-11185484D02*
X-13794461Y-11185484D01*
X-13794461Y-11185484D02*
X-13813509Y-11175960D01*
X-13813509Y-11175960D02*
X-13823033Y-11166436D01*
X-13584937Y-10985484D02*
X-13565890Y-10985484D01*
X-13565890Y-10985484D02*
X-13546842Y-10995008D01*
X-13546842Y-10995008D02*
X-13537318Y-11004531D01*
X-13537318Y-11004531D02*
X-13527794Y-11023579D01*
X-13527794Y-11023579D02*
X-13518271Y-11061674D01*
X-13518271Y-11061674D02*
X-13518271Y-11109293D01*
X-13518271Y-11109293D02*
X-13527794Y-11147389D01*
X-13527794Y-11147389D02*
X-13537318Y-11166436D01*
X-13537318Y-11166436D02*
X-13546842Y-11175960D01*
X-13546842Y-11175960D02*
X-13565890Y-11185484D01*
X-13565890Y-11185484D02*
X-13584937Y-11185484D01*
X-13584937Y-11185484D02*
X-13603985Y-11175960D01*
X-13603985Y-11175960D02*
X-13613509Y-11166436D01*
X-13613509Y-11166436D02*
X-13623033Y-11147389D01*
X-13623033Y-11147389D02*
X-13632556Y-11109293D01*
X-13632556Y-11109293D02*
X-13632556Y-11061674D01*
X-13632556Y-11061674D02*
X-13623033Y-11023579D01*
X-13623033Y-11023579D02*
X-13613509Y-11004531D01*
X-13613509Y-11004531D02*
X-13603985Y-10995008D01*
X-13603985Y-10995008D02*
X-13584937Y-10985484D01*
X-13394461Y-10985484D02*
X-13375413Y-10985484D01*
X-13375413Y-10985484D02*
X-13356366Y-10995008D01*
X-13356366Y-10995008D02*
X-13346842Y-11004531D01*
X-13346842Y-11004531D02*
X-13337318Y-11023579D01*
X-13337318Y-11023579D02*
X-13327794Y-11061674D01*
X-13327794Y-11061674D02*
X-13327794Y-11109293D01*
X-13327794Y-11109293D02*
X-13337318Y-11147389D01*
X-13337318Y-11147389D02*
X-13346842Y-11166436D01*
X-13346842Y-11166436D02*
X-13356366Y-11175960D01*
X-13356366Y-11175960D02*
X-13375413Y-11185484D01*
X-13375413Y-11185484D02*
X-13394461Y-11185484D01*
X-13394461Y-11185484D02*
X-13413509Y-11175960D01*
X-13413509Y-11175960D02*
X-13423033Y-11166436D01*
X-13423033Y-11166436D02*
X-13432556Y-11147389D01*
X-13432556Y-11147389D02*
X-13442080Y-11109293D01*
X-13442080Y-11109293D02*
X-13442080Y-11061674D01*
X-13442080Y-11061674D02*
X-13432556Y-11023579D01*
X-13432556Y-11023579D02*
X-13423033Y-11004531D01*
X-13423033Y-11004531D02*
X-13413509Y-10995008D01*
X-13413509Y-10995008D02*
X-13394461Y-10985484D01*
X-13242080Y-11185484D02*
X-13242080Y-11052150D01*
X-13242080Y-11071198D02*
X-13232556Y-11061674D01*
X-13232556Y-11061674D02*
X-13213509Y-11052150D01*
X-13213509Y-11052150D02*
X-13184937Y-11052150D01*
X-13184937Y-11052150D02*
X-13165890Y-11061674D01*
X-13165890Y-11061674D02*
X-13156366Y-11080722D01*
X-13156366Y-11080722D02*
X-13156366Y-11185484D01*
X-13156366Y-11080722D02*
X-13146842Y-11061674D01*
X-13146842Y-11061674D02*
X-13127794Y-11052150D01*
X-13127794Y-11052150D02*
X-13099223Y-11052150D01*
X-13099223Y-11052150D02*
X-13080175Y-11061674D01*
X-13080175Y-11061674D02*
X-13070652Y-11080722D01*
X-13070652Y-11080722D02*
X-13070652Y-11185484D01*
X-12975413Y-11185484D02*
X-12975413Y-11052150D01*
X-12975413Y-11071198D02*
X-12965890Y-11061674D01*
X-12965890Y-11061674D02*
X-12946842Y-11052150D01*
X-12946842Y-11052150D02*
X-12918271Y-11052150D01*
X-12918271Y-11052150D02*
X-12899223Y-11061674D01*
X-12899223Y-11061674D02*
X-12889699Y-11080722D01*
X-12889699Y-11080722D02*
X-12889699Y-11185484D01*
X-12889699Y-11080722D02*
X-12880175Y-11061674D01*
X-12880175Y-11061674D02*
X-12861128Y-11052150D01*
X-12861128Y-11052150D02*
X-12832556Y-11052150D01*
X-12832556Y-11052150D02*
X-12813509Y-11061674D01*
X-12813509Y-11061674D02*
X-12803985Y-11080722D01*
X-12803985Y-11080722D02*
X-12803985Y-11185484D01*
X-12413509Y-10975960D02*
X-12584937Y-11233103D01*
X-12156366Y-10985484D02*
X-12137318Y-10985484D01*
X-12137318Y-10985484D02*
X-12118270Y-10995008D01*
X-12118270Y-10995008D02*
X-12108747Y-11004531D01*
X-12108747Y-11004531D02*
X-12099223Y-11023579D01*
X-12099223Y-11023579D02*
X-12089699Y-11061674D01*
X-12089699Y-11061674D02*
X-12089699Y-11109293D01*
X-12089699Y-11109293D02*
X-12099223Y-11147389D01*
X-12099223Y-11147389D02*
X-12108747Y-11166436D01*
X-12108747Y-11166436D02*
X-12118270Y-11175960D01*
X-12118270Y-11175960D02*
X-12137318Y-11185484D01*
X-12137318Y-11185484D02*
X-12156366Y-11185484D01*
X-12156366Y-11185484D02*
X-12175413Y-11175960D01*
X-12175413Y-11175960D02*
X-12184937Y-11166436D01*
X-12184937Y-11166436D02*
X-12194461Y-11147389D01*
X-12194461Y-11147389D02*
X-12203985Y-11109293D01*
X-12203985Y-11109293D02*
X-12203985Y-11061674D01*
X-12203985Y-11061674D02*
X-12194461Y-11023579D01*
X-12194461Y-11023579D02*
X-12184937Y-11004531D01*
X-12184937Y-11004531D02*
X-12175413Y-10995008D01*
X-12175413Y-10995008D02*
X-12156366Y-10985484D01*
X-12003985Y-11166436D02*
X-11994461Y-11175960D01*
X-11994461Y-11175960D02*
X-12003985Y-11185484D01*
X-12003985Y-11185484D02*
X-12013509Y-11175960D01*
X-12013509Y-11175960D02*
X-12003985Y-11166436D01*
X-12003985Y-11166436D02*
X-12003985Y-11185484D01*
X-11870651Y-10985484D02*
X-11851604Y-10985484D01*
X-11851604Y-10985484D02*
X-11832556Y-10995008D01*
X-11832556Y-10995008D02*
X-11823032Y-11004531D01*
X-11823032Y-11004531D02*
X-11813509Y-11023579D01*
X-11813509Y-11023579D02*
X-11803985Y-11061674D01*
X-11803985Y-11061674D02*
X-11803985Y-11109293D01*
X-11803985Y-11109293D02*
X-11813509Y-11147389D01*
X-11813509Y-11147389D02*
X-11823032Y-11166436D01*
X-11823032Y-11166436D02*
X-11832556Y-11175960D01*
X-11832556Y-11175960D02*
X-11851604Y-11185484D01*
X-11851604Y-11185484D02*
X-11870651Y-11185484D01*
X-11870651Y-11185484D02*
X-11889699Y-11175960D01*
X-11889699Y-11175960D02*
X-11899223Y-11166436D01*
X-11899223Y-11166436D02*
X-11908747Y-11147389D01*
X-11908747Y-11147389D02*
X-11918270Y-11109293D01*
X-11918270Y-11109293D02*
X-11918270Y-11061674D01*
X-11918270Y-11061674D02*
X-11908747Y-11023579D01*
X-11908747Y-11023579D02*
X-11899223Y-11004531D01*
X-11899223Y-11004531D02*
X-11889699Y-10995008D01*
X-11889699Y-10995008D02*
X-11870651Y-10985484D01*
X-11613509Y-11185484D02*
X-11727794Y-11185484D01*
X-11670651Y-11185484D02*
X-11670651Y-10985484D01*
X-11670651Y-10985484D02*
X-11689699Y-11014055D01*
X-11689699Y-11014055D02*
X-11708747Y-11033103D01*
X-11708747Y-11033103D02*
X-11727794Y-11042627D01*
X-11518270Y-11185484D02*
X-11480175Y-11185484D01*
X-11480175Y-11185484D02*
X-11461128Y-11175960D01*
X-11461128Y-11175960D02*
X-11451604Y-11166436D01*
X-11451604Y-11166436D02*
X-11432556Y-11137865D01*
X-11432556Y-11137865D02*
X-11423032Y-11099770D01*
X-11423032Y-11099770D02*
X-11423032Y-11023579D01*
X-11423032Y-11023579D02*
X-11432556Y-11004531D01*
X-11432556Y-11004531D02*
X-11442080Y-10995008D01*
X-11442080Y-10995008D02*
X-11461128Y-10985484D01*
X-11461128Y-10985484D02*
X-11499223Y-10985484D01*
X-11499223Y-10985484D02*
X-11518270Y-10995008D01*
X-11518270Y-10995008D02*
X-11527794Y-11004531D01*
X-11527794Y-11004531D02*
X-11537318Y-11023579D01*
X-11537318Y-11023579D02*
X-11537318Y-11071198D01*
X-11537318Y-11071198D02*
X-11527794Y-11090246D01*
X-11527794Y-11090246D02*
X-11518270Y-11099770D01*
X-11518270Y-11099770D02*
X-11499223Y-11109293D01*
X-11499223Y-11109293D02*
X-11461128Y-11109293D01*
X-11461128Y-11109293D02*
X-11442080Y-11099770D01*
X-11442080Y-11099770D02*
X-11432556Y-11090246D01*
X-11432556Y-11090246D02*
X-11423032Y-11071198D01*
X-11356366Y-10985484D02*
X-11223032Y-10985484D01*
X-11223032Y-10985484D02*
X-11308747Y-11185484D01*
X-11156366Y-10985484D02*
X-11156366Y-11023579D01*
X-11080175Y-10985484D02*
X-11080175Y-11023579D01*
X-10784937Y-11261674D02*
X-10794461Y-11252150D01*
X-10794461Y-11252150D02*
X-10813509Y-11223579D01*
X-10813509Y-11223579D02*
X-10823032Y-11204531D01*
X-10823032Y-11204531D02*
X-10832556Y-11175960D01*
X-10832556Y-11175960D02*
X-10842080Y-11128341D01*
X-10842080Y-11128341D02*
X-10842080Y-11090246D01*
X-10842080Y-11090246D02*
X-10832556Y-11042627D01*
X-10832556Y-11042627D02*
X-10823032Y-11014055D01*
X-10823032Y-11014055D02*
X-10813509Y-10995008D01*
X-10813509Y-10995008D02*
X-10794461Y-10966436D01*
X-10794461Y-10966436D02*
X-10784937Y-10956912D01*
X-10613509Y-10985484D02*
X-10708747Y-10985484D01*
X-10708747Y-10985484D02*
X-10718270Y-11080722D01*
X-10718270Y-11080722D02*
X-10708747Y-11071198D01*
X-10708747Y-11071198D02*
X-10689699Y-11061674D01*
X-10689699Y-11061674D02*
X-10642080Y-11061674D01*
X-10642080Y-11061674D02*
X-10623032Y-11071198D01*
X-10623032Y-11071198D02*
X-10613509Y-11080722D01*
X-10613509Y-11080722D02*
X-10603985Y-11099770D01*
X-10603985Y-11099770D02*
X-10603985Y-11147389D01*
X-10603985Y-11147389D02*
X-10613509Y-11166436D01*
X-10613509Y-11166436D02*
X-10623032Y-11175960D01*
X-10623032Y-11175960D02*
X-10642080Y-11185484D01*
X-10642080Y-11185484D02*
X-10689699Y-11185484D01*
X-10689699Y-11185484D02*
X-10708747Y-11175960D01*
X-10708747Y-11175960D02*
X-10718270Y-11166436D01*
X-10365889Y-11185484D02*
X-10365889Y-10985484D01*
X-10280175Y-11185484D02*
X-10280175Y-11080722D01*
X-10280175Y-11080722D02*
X-10289699Y-11061674D01*
X-10289699Y-11061674D02*
X-10308747Y-11052150D01*
X-10308747Y-11052150D02*
X-10337318Y-11052150D01*
X-10337318Y-11052150D02*
X-10356366Y-11061674D01*
X-10356366Y-11061674D02*
X-10365889Y-11071198D01*
X-10156366Y-11185484D02*
X-10175413Y-11175960D01*
X-10175413Y-11175960D02*
X-10184937Y-11166436D01*
X-10184937Y-11166436D02*
X-10194461Y-11147389D01*
X-10194461Y-11147389D02*
X-10194461Y-11090246D01*
X-10194461Y-11090246D02*
X-10184937Y-11071198D01*
X-10184937Y-11071198D02*
X-10175413Y-11061674D01*
X-10175413Y-11061674D02*
X-10156366Y-11052150D01*
X-10156366Y-11052150D02*
X-10127794Y-11052150D01*
X-10127794Y-11052150D02*
X-10108747Y-11061674D01*
X-10108747Y-11061674D02*
X-10099223Y-11071198D01*
X-10099223Y-11071198D02*
X-10089699Y-11090246D01*
X-10089699Y-11090246D02*
X-10089699Y-11147389D01*
X-10089699Y-11147389D02*
X-10099223Y-11166436D01*
X-10099223Y-11166436D02*
X-10108747Y-11175960D01*
X-10108747Y-11175960D02*
X-10127794Y-11185484D01*
X-10127794Y-11185484D02*
X-10156366Y-11185484D01*
X-9975413Y-11185484D02*
X-9994461Y-11175960D01*
X-9994461Y-11175960D02*
X-10003985Y-11156912D01*
X-10003985Y-11156912D02*
X-10003985Y-10985484D01*
X-9823032Y-11175960D02*
X-9842080Y-11185484D01*
X-9842080Y-11185484D02*
X-9880175Y-11185484D01*
X-9880175Y-11185484D02*
X-9899223Y-11175960D01*
X-9899223Y-11175960D02*
X-9908747Y-11156912D01*
X-9908747Y-11156912D02*
X-9908747Y-11080722D01*
X-9908747Y-11080722D02*
X-9899223Y-11061674D01*
X-9899223Y-11061674D02*
X-9880175Y-11052150D01*
X-9880175Y-11052150D02*
X-9842080Y-11052150D01*
X-9842080Y-11052150D02*
X-9823032Y-11061674D01*
X-9823032Y-11061674D02*
X-9813508Y-11080722D01*
X-9813508Y-11080722D02*
X-9813508Y-11099770D01*
X-9813508Y-11099770D02*
X-9908747Y-11118817D01*
X-9737318Y-11175960D02*
X-9718270Y-11185484D01*
X-9718270Y-11185484D02*
X-9680175Y-11185484D01*
X-9680175Y-11185484D02*
X-9661127Y-11175960D01*
X-9661127Y-11175960D02*
X-9651604Y-11156912D01*
X-9651604Y-11156912D02*
X-9651604Y-11147389D01*
X-9651604Y-11147389D02*
X-9661127Y-11128341D01*
X-9661127Y-11128341D02*
X-9680175Y-11118817D01*
X-9680175Y-11118817D02*
X-9708747Y-11118817D01*
X-9708747Y-11118817D02*
X-9727794Y-11109293D01*
X-9727794Y-11109293D02*
X-9737318Y-11090246D01*
X-9737318Y-11090246D02*
X-9737318Y-11080722D01*
X-9737318Y-11080722D02*
X-9727794Y-11061674D01*
X-9727794Y-11061674D02*
X-9708747Y-11052150D01*
X-9708747Y-11052150D02*
X-9680175Y-11052150D01*
X-9680175Y-11052150D02*
X-9661127Y-11061674D01*
X-9584937Y-11261674D02*
X-9575413Y-11252150D01*
X-9575413Y-11252150D02*
X-9556366Y-11223579D01*
X-9556366Y-11223579D02*
X-9546842Y-11204531D01*
X-9546842Y-11204531D02*
X-9537318Y-11175960D01*
X-9537318Y-11175960D02*
X-9527794Y-11128341D01*
X-9527794Y-11128341D02*
X-9527794Y-11090246D01*
X-9527794Y-11090246D02*
X-9537318Y-11042627D01*
X-9537318Y-11042627D02*
X-9546842Y-11014055D01*
X-9546842Y-11014055D02*
X-9556366Y-10995008D01*
X-9556366Y-10995008D02*
X-9575413Y-10966436D01*
X-9575413Y-10966436D02*
X-9584937Y-10956912D01*
D11*
X-14406000Y-11312000D02*
X-14406000Y-11404000D01*
X-14452000Y-11358000D02*
X-14360000Y-11358000D01*
D10*
X-14061128Y-11249484D02*
X-14042080Y-11249484D01*
X-14042080Y-11249484D02*
X-14023033Y-11259008D01*
X-14023033Y-11259008D02*
X-14013509Y-11268531D01*
X-14013509Y-11268531D02*
X-14003985Y-11287579D01*
X-14003985Y-11287579D02*
X-13994461Y-11325674D01*
X-13994461Y-11325674D02*
X-13994461Y-11373293D01*
X-13994461Y-11373293D02*
X-14003985Y-11411388D01*
X-14003985Y-11411388D02*
X-14013509Y-11430436D01*
X-14013509Y-11430436D02*
X-14023033Y-11439960D01*
X-14023033Y-11439960D02*
X-14042080Y-11449484D01*
X-14042080Y-11449484D02*
X-14061128Y-11449484D01*
X-14061128Y-11449484D02*
X-14080175Y-11439960D01*
X-14080175Y-11439960D02*
X-14089699Y-11430436D01*
X-14089699Y-11430436D02*
X-14099223Y-11411388D01*
X-14099223Y-11411388D02*
X-14108747Y-11373293D01*
X-14108747Y-11373293D02*
X-14108747Y-11325674D01*
X-14108747Y-11325674D02*
X-14099223Y-11287579D01*
X-14099223Y-11287579D02*
X-14089699Y-11268531D01*
X-14089699Y-11268531D02*
X-14080175Y-11259008D01*
X-14080175Y-11259008D02*
X-14061128Y-11249484D01*
X-13908747Y-11430436D02*
X-13899223Y-11439960D01*
X-13899223Y-11439960D02*
X-13908747Y-11449484D01*
X-13908747Y-11449484D02*
X-13918271Y-11439960D01*
X-13918271Y-11439960D02*
X-13908747Y-11430436D01*
X-13908747Y-11430436D02*
X-13908747Y-11449484D01*
X-13803985Y-11449484D02*
X-13765890Y-11449484D01*
X-13765890Y-11449484D02*
X-13746842Y-11439960D01*
X-13746842Y-11439960D02*
X-13737318Y-11430436D01*
X-13737318Y-11430436D02*
X-13718271Y-11401865D01*
X-13718271Y-11401865D02*
X-13708747Y-11363769D01*
X-13708747Y-11363769D02*
X-13708747Y-11287579D01*
X-13708747Y-11287579D02*
X-13718271Y-11268531D01*
X-13718271Y-11268531D02*
X-13727794Y-11259008D01*
X-13727794Y-11259008D02*
X-13746842Y-11249484D01*
X-13746842Y-11249484D02*
X-13784937Y-11249484D01*
X-13784937Y-11249484D02*
X-13803985Y-11259008D01*
X-13803985Y-11259008D02*
X-13813509Y-11268531D01*
X-13813509Y-11268531D02*
X-13823033Y-11287579D01*
X-13823033Y-11287579D02*
X-13823033Y-11335198D01*
X-13823033Y-11335198D02*
X-13813509Y-11354246D01*
X-13813509Y-11354246D02*
X-13803985Y-11363769D01*
X-13803985Y-11363769D02*
X-13784937Y-11373293D01*
X-13784937Y-11373293D02*
X-13746842Y-11373293D01*
X-13746842Y-11373293D02*
X-13727794Y-11363769D01*
X-13727794Y-11363769D02*
X-13718271Y-11354246D01*
X-13718271Y-11354246D02*
X-13708747Y-11335198D01*
X-13632556Y-11268531D02*
X-13623033Y-11259008D01*
X-13623033Y-11259008D02*
X-13603985Y-11249484D01*
X-13603985Y-11249484D02*
X-13556366Y-11249484D01*
X-13556366Y-11249484D02*
X-13537318Y-11259008D01*
X-13537318Y-11259008D02*
X-13527794Y-11268531D01*
X-13527794Y-11268531D02*
X-13518271Y-11287579D01*
X-13518271Y-11287579D02*
X-13518271Y-11306627D01*
X-13518271Y-11306627D02*
X-13527794Y-11335198D01*
X-13527794Y-11335198D02*
X-13642080Y-11449484D01*
X-13642080Y-11449484D02*
X-13518271Y-11449484D01*
X-13394461Y-11249484D02*
X-13375413Y-11249484D01*
X-13375413Y-11249484D02*
X-13356366Y-11259008D01*
X-13356366Y-11259008D02*
X-13346842Y-11268531D01*
X-13346842Y-11268531D02*
X-13337318Y-11287579D01*
X-13337318Y-11287579D02*
X-13327794Y-11325674D01*
X-13327794Y-11325674D02*
X-13327794Y-11373293D01*
X-13327794Y-11373293D02*
X-13337318Y-11411388D01*
X-13337318Y-11411388D02*
X-13346842Y-11430436D01*
X-13346842Y-11430436D02*
X-13356366Y-11439960D01*
X-13356366Y-11439960D02*
X-13375413Y-11449484D01*
X-13375413Y-11449484D02*
X-13394461Y-11449484D01*
X-13394461Y-11449484D02*
X-13413509Y-11439960D01*
X-13413509Y-11439960D02*
X-13423033Y-11430436D01*
X-13423033Y-11430436D02*
X-13432556Y-11411388D01*
X-13432556Y-11411388D02*
X-13442080Y-11373293D01*
X-13442080Y-11373293D02*
X-13442080Y-11325674D01*
X-13442080Y-11325674D02*
X-13432556Y-11287579D01*
X-13432556Y-11287579D02*
X-13423033Y-11268531D01*
X-13423033Y-11268531D02*
X-13413509Y-11259008D01*
X-13413509Y-11259008D02*
X-13394461Y-11249484D01*
X-13242080Y-11449484D02*
X-13242080Y-11316150D01*
X-13242080Y-11335198D02*
X-13232556Y-11325674D01*
X-13232556Y-11325674D02*
X-13213509Y-11316150D01*
X-13213509Y-11316150D02*
X-13184937Y-11316150D01*
X-13184937Y-11316150D02*
X-13165890Y-11325674D01*
X-13165890Y-11325674D02*
X-13156366Y-11344722D01*
X-13156366Y-11344722D02*
X-13156366Y-11449484D01*
X-13156366Y-11344722D02*
X-13146842Y-11325674D01*
X-13146842Y-11325674D02*
X-13127794Y-11316150D01*
X-13127794Y-11316150D02*
X-13099223Y-11316150D01*
X-13099223Y-11316150D02*
X-13080175Y-11325674D01*
X-13080175Y-11325674D02*
X-13070652Y-11344722D01*
X-13070652Y-11344722D02*
X-13070652Y-11449484D01*
X-12975413Y-11449484D02*
X-12975413Y-11316150D01*
X-12975413Y-11335198D02*
X-12965890Y-11325674D01*
X-12965890Y-11325674D02*
X-12946842Y-11316150D01*
X-12946842Y-11316150D02*
X-12918271Y-11316150D01*
X-12918271Y-11316150D02*
X-12899223Y-11325674D01*
X-12899223Y-11325674D02*
X-12889699Y-11344722D01*
X-12889699Y-11344722D02*
X-12889699Y-11449484D01*
X-12889699Y-11344722D02*
X-12880175Y-11325674D01*
X-12880175Y-11325674D02*
X-12861128Y-11316150D01*
X-12861128Y-11316150D02*
X-12832556Y-11316150D01*
X-12832556Y-11316150D02*
X-12813509Y-11325674D01*
X-12813509Y-11325674D02*
X-12803985Y-11344722D01*
X-12803985Y-11344722D02*
X-12803985Y-11449484D01*
X-12413509Y-11239960D02*
X-12584937Y-11497103D01*
X-12156366Y-11249484D02*
X-12137318Y-11249484D01*
X-12137318Y-11249484D02*
X-12118270Y-11259008D01*
X-12118270Y-11259008D02*
X-12108747Y-11268531D01*
X-12108747Y-11268531D02*
X-12099223Y-11287579D01*
X-12099223Y-11287579D02*
X-12089699Y-11325674D01*
X-12089699Y-11325674D02*
X-12089699Y-11373293D01*
X-12089699Y-11373293D02*
X-12099223Y-11411388D01*
X-12099223Y-11411388D02*
X-12108747Y-11430436D01*
X-12108747Y-11430436D02*
X-12118270Y-11439960D01*
X-12118270Y-11439960D02*
X-12137318Y-11449484D01*
X-12137318Y-11449484D02*
X-12156366Y-11449484D01*
X-12156366Y-11449484D02*
X-12175413Y-11439960D01*
X-12175413Y-11439960D02*
X-12184937Y-11430436D01*
X-12184937Y-11430436D02*
X-12194461Y-11411388D01*
X-12194461Y-11411388D02*
X-12203985Y-11373293D01*
X-12203985Y-11373293D02*
X-12203985Y-11325674D01*
X-12203985Y-11325674D02*
X-12194461Y-11287579D01*
X-12194461Y-11287579D02*
X-12184937Y-11268531D01*
X-12184937Y-11268531D02*
X-12175413Y-11259008D01*
X-12175413Y-11259008D02*
X-12156366Y-11249484D01*
X-12003985Y-11430436D02*
X-11994461Y-11439960D01*
X-11994461Y-11439960D02*
X-12003985Y-11449484D01*
X-12003985Y-11449484D02*
X-12013509Y-11439960D01*
X-12013509Y-11439960D02*
X-12003985Y-11430436D01*
X-12003985Y-11430436D02*
X-12003985Y-11449484D01*
X-11870651Y-11249484D02*
X-11851604Y-11249484D01*
X-11851604Y-11249484D02*
X-11832556Y-11259008D01*
X-11832556Y-11259008D02*
X-11823032Y-11268531D01*
X-11823032Y-11268531D02*
X-11813509Y-11287579D01*
X-11813509Y-11287579D02*
X-11803985Y-11325674D01*
X-11803985Y-11325674D02*
X-11803985Y-11373293D01*
X-11803985Y-11373293D02*
X-11813509Y-11411388D01*
X-11813509Y-11411388D02*
X-11823032Y-11430436D01*
X-11823032Y-11430436D02*
X-11832556Y-11439960D01*
X-11832556Y-11439960D02*
X-11851604Y-11449484D01*
X-11851604Y-11449484D02*
X-11870651Y-11449484D01*
X-11870651Y-11449484D02*
X-11889699Y-11439960D01*
X-11889699Y-11439960D02*
X-11899223Y-11430436D01*
X-11899223Y-11430436D02*
X-11908747Y-11411388D01*
X-11908747Y-11411388D02*
X-11918270Y-11373293D01*
X-11918270Y-11373293D02*
X-11918270Y-11325674D01*
X-11918270Y-11325674D02*
X-11908747Y-11287579D01*
X-11908747Y-11287579D02*
X-11899223Y-11268531D01*
X-11899223Y-11268531D02*
X-11889699Y-11259008D01*
X-11889699Y-11259008D02*
X-11870651Y-11249484D01*
X-11737318Y-11249484D02*
X-11613509Y-11249484D01*
X-11613509Y-11249484D02*
X-11680175Y-11325674D01*
X-11680175Y-11325674D02*
X-11651604Y-11325674D01*
X-11651604Y-11325674D02*
X-11632556Y-11335198D01*
X-11632556Y-11335198D02*
X-11623032Y-11344722D01*
X-11623032Y-11344722D02*
X-11613509Y-11363769D01*
X-11613509Y-11363769D02*
X-11613509Y-11411388D01*
X-11613509Y-11411388D02*
X-11623032Y-11430436D01*
X-11623032Y-11430436D02*
X-11632556Y-11439960D01*
X-11632556Y-11439960D02*
X-11651604Y-11449484D01*
X-11651604Y-11449484D02*
X-11708747Y-11449484D01*
X-11708747Y-11449484D02*
X-11727794Y-11439960D01*
X-11727794Y-11439960D02*
X-11737318Y-11430436D01*
X-11442080Y-11249484D02*
X-11480175Y-11249484D01*
X-11480175Y-11249484D02*
X-11499223Y-11259008D01*
X-11499223Y-11259008D02*
X-11508747Y-11268531D01*
X-11508747Y-11268531D02*
X-11527794Y-11297103D01*
X-11527794Y-11297103D02*
X-11537318Y-11335198D01*
X-11537318Y-11335198D02*
X-11537318Y-11411388D01*
X-11537318Y-11411388D02*
X-11527794Y-11430436D01*
X-11527794Y-11430436D02*
X-11518270Y-11439960D01*
X-11518270Y-11439960D02*
X-11499223Y-11449484D01*
X-11499223Y-11449484D02*
X-11461128Y-11449484D01*
X-11461128Y-11449484D02*
X-11442080Y-11439960D01*
X-11442080Y-11439960D02*
X-11432556Y-11430436D01*
X-11432556Y-11430436D02*
X-11423032Y-11411388D01*
X-11423032Y-11411388D02*
X-11423032Y-11363769D01*
X-11423032Y-11363769D02*
X-11432556Y-11344722D01*
X-11432556Y-11344722D02*
X-11442080Y-11335198D01*
X-11442080Y-11335198D02*
X-11461128Y-11325674D01*
X-11461128Y-11325674D02*
X-11499223Y-11325674D01*
X-11499223Y-11325674D02*
X-11518270Y-11335198D01*
X-11518270Y-11335198D02*
X-11527794Y-11344722D01*
X-11527794Y-11344722D02*
X-11537318Y-11363769D01*
X-11346842Y-11268531D02*
X-11337318Y-11259008D01*
X-11337318Y-11259008D02*
X-11318270Y-11249484D01*
X-11318270Y-11249484D02*
X-11270651Y-11249484D01*
X-11270651Y-11249484D02*
X-11251604Y-11259008D01*
X-11251604Y-11259008D02*
X-11242080Y-11268531D01*
X-11242080Y-11268531D02*
X-11232556Y-11287579D01*
X-11232556Y-11287579D02*
X-11232556Y-11306627D01*
X-11232556Y-11306627D02*
X-11242080Y-11335198D01*
X-11242080Y-11335198D02*
X-11356366Y-11449484D01*
X-11356366Y-11449484D02*
X-11232556Y-11449484D01*
X-11156366Y-11249484D02*
X-11156366Y-11287579D01*
X-11080175Y-11249484D02*
X-11080175Y-11287579D01*
X-10784937Y-11525674D02*
X-10794461Y-11516150D01*
X-10794461Y-11516150D02*
X-10813509Y-11487579D01*
X-10813509Y-11487579D02*
X-10823032Y-11468531D01*
X-10823032Y-11468531D02*
X-10832556Y-11439960D01*
X-10832556Y-11439960D02*
X-10842080Y-11392341D01*
X-10842080Y-11392341D02*
X-10842080Y-11354246D01*
X-10842080Y-11354246D02*
X-10832556Y-11306627D01*
X-10832556Y-11306627D02*
X-10823032Y-11278055D01*
X-10823032Y-11278055D02*
X-10813509Y-11259008D01*
X-10813509Y-11259008D02*
X-10794461Y-11230436D01*
X-10794461Y-11230436D02*
X-10784937Y-11220912D01*
X-10623032Y-11316150D02*
X-10623032Y-11449484D01*
X-10670651Y-11239960D02*
X-10718270Y-11382817D01*
X-10718270Y-11382817D02*
X-10594461Y-11382817D01*
X-10365889Y-11449484D02*
X-10365889Y-11249484D01*
X-10280175Y-11449484D02*
X-10280175Y-11344722D01*
X-10280175Y-11344722D02*
X-10289699Y-11325674D01*
X-10289699Y-11325674D02*
X-10308747Y-11316150D01*
X-10308747Y-11316150D02*
X-10337318Y-11316150D01*
X-10337318Y-11316150D02*
X-10356366Y-11325674D01*
X-10356366Y-11325674D02*
X-10365889Y-11335198D01*
X-10156366Y-11449484D02*
X-10175413Y-11439960D01*
X-10175413Y-11439960D02*
X-10184937Y-11430436D01*
X-10184937Y-11430436D02*
X-10194461Y-11411388D01*
X-10194461Y-11411388D02*
X-10194461Y-11354246D01*
X-10194461Y-11354246D02*
X-10184937Y-11335198D01*
X-10184937Y-11335198D02*
X-10175413Y-11325674D01*
X-10175413Y-11325674D02*
X-10156366Y-11316150D01*
X-10156366Y-11316150D02*
X-10127794Y-11316150D01*
X-10127794Y-11316150D02*
X-10108747Y-11325674D01*
X-10108747Y-11325674D02*
X-10099223Y-11335198D01*
X-10099223Y-11335198D02*
X-10089699Y-11354246D01*
X-10089699Y-11354246D02*
X-10089699Y-11411388D01*
X-10089699Y-11411388D02*
X-10099223Y-11430436D01*
X-10099223Y-11430436D02*
X-10108747Y-11439960D01*
X-10108747Y-11439960D02*
X-10127794Y-11449484D01*
X-10127794Y-11449484D02*
X-10156366Y-11449484D01*
X-9975413Y-11449484D02*
X-9994461Y-11439960D01*
X-9994461Y-11439960D02*
X-10003985Y-11420912D01*
X-10003985Y-11420912D02*
X-10003985Y-11249484D01*
X-9823032Y-11439960D02*
X-9842080Y-11449484D01*
X-9842080Y-11449484D02*
X-9880175Y-11449484D01*
X-9880175Y-11449484D02*
X-9899223Y-11439960D01*
X-9899223Y-11439960D02*
X-9908747Y-11420912D01*
X-9908747Y-11420912D02*
X-9908747Y-11344722D01*
X-9908747Y-11344722D02*
X-9899223Y-11325674D01*
X-9899223Y-11325674D02*
X-9880175Y-11316150D01*
X-9880175Y-11316150D02*
X-9842080Y-11316150D01*
X-9842080Y-11316150D02*
X-9823032Y-11325674D01*
X-9823032Y-11325674D02*
X-9813508Y-11344722D01*
X-9813508Y-11344722D02*
X-9813508Y-11363769D01*
X-9813508Y-11363769D02*
X-9908747Y-11382817D01*
X-9737318Y-11439960D02*
X-9718270Y-11449484D01*
X-9718270Y-11449484D02*
X-9680175Y-11449484D01*
X-9680175Y-11449484D02*
X-9661127Y-11439960D01*
X-9661127Y-11439960D02*
X-9651604Y-11420912D01*
X-9651604Y-11420912D02*
X-9651604Y-11411388D01*
X-9651604Y-11411388D02*
X-9661127Y-11392341D01*
X-9661127Y-11392341D02*
X-9680175Y-11382817D01*
X-9680175Y-11382817D02*
X-9708747Y-11382817D01*
X-9708747Y-11382817D02*
X-9727794Y-11373293D01*
X-9727794Y-11373293D02*
X-9737318Y-11354246D01*
X-9737318Y-11354246D02*
X-9737318Y-11344722D01*
X-9737318Y-11344722D02*
X-9727794Y-11325674D01*
X-9727794Y-11325674D02*
X-9708747Y-11316150D01*
X-9708747Y-11316150D02*
X-9680175Y-11316150D01*
X-9680175Y-11316150D02*
X-9661127Y-11325674D01*
X-9584937Y-11525674D02*
X-9575413Y-11516150D01*
X-9575413Y-11516150D02*
X-9556366Y-11487579D01*
X-9556366Y-11487579D02*
X-9546842Y-11468531D01*
X-9546842Y-11468531D02*
X-9537318Y-11439960D01*
X-9537318Y-11439960D02*
X-9527794Y-11392341D01*
X-9527794Y-11392341D02*
X-9527794Y-11354246D01*
X-9527794Y-11354246D02*
X-9537318Y-11306627D01*
X-9537318Y-11306627D02*
X-9546842Y-11278055D01*
X-9546842Y-11278055D02*
X-9556366Y-11259008D01*
X-9556366Y-11259008D02*
X-9575413Y-11230436D01*
X-9575413Y-11230436D02*
X-9584937Y-11220912D01*
D11*
X-14374644Y-11657356D02*
X-14374644Y-11586644D01*
X-14445356Y-11586644D01*
X-14445356Y-11657356D01*
X-14374644Y-11657356D01*
D10*
X-13994461Y-11713484D02*
X-14108747Y-11713484D01*
X-14051604Y-11713484D02*
X-14051604Y-11513484D01*
X-14051604Y-11513484D02*
X-14070652Y-11542055D01*
X-14070652Y-11542055D02*
X-14089699Y-11561103D01*
X-14089699Y-11561103D02*
X-14108747Y-11570627D01*
X-13908747Y-11694436D02*
X-13899223Y-11703960D01*
X-13899223Y-11703960D02*
X-13908747Y-11713484D01*
X-13908747Y-11713484D02*
X-13918271Y-11703960D01*
X-13918271Y-11703960D02*
X-13908747Y-11694436D01*
X-13908747Y-11694436D02*
X-13908747Y-11713484D01*
X-13775414Y-11513484D02*
X-13756366Y-11513484D01*
X-13756366Y-11513484D02*
X-13737318Y-11523008D01*
X-13737318Y-11523008D02*
X-13727794Y-11532531D01*
X-13727794Y-11532531D02*
X-13718271Y-11551579D01*
X-13718271Y-11551579D02*
X-13708747Y-11589674D01*
X-13708747Y-11589674D02*
X-13708747Y-11637293D01*
X-13708747Y-11637293D02*
X-13718271Y-11675388D01*
X-13718271Y-11675388D02*
X-13727794Y-11694436D01*
X-13727794Y-11694436D02*
X-13737318Y-11703960D01*
X-13737318Y-11703960D02*
X-13756366Y-11713484D01*
X-13756366Y-11713484D02*
X-13775414Y-11713484D01*
X-13775414Y-11713484D02*
X-13794461Y-11703960D01*
X-13794461Y-11703960D02*
X-13803985Y-11694436D01*
X-13803985Y-11694436D02*
X-13813509Y-11675388D01*
X-13813509Y-11675388D02*
X-13823033Y-11637293D01*
X-13823033Y-11637293D02*
X-13823033Y-11589674D01*
X-13823033Y-11589674D02*
X-13813509Y-11551579D01*
X-13813509Y-11551579D02*
X-13803985Y-11532531D01*
X-13803985Y-11532531D02*
X-13794461Y-11523008D01*
X-13794461Y-11523008D02*
X-13775414Y-11513484D01*
X-13584937Y-11513484D02*
X-13565890Y-11513484D01*
X-13565890Y-11513484D02*
X-13546842Y-11523008D01*
X-13546842Y-11523008D02*
X-13537318Y-11532531D01*
X-13537318Y-11532531D02*
X-13527794Y-11551579D01*
X-13527794Y-11551579D02*
X-13518271Y-11589674D01*
X-13518271Y-11589674D02*
X-13518271Y-11637293D01*
X-13518271Y-11637293D02*
X-13527794Y-11675388D01*
X-13527794Y-11675388D02*
X-13537318Y-11694436D01*
X-13537318Y-11694436D02*
X-13546842Y-11703960D01*
X-13546842Y-11703960D02*
X-13565890Y-11713484D01*
X-13565890Y-11713484D02*
X-13584937Y-11713484D01*
X-13584937Y-11713484D02*
X-13603985Y-11703960D01*
X-13603985Y-11703960D02*
X-13613509Y-11694436D01*
X-13613509Y-11694436D02*
X-13623033Y-11675388D01*
X-13623033Y-11675388D02*
X-13632556Y-11637293D01*
X-13632556Y-11637293D02*
X-13632556Y-11589674D01*
X-13632556Y-11589674D02*
X-13623033Y-11551579D01*
X-13623033Y-11551579D02*
X-13613509Y-11532531D01*
X-13613509Y-11532531D02*
X-13603985Y-11523008D01*
X-13603985Y-11523008D02*
X-13584937Y-11513484D01*
X-13394461Y-11513484D02*
X-13375413Y-11513484D01*
X-13375413Y-11513484D02*
X-13356366Y-11523008D01*
X-13356366Y-11523008D02*
X-13346842Y-11532531D01*
X-13346842Y-11532531D02*
X-13337318Y-11551579D01*
X-13337318Y-11551579D02*
X-13327794Y-11589674D01*
X-13327794Y-11589674D02*
X-13327794Y-11637293D01*
X-13327794Y-11637293D02*
X-13337318Y-11675388D01*
X-13337318Y-11675388D02*
X-13346842Y-11694436D01*
X-13346842Y-11694436D02*
X-13356366Y-11703960D01*
X-13356366Y-11703960D02*
X-13375413Y-11713484D01*
X-13375413Y-11713484D02*
X-13394461Y-11713484D01*
X-13394461Y-11713484D02*
X-13413509Y-11703960D01*
X-13413509Y-11703960D02*
X-13423033Y-11694436D01*
X-13423033Y-11694436D02*
X-13432556Y-11675388D01*
X-13432556Y-11675388D02*
X-13442080Y-11637293D01*
X-13442080Y-11637293D02*
X-13442080Y-11589674D01*
X-13442080Y-11589674D02*
X-13432556Y-11551579D01*
X-13432556Y-11551579D02*
X-13423033Y-11532531D01*
X-13423033Y-11532531D02*
X-13413509Y-11523008D01*
X-13413509Y-11523008D02*
X-13394461Y-11513484D01*
X-13242080Y-11713484D02*
X-13242080Y-11580150D01*
X-13242080Y-11599198D02*
X-13232556Y-11589674D01*
X-13232556Y-11589674D02*
X-13213509Y-11580150D01*
X-13213509Y-11580150D02*
X-13184937Y-11580150D01*
X-13184937Y-11580150D02*
X-13165890Y-11589674D01*
X-13165890Y-11589674D02*
X-13156366Y-11608722D01*
X-13156366Y-11608722D02*
X-13156366Y-11713484D01*
X-13156366Y-11608722D02*
X-13146842Y-11589674D01*
X-13146842Y-11589674D02*
X-13127794Y-11580150D01*
X-13127794Y-11580150D02*
X-13099223Y-11580150D01*
X-13099223Y-11580150D02*
X-13080175Y-11589674D01*
X-13080175Y-11589674D02*
X-13070652Y-11608722D01*
X-13070652Y-11608722D02*
X-13070652Y-11713484D01*
X-12975413Y-11713484D02*
X-12975413Y-11580150D01*
X-12975413Y-11599198D02*
X-12965890Y-11589674D01*
X-12965890Y-11589674D02*
X-12946842Y-11580150D01*
X-12946842Y-11580150D02*
X-12918271Y-11580150D01*
X-12918271Y-11580150D02*
X-12899223Y-11589674D01*
X-12899223Y-11589674D02*
X-12889699Y-11608722D01*
X-12889699Y-11608722D02*
X-12889699Y-11713484D01*
X-12889699Y-11608722D02*
X-12880175Y-11589674D01*
X-12880175Y-11589674D02*
X-12861128Y-11580150D01*
X-12861128Y-11580150D02*
X-12832556Y-11580150D01*
X-12832556Y-11580150D02*
X-12813509Y-11589674D01*
X-12813509Y-11589674D02*
X-12803985Y-11608722D01*
X-12803985Y-11608722D02*
X-12803985Y-11713484D01*
X-12413509Y-11503960D02*
X-12584937Y-11761103D01*
X-12156366Y-11513484D02*
X-12137318Y-11513484D01*
X-12137318Y-11513484D02*
X-12118270Y-11523008D01*
X-12118270Y-11523008D02*
X-12108747Y-11532531D01*
X-12108747Y-11532531D02*
X-12099223Y-11551579D01*
X-12099223Y-11551579D02*
X-12089699Y-11589674D01*
X-12089699Y-11589674D02*
X-12089699Y-11637293D01*
X-12089699Y-11637293D02*
X-12099223Y-11675388D01*
X-12099223Y-11675388D02*
X-12108747Y-11694436D01*
X-12108747Y-11694436D02*
X-12118270Y-11703960D01*
X-12118270Y-11703960D02*
X-12137318Y-11713484D01*
X-12137318Y-11713484D02*
X-12156366Y-11713484D01*
X-12156366Y-11713484D02*
X-12175413Y-11703960D01*
X-12175413Y-11703960D02*
X-12184937Y-11694436D01*
X-12184937Y-11694436D02*
X-12194461Y-11675388D01*
X-12194461Y-11675388D02*
X-12203985Y-11637293D01*
X-12203985Y-11637293D02*
X-12203985Y-11589674D01*
X-12203985Y-11589674D02*
X-12194461Y-11551579D01*
X-12194461Y-11551579D02*
X-12184937Y-11532531D01*
X-12184937Y-11532531D02*
X-12175413Y-11523008D01*
X-12175413Y-11523008D02*
X-12156366Y-11513484D01*
X-12003985Y-11694436D02*
X-11994461Y-11703960D01*
X-11994461Y-11703960D02*
X-12003985Y-11713484D01*
X-12003985Y-11713484D02*
X-12013509Y-11703960D01*
X-12013509Y-11703960D02*
X-12003985Y-11694436D01*
X-12003985Y-11694436D02*
X-12003985Y-11713484D01*
X-11870651Y-11513484D02*
X-11851604Y-11513484D01*
X-11851604Y-11513484D02*
X-11832556Y-11523008D01*
X-11832556Y-11523008D02*
X-11823032Y-11532531D01*
X-11823032Y-11532531D02*
X-11813509Y-11551579D01*
X-11813509Y-11551579D02*
X-11803985Y-11589674D01*
X-11803985Y-11589674D02*
X-11803985Y-11637293D01*
X-11803985Y-11637293D02*
X-11813509Y-11675388D01*
X-11813509Y-11675388D02*
X-11823032Y-11694436D01*
X-11823032Y-11694436D02*
X-11832556Y-11703960D01*
X-11832556Y-11703960D02*
X-11851604Y-11713484D01*
X-11851604Y-11713484D02*
X-11870651Y-11713484D01*
X-11870651Y-11713484D02*
X-11889699Y-11703960D01*
X-11889699Y-11703960D02*
X-11899223Y-11694436D01*
X-11899223Y-11694436D02*
X-11908747Y-11675388D01*
X-11908747Y-11675388D02*
X-11918270Y-11637293D01*
X-11918270Y-11637293D02*
X-11918270Y-11589674D01*
X-11918270Y-11589674D02*
X-11908747Y-11551579D01*
X-11908747Y-11551579D02*
X-11899223Y-11532531D01*
X-11899223Y-11532531D02*
X-11889699Y-11523008D01*
X-11889699Y-11523008D02*
X-11870651Y-11513484D01*
X-11737318Y-11513484D02*
X-11613509Y-11513484D01*
X-11613509Y-11513484D02*
X-11680175Y-11589674D01*
X-11680175Y-11589674D02*
X-11651604Y-11589674D01*
X-11651604Y-11589674D02*
X-11632556Y-11599198D01*
X-11632556Y-11599198D02*
X-11623032Y-11608722D01*
X-11623032Y-11608722D02*
X-11613509Y-11627769D01*
X-11613509Y-11627769D02*
X-11613509Y-11675388D01*
X-11613509Y-11675388D02*
X-11623032Y-11694436D01*
X-11623032Y-11694436D02*
X-11632556Y-11703960D01*
X-11632556Y-11703960D02*
X-11651604Y-11713484D01*
X-11651604Y-11713484D02*
X-11708747Y-11713484D01*
X-11708747Y-11713484D02*
X-11727794Y-11703960D01*
X-11727794Y-11703960D02*
X-11737318Y-11694436D01*
X-11518270Y-11713484D02*
X-11480175Y-11713484D01*
X-11480175Y-11713484D02*
X-11461128Y-11703960D01*
X-11461128Y-11703960D02*
X-11451604Y-11694436D01*
X-11451604Y-11694436D02*
X-11432556Y-11665865D01*
X-11432556Y-11665865D02*
X-11423032Y-11627769D01*
X-11423032Y-11627769D02*
X-11423032Y-11551579D01*
X-11423032Y-11551579D02*
X-11432556Y-11532531D01*
X-11432556Y-11532531D02*
X-11442080Y-11523008D01*
X-11442080Y-11523008D02*
X-11461128Y-11513484D01*
X-11461128Y-11513484D02*
X-11499223Y-11513484D01*
X-11499223Y-11513484D02*
X-11518270Y-11523008D01*
X-11518270Y-11523008D02*
X-11527794Y-11532531D01*
X-11527794Y-11532531D02*
X-11537318Y-11551579D01*
X-11537318Y-11551579D02*
X-11537318Y-11599198D01*
X-11537318Y-11599198D02*
X-11527794Y-11618246D01*
X-11527794Y-11618246D02*
X-11518270Y-11627769D01*
X-11518270Y-11627769D02*
X-11499223Y-11637293D01*
X-11499223Y-11637293D02*
X-11461128Y-11637293D01*
X-11461128Y-11637293D02*
X-11442080Y-11627769D01*
X-11442080Y-11627769D02*
X-11432556Y-11618246D01*
X-11432556Y-11618246D02*
X-11423032Y-11599198D01*
X-11251604Y-11580150D02*
X-11251604Y-11713484D01*
X-11299223Y-11503960D02*
X-11346842Y-11646817D01*
X-11346842Y-11646817D02*
X-11223032Y-11646817D01*
X-11156366Y-11513484D02*
X-11156366Y-11551579D01*
X-11080175Y-11513484D02*
X-11080175Y-11551579D01*
X-10784937Y-11789674D02*
X-10794461Y-11780150D01*
X-10794461Y-11780150D02*
X-10813509Y-11751579D01*
X-10813509Y-11751579D02*
X-10823032Y-11732531D01*
X-10823032Y-11732531D02*
X-10832556Y-11703960D01*
X-10832556Y-11703960D02*
X-10842080Y-11656341D01*
X-10842080Y-11656341D02*
X-10842080Y-11618246D01*
X-10842080Y-11618246D02*
X-10832556Y-11570627D01*
X-10832556Y-11570627D02*
X-10823032Y-11542055D01*
X-10823032Y-11542055D02*
X-10813509Y-11523008D01*
X-10813509Y-11523008D02*
X-10794461Y-11494436D01*
X-10794461Y-11494436D02*
X-10784937Y-11484912D01*
X-10623032Y-11580150D02*
X-10623032Y-11713484D01*
X-10670651Y-11503960D02*
X-10718270Y-11646817D01*
X-10718270Y-11646817D02*
X-10594461Y-11646817D01*
X-10365889Y-11713484D02*
X-10365889Y-11513484D01*
X-10280175Y-11713484D02*
X-10280175Y-11608722D01*
X-10280175Y-11608722D02*
X-10289699Y-11589674D01*
X-10289699Y-11589674D02*
X-10308747Y-11580150D01*
X-10308747Y-11580150D02*
X-10337318Y-11580150D01*
X-10337318Y-11580150D02*
X-10356366Y-11589674D01*
X-10356366Y-11589674D02*
X-10365889Y-11599198D01*
X-10156366Y-11713484D02*
X-10175413Y-11703960D01*
X-10175413Y-11703960D02*
X-10184937Y-11694436D01*
X-10184937Y-11694436D02*
X-10194461Y-11675388D01*
X-10194461Y-11675388D02*
X-10194461Y-11618246D01*
X-10194461Y-11618246D02*
X-10184937Y-11599198D01*
X-10184937Y-11599198D02*
X-10175413Y-11589674D01*
X-10175413Y-11589674D02*
X-10156366Y-11580150D01*
X-10156366Y-11580150D02*
X-10127794Y-11580150D01*
X-10127794Y-11580150D02*
X-10108747Y-11589674D01*
X-10108747Y-11589674D02*
X-10099223Y-11599198D01*
X-10099223Y-11599198D02*
X-10089699Y-11618246D01*
X-10089699Y-11618246D02*
X-10089699Y-11675388D01*
X-10089699Y-11675388D02*
X-10099223Y-11694436D01*
X-10099223Y-11694436D02*
X-10108747Y-11703960D01*
X-10108747Y-11703960D02*
X-10127794Y-11713484D01*
X-10127794Y-11713484D02*
X-10156366Y-11713484D01*
X-9975413Y-11713484D02*
X-9994461Y-11703960D01*
X-9994461Y-11703960D02*
X-10003985Y-11684912D01*
X-10003985Y-11684912D02*
X-10003985Y-11513484D01*
X-9823032Y-11703960D02*
X-9842080Y-11713484D01*
X-9842080Y-11713484D02*
X-9880175Y-11713484D01*
X-9880175Y-11713484D02*
X-9899223Y-11703960D01*
X-9899223Y-11703960D02*
X-9908747Y-11684912D01*
X-9908747Y-11684912D02*
X-9908747Y-11608722D01*
X-9908747Y-11608722D02*
X-9899223Y-11589674D01*
X-9899223Y-11589674D02*
X-9880175Y-11580150D01*
X-9880175Y-11580150D02*
X-9842080Y-11580150D01*
X-9842080Y-11580150D02*
X-9823032Y-11589674D01*
X-9823032Y-11589674D02*
X-9813508Y-11608722D01*
X-9813508Y-11608722D02*
X-9813508Y-11627769D01*
X-9813508Y-11627769D02*
X-9908747Y-11646817D01*
X-9737318Y-11703960D02*
X-9718270Y-11713484D01*
X-9718270Y-11713484D02*
X-9680175Y-11713484D01*
X-9680175Y-11713484D02*
X-9661127Y-11703960D01*
X-9661127Y-11703960D02*
X-9651604Y-11684912D01*
X-9651604Y-11684912D02*
X-9651604Y-11675388D01*
X-9651604Y-11675388D02*
X-9661127Y-11656341D01*
X-9661127Y-11656341D02*
X-9680175Y-11646817D01*
X-9680175Y-11646817D02*
X-9708747Y-11646817D01*
X-9708747Y-11646817D02*
X-9727794Y-11637293D01*
X-9727794Y-11637293D02*
X-9737318Y-11618246D01*
X-9737318Y-11618246D02*
X-9737318Y-11608722D01*
X-9737318Y-11608722D02*
X-9727794Y-11589674D01*
X-9727794Y-11589674D02*
X-9708747Y-11580150D01*
X-9708747Y-11580150D02*
X-9680175Y-11580150D01*
X-9680175Y-11580150D02*
X-9661127Y-11589674D01*
X-9584937Y-11789674D02*
X-9575413Y-11780150D01*
X-9575413Y-11780150D02*
X-9556366Y-11751579D01*
X-9556366Y-11751579D02*
X-9546842Y-11732531D01*
X-9546842Y-11732531D02*
X-9537318Y-11703960D01*
X-9537318Y-11703960D02*
X-9527794Y-11656341D01*
X-9527794Y-11656341D02*
X-9527794Y-11618246D01*
X-9527794Y-11618246D02*
X-9537318Y-11570627D01*
X-9537318Y-11570627D02*
X-9546842Y-11542055D01*
X-9546842Y-11542055D02*
X-9556366Y-11523008D01*
X-9556366Y-11523008D02*
X-9575413Y-11494436D01*
X-9575413Y-11494436D02*
X-9584937Y-11484912D01*
X-14460000Y-11986000D02*
X-14360000Y-11886000D01*
X-14460000Y-11786000D01*
X-14560000Y-11886000D01*
X-14460000Y-11986000D01*
X-14108747Y-11796531D02*
X-14099223Y-11787008D01*
X-14099223Y-11787008D02*
X-14080175Y-11777484D01*
X-14080175Y-11777484D02*
X-14032556Y-11777484D01*
X-14032556Y-11777484D02*
X-14013509Y-11787008D01*
X-14013509Y-11787008D02*
X-14003985Y-11796531D01*
X-14003985Y-11796531D02*
X-13994461Y-11815579D01*
X-13994461Y-11815579D02*
X-13994461Y-11834627D01*
X-13994461Y-11834627D02*
X-14003985Y-11863198D01*
X-14003985Y-11863198D02*
X-14118271Y-11977484D01*
X-14118271Y-11977484D02*
X-13994461Y-11977484D01*
X-13908747Y-11958436D02*
X-13899223Y-11967960D01*
X-13899223Y-11967960D02*
X-13908747Y-11977484D01*
X-13908747Y-11977484D02*
X-13918271Y-11967960D01*
X-13918271Y-11967960D02*
X-13908747Y-11958436D01*
X-13908747Y-11958436D02*
X-13908747Y-11977484D01*
X-13832556Y-11777484D02*
X-13708747Y-11777484D01*
X-13708747Y-11777484D02*
X-13775414Y-11853674D01*
X-13775414Y-11853674D02*
X-13746842Y-11853674D01*
X-13746842Y-11853674D02*
X-13727794Y-11863198D01*
X-13727794Y-11863198D02*
X-13718271Y-11872722D01*
X-13718271Y-11872722D02*
X-13708747Y-11891769D01*
X-13708747Y-11891769D02*
X-13708747Y-11939388D01*
X-13708747Y-11939388D02*
X-13718271Y-11958436D01*
X-13718271Y-11958436D02*
X-13727794Y-11967960D01*
X-13727794Y-11967960D02*
X-13746842Y-11977484D01*
X-13746842Y-11977484D02*
X-13803985Y-11977484D01*
X-13803985Y-11977484D02*
X-13823033Y-11967960D01*
X-13823033Y-11967960D02*
X-13832556Y-11958436D01*
X-13584937Y-11777484D02*
X-13565890Y-11777484D01*
X-13565890Y-11777484D02*
X-13546842Y-11787008D01*
X-13546842Y-11787008D02*
X-13537318Y-11796531D01*
X-13537318Y-11796531D02*
X-13527794Y-11815579D01*
X-13527794Y-11815579D02*
X-13518271Y-11853674D01*
X-13518271Y-11853674D02*
X-13518271Y-11901293D01*
X-13518271Y-11901293D02*
X-13527794Y-11939388D01*
X-13527794Y-11939388D02*
X-13537318Y-11958436D01*
X-13537318Y-11958436D02*
X-13546842Y-11967960D01*
X-13546842Y-11967960D02*
X-13565890Y-11977484D01*
X-13565890Y-11977484D02*
X-13584937Y-11977484D01*
X-13584937Y-11977484D02*
X-13603985Y-11967960D01*
X-13603985Y-11967960D02*
X-13613509Y-11958436D01*
X-13613509Y-11958436D02*
X-13623033Y-11939388D01*
X-13623033Y-11939388D02*
X-13632556Y-11901293D01*
X-13632556Y-11901293D02*
X-13632556Y-11853674D01*
X-13632556Y-11853674D02*
X-13623033Y-11815579D01*
X-13623033Y-11815579D02*
X-13613509Y-11796531D01*
X-13613509Y-11796531D02*
X-13603985Y-11787008D01*
X-13603985Y-11787008D02*
X-13584937Y-11777484D01*
X-13394461Y-11777484D02*
X-13375413Y-11777484D01*
X-13375413Y-11777484D02*
X-13356366Y-11787008D01*
X-13356366Y-11787008D02*
X-13346842Y-11796531D01*
X-13346842Y-11796531D02*
X-13337318Y-11815579D01*
X-13337318Y-11815579D02*
X-13327794Y-11853674D01*
X-13327794Y-11853674D02*
X-13327794Y-11901293D01*
X-13327794Y-11901293D02*
X-13337318Y-11939388D01*
X-13337318Y-11939388D02*
X-13346842Y-11958436D01*
X-13346842Y-11958436D02*
X-13356366Y-11967960D01*
X-13356366Y-11967960D02*
X-13375413Y-11977484D01*
X-13375413Y-11977484D02*
X-13394461Y-11977484D01*
X-13394461Y-11977484D02*
X-13413509Y-11967960D01*
X-13413509Y-11967960D02*
X-13423033Y-11958436D01*
X-13423033Y-11958436D02*
X-13432556Y-11939388D01*
X-13432556Y-11939388D02*
X-13442080Y-11901293D01*
X-13442080Y-11901293D02*
X-13442080Y-11853674D01*
X-13442080Y-11853674D02*
X-13432556Y-11815579D01*
X-13432556Y-11815579D02*
X-13423033Y-11796531D01*
X-13423033Y-11796531D02*
X-13413509Y-11787008D01*
X-13413509Y-11787008D02*
X-13394461Y-11777484D01*
X-13242080Y-11977484D02*
X-13242080Y-11844150D01*
X-13242080Y-11863198D02*
X-13232556Y-11853674D01*
X-13232556Y-11853674D02*
X-13213509Y-11844150D01*
X-13213509Y-11844150D02*
X-13184937Y-11844150D01*
X-13184937Y-11844150D02*
X-13165890Y-11853674D01*
X-13165890Y-11853674D02*
X-13156366Y-11872722D01*
X-13156366Y-11872722D02*
X-13156366Y-11977484D01*
X-13156366Y-11872722D02*
X-13146842Y-11853674D01*
X-13146842Y-11853674D02*
X-13127794Y-11844150D01*
X-13127794Y-11844150D02*
X-13099223Y-11844150D01*
X-13099223Y-11844150D02*
X-13080175Y-11853674D01*
X-13080175Y-11853674D02*
X-13070652Y-11872722D01*
X-13070652Y-11872722D02*
X-13070652Y-11977484D01*
X-12975413Y-11977484D02*
X-12975413Y-11844150D01*
X-12975413Y-11863198D02*
X-12965890Y-11853674D01*
X-12965890Y-11853674D02*
X-12946842Y-11844150D01*
X-12946842Y-11844150D02*
X-12918271Y-11844150D01*
X-12918271Y-11844150D02*
X-12899223Y-11853674D01*
X-12899223Y-11853674D02*
X-12889699Y-11872722D01*
X-12889699Y-11872722D02*
X-12889699Y-11977484D01*
X-12889699Y-11872722D02*
X-12880175Y-11853674D01*
X-12880175Y-11853674D02*
X-12861128Y-11844150D01*
X-12861128Y-11844150D02*
X-12832556Y-11844150D01*
X-12832556Y-11844150D02*
X-12813509Y-11853674D01*
X-12813509Y-11853674D02*
X-12803985Y-11872722D01*
X-12803985Y-11872722D02*
X-12803985Y-11977484D01*
X-12413509Y-11767960D02*
X-12584937Y-12025103D01*
X-12156366Y-11777484D02*
X-12137318Y-11777484D01*
X-12137318Y-11777484D02*
X-12118270Y-11787008D01*
X-12118270Y-11787008D02*
X-12108747Y-11796531D01*
X-12108747Y-11796531D02*
X-12099223Y-11815579D01*
X-12099223Y-11815579D02*
X-12089699Y-11853674D01*
X-12089699Y-11853674D02*
X-12089699Y-11901293D01*
X-12089699Y-11901293D02*
X-12099223Y-11939388D01*
X-12099223Y-11939388D02*
X-12108747Y-11958436D01*
X-12108747Y-11958436D02*
X-12118270Y-11967960D01*
X-12118270Y-11967960D02*
X-12137318Y-11977484D01*
X-12137318Y-11977484D02*
X-12156366Y-11977484D01*
X-12156366Y-11977484D02*
X-12175413Y-11967960D01*
X-12175413Y-11967960D02*
X-12184937Y-11958436D01*
X-12184937Y-11958436D02*
X-12194461Y-11939388D01*
X-12194461Y-11939388D02*
X-12203985Y-11901293D01*
X-12203985Y-11901293D02*
X-12203985Y-11853674D01*
X-12203985Y-11853674D02*
X-12194461Y-11815579D01*
X-12194461Y-11815579D02*
X-12184937Y-11796531D01*
X-12184937Y-11796531D02*
X-12175413Y-11787008D01*
X-12175413Y-11787008D02*
X-12156366Y-11777484D01*
X-12003985Y-11958436D02*
X-11994461Y-11967960D01*
X-11994461Y-11967960D02*
X-12003985Y-11977484D01*
X-12003985Y-11977484D02*
X-12013509Y-11967960D01*
X-12013509Y-11967960D02*
X-12003985Y-11958436D01*
X-12003985Y-11958436D02*
X-12003985Y-11977484D01*
X-11870651Y-11777484D02*
X-11851604Y-11777484D01*
X-11851604Y-11777484D02*
X-11832556Y-11787008D01*
X-11832556Y-11787008D02*
X-11823032Y-11796531D01*
X-11823032Y-11796531D02*
X-11813509Y-11815579D01*
X-11813509Y-11815579D02*
X-11803985Y-11853674D01*
X-11803985Y-11853674D02*
X-11803985Y-11901293D01*
X-11803985Y-11901293D02*
X-11813509Y-11939388D01*
X-11813509Y-11939388D02*
X-11823032Y-11958436D01*
X-11823032Y-11958436D02*
X-11832556Y-11967960D01*
X-11832556Y-11967960D02*
X-11851604Y-11977484D01*
X-11851604Y-11977484D02*
X-11870651Y-11977484D01*
X-11870651Y-11977484D02*
X-11889699Y-11967960D01*
X-11889699Y-11967960D02*
X-11899223Y-11958436D01*
X-11899223Y-11958436D02*
X-11908747Y-11939388D01*
X-11908747Y-11939388D02*
X-11918270Y-11901293D01*
X-11918270Y-11901293D02*
X-11918270Y-11853674D01*
X-11918270Y-11853674D02*
X-11908747Y-11815579D01*
X-11908747Y-11815579D02*
X-11899223Y-11796531D01*
X-11899223Y-11796531D02*
X-11889699Y-11787008D01*
X-11889699Y-11787008D02*
X-11870651Y-11777484D01*
X-11708747Y-11977484D02*
X-11670651Y-11977484D01*
X-11670651Y-11977484D02*
X-11651604Y-11967960D01*
X-11651604Y-11967960D02*
X-11642080Y-11958436D01*
X-11642080Y-11958436D02*
X-11623032Y-11929865D01*
X-11623032Y-11929865D02*
X-11613509Y-11891769D01*
X-11613509Y-11891769D02*
X-11613509Y-11815579D01*
X-11613509Y-11815579D02*
X-11623032Y-11796531D01*
X-11623032Y-11796531D02*
X-11632556Y-11787008D01*
X-11632556Y-11787008D02*
X-11651604Y-11777484D01*
X-11651604Y-11777484D02*
X-11689699Y-11777484D01*
X-11689699Y-11777484D02*
X-11708747Y-11787008D01*
X-11708747Y-11787008D02*
X-11718270Y-11796531D01*
X-11718270Y-11796531D02*
X-11727794Y-11815579D01*
X-11727794Y-11815579D02*
X-11727794Y-11863198D01*
X-11727794Y-11863198D02*
X-11718270Y-11882246D01*
X-11718270Y-11882246D02*
X-11708747Y-11891769D01*
X-11708747Y-11891769D02*
X-11689699Y-11901293D01*
X-11689699Y-11901293D02*
X-11651604Y-11901293D01*
X-11651604Y-11901293D02*
X-11632556Y-11891769D01*
X-11632556Y-11891769D02*
X-11623032Y-11882246D01*
X-11623032Y-11882246D02*
X-11613509Y-11863198D01*
X-11489699Y-11777484D02*
X-11470651Y-11777484D01*
X-11470651Y-11777484D02*
X-11451604Y-11787008D01*
X-11451604Y-11787008D02*
X-11442080Y-11796531D01*
X-11442080Y-11796531D02*
X-11432556Y-11815579D01*
X-11432556Y-11815579D02*
X-11423032Y-11853674D01*
X-11423032Y-11853674D02*
X-11423032Y-11901293D01*
X-11423032Y-11901293D02*
X-11432556Y-11939388D01*
X-11432556Y-11939388D02*
X-11442080Y-11958436D01*
X-11442080Y-11958436D02*
X-11451604Y-11967960D01*
X-11451604Y-11967960D02*
X-11470651Y-11977484D01*
X-11470651Y-11977484D02*
X-11489699Y-11977484D01*
X-11489699Y-11977484D02*
X-11508747Y-11967960D01*
X-11508747Y-11967960D02*
X-11518270Y-11958436D01*
X-11518270Y-11958436D02*
X-11527794Y-11939388D01*
X-11527794Y-11939388D02*
X-11537318Y-11901293D01*
X-11537318Y-11901293D02*
X-11537318Y-11853674D01*
X-11537318Y-11853674D02*
X-11527794Y-11815579D01*
X-11527794Y-11815579D02*
X-11518270Y-11796531D01*
X-11518270Y-11796531D02*
X-11508747Y-11787008D01*
X-11508747Y-11787008D02*
X-11489699Y-11777484D01*
X-11251604Y-11777484D02*
X-11289699Y-11777484D01*
X-11289699Y-11777484D02*
X-11308747Y-11787008D01*
X-11308747Y-11787008D02*
X-11318270Y-11796531D01*
X-11318270Y-11796531D02*
X-11337318Y-11825103D01*
X-11337318Y-11825103D02*
X-11346842Y-11863198D01*
X-11346842Y-11863198D02*
X-11346842Y-11939388D01*
X-11346842Y-11939388D02*
X-11337318Y-11958436D01*
X-11337318Y-11958436D02*
X-11327794Y-11967960D01*
X-11327794Y-11967960D02*
X-11308747Y-11977484D01*
X-11308747Y-11977484D02*
X-11270651Y-11977484D01*
X-11270651Y-11977484D02*
X-11251604Y-11967960D01*
X-11251604Y-11967960D02*
X-11242080Y-11958436D01*
X-11242080Y-11958436D02*
X-11232556Y-11939388D01*
X-11232556Y-11939388D02*
X-11232556Y-11891769D01*
X-11232556Y-11891769D02*
X-11242080Y-11872722D01*
X-11242080Y-11872722D02*
X-11251604Y-11863198D01*
X-11251604Y-11863198D02*
X-11270651Y-11853674D01*
X-11270651Y-11853674D02*
X-11308747Y-11853674D01*
X-11308747Y-11853674D02*
X-11327794Y-11863198D01*
X-11327794Y-11863198D02*
X-11337318Y-11872722D01*
X-11337318Y-11872722D02*
X-11346842Y-11891769D01*
X-11156366Y-11777484D02*
X-11156366Y-11815579D01*
X-11080175Y-11777484D02*
X-11080175Y-11815579D01*
X-10784937Y-12053674D02*
X-10794461Y-12044150D01*
X-10794461Y-12044150D02*
X-10813509Y-12015579D01*
X-10813509Y-12015579D02*
X-10823032Y-11996531D01*
X-10823032Y-11996531D02*
X-10832556Y-11967960D01*
X-10832556Y-11967960D02*
X-10842080Y-11920341D01*
X-10842080Y-11920341D02*
X-10842080Y-11882246D01*
X-10842080Y-11882246D02*
X-10832556Y-11834627D01*
X-10832556Y-11834627D02*
X-10823032Y-11806055D01*
X-10823032Y-11806055D02*
X-10813509Y-11787008D01*
X-10813509Y-11787008D02*
X-10794461Y-11758436D01*
X-10794461Y-11758436D02*
X-10784937Y-11748912D01*
X-10718270Y-11796531D02*
X-10708747Y-11787008D01*
X-10708747Y-11787008D02*
X-10689699Y-11777484D01*
X-10689699Y-11777484D02*
X-10642080Y-11777484D01*
X-10642080Y-11777484D02*
X-10623032Y-11787008D01*
X-10623032Y-11787008D02*
X-10613509Y-11796531D01*
X-10613509Y-11796531D02*
X-10603985Y-11815579D01*
X-10603985Y-11815579D02*
X-10603985Y-11834627D01*
X-10603985Y-11834627D02*
X-10613509Y-11863198D01*
X-10613509Y-11863198D02*
X-10727794Y-11977484D01*
X-10727794Y-11977484D02*
X-10603985Y-11977484D01*
X-10365889Y-11977484D02*
X-10365889Y-11777484D01*
X-10280175Y-11977484D02*
X-10280175Y-11872722D01*
X-10280175Y-11872722D02*
X-10289699Y-11853674D01*
X-10289699Y-11853674D02*
X-10308747Y-11844150D01*
X-10308747Y-11844150D02*
X-10337318Y-11844150D01*
X-10337318Y-11844150D02*
X-10356366Y-11853674D01*
X-10356366Y-11853674D02*
X-10365889Y-11863198D01*
X-10156366Y-11977484D02*
X-10175413Y-11967960D01*
X-10175413Y-11967960D02*
X-10184937Y-11958436D01*
X-10184937Y-11958436D02*
X-10194461Y-11939388D01*
X-10194461Y-11939388D02*
X-10194461Y-11882246D01*
X-10194461Y-11882246D02*
X-10184937Y-11863198D01*
X-10184937Y-11863198D02*
X-10175413Y-11853674D01*
X-10175413Y-11853674D02*
X-10156366Y-11844150D01*
X-10156366Y-11844150D02*
X-10127794Y-11844150D01*
X-10127794Y-11844150D02*
X-10108747Y-11853674D01*
X-10108747Y-11853674D02*
X-10099223Y-11863198D01*
X-10099223Y-11863198D02*
X-10089699Y-11882246D01*
X-10089699Y-11882246D02*
X-10089699Y-11939388D01*
X-10089699Y-11939388D02*
X-10099223Y-11958436D01*
X-10099223Y-11958436D02*
X-10108747Y-11967960D01*
X-10108747Y-11967960D02*
X-10127794Y-11977484D01*
X-10127794Y-11977484D02*
X-10156366Y-11977484D01*
X-9975413Y-11977484D02*
X-9994461Y-11967960D01*
X-9994461Y-11967960D02*
X-10003985Y-11948912D01*
X-10003985Y-11948912D02*
X-10003985Y-11777484D01*
X-9823032Y-11967960D02*
X-9842080Y-11977484D01*
X-9842080Y-11977484D02*
X-9880175Y-11977484D01*
X-9880175Y-11977484D02*
X-9899223Y-11967960D01*
X-9899223Y-11967960D02*
X-9908747Y-11948912D01*
X-9908747Y-11948912D02*
X-9908747Y-11872722D01*
X-9908747Y-11872722D02*
X-9899223Y-11853674D01*
X-9899223Y-11853674D02*
X-9880175Y-11844150D01*
X-9880175Y-11844150D02*
X-9842080Y-11844150D01*
X-9842080Y-11844150D02*
X-9823032Y-11853674D01*
X-9823032Y-11853674D02*
X-9813508Y-11872722D01*
X-9813508Y-11872722D02*
X-9813508Y-11891769D01*
X-9813508Y-11891769D02*
X-9908747Y-11910817D01*
X-9737318Y-11967960D02*
X-9718270Y-11977484D01*
X-9718270Y-11977484D02*
X-9680175Y-11977484D01*
X-9680175Y-11977484D02*
X-9661127Y-11967960D01*
X-9661127Y-11967960D02*
X-9651604Y-11948912D01*
X-9651604Y-11948912D02*
X-9651604Y-11939388D01*
X-9651604Y-11939388D02*
X-9661127Y-11920341D01*
X-9661127Y-11920341D02*
X-9680175Y-11910817D01*
X-9680175Y-11910817D02*
X-9708747Y-11910817D01*
X-9708747Y-11910817D02*
X-9727794Y-11901293D01*
X-9727794Y-11901293D02*
X-9737318Y-11882246D01*
X-9737318Y-11882246D02*
X-9737318Y-11872722D01*
X-9737318Y-11872722D02*
X-9727794Y-11853674D01*
X-9727794Y-11853674D02*
X-9708747Y-11844150D01*
X-9708747Y-11844150D02*
X-9680175Y-11844150D01*
X-9680175Y-11844150D02*
X-9661127Y-11853674D01*
X-9584937Y-12053674D02*
X-9575413Y-12044150D01*
X-9575413Y-12044150D02*
X-9556366Y-12015579D01*
X-9556366Y-12015579D02*
X-9546842Y-11996531D01*
X-9546842Y-11996531D02*
X-9537318Y-11967960D01*
X-9537318Y-11967960D02*
X-9527794Y-11920341D01*
X-9527794Y-11920341D02*
X-9527794Y-11882246D01*
X-9527794Y-11882246D02*
X-9537318Y-11834627D01*
X-9537318Y-11834627D02*
X-9546842Y-11806055D01*
X-9546842Y-11806055D02*
X-9556366Y-11787008D01*
X-9556366Y-11787008D02*
X-9575413Y-11758436D01*
X-9575413Y-11758436D02*
X-9584937Y-11748912D01*
M02*
