G04 #@! TF.GenerationSoftware,KiCad,Pcbnew,8.0.4*
G04 #@! TF.CreationDate,2024-10-27T13:40:52+07:00*
G04 #@! TF.ProjectId,ShinA4,5368696e-4134-42e6-9b69-6361645f7063,rev?*
G04 #@! TF.SameCoordinates,Original*
G04 #@! TF.FileFunction,Paste,Bot*
G04 #@! TF.FilePolarity,Positive*
%FSLAX46Y46*%
G04 Gerber Fmt 4.6, Leading zero omitted, Abs format (unit mm)*
G04 Created by KiCad (PCBNEW 8.0.4) date 2024-10-27 13:40:52*
%MOMM*%
%LPD*%
G01*
G04 APERTURE LIST*
G04 Aperture macros list*
%AMRoundRect*
0 Rectangle with rounded corners*
0 $1 Rounding radius*
0 $2 $3 $4 $5 $6 $7 $8 $9 X,Y pos of 4 corners*
0 Add a 4 corners polygon primitive as box body*
4,1,4,$2,$3,$4,$5,$6,$7,$8,$9,$2,$3,0*
0 Add four circle primitives for the rounded corners*
1,1,$1+$1,$2,$3*
1,1,$1+$1,$4,$5*
1,1,$1+$1,$6,$7*
1,1,$1+$1,$8,$9*
0 Add four rect primitives between the rounded corners*
20,1,$1+$1,$2,$3,$4,$5,0*
20,1,$1+$1,$4,$5,$6,$7,0*
20,1,$1+$1,$6,$7,$8,$9,0*
20,1,$1+$1,$8,$9,$2,$3,0*%
G04 Aperture macros list end*
%ADD10R,2.600000X2.600000*%
%ADD11RoundRect,0.381000X1.119000X0.381000X-1.119000X0.381000X-1.119000X-0.381000X1.119000X-0.381000X0*%
%ADD12RoundRect,0.381000X0.381000X-1.119000X0.381000X1.119000X-0.381000X1.119000X-0.381000X-1.119000X0*%
%ADD13R,1.700000X0.825000*%
%ADD14RoundRect,0.206250X-0.643750X-0.206250X0.643750X-0.206250X0.643750X0.206250X-0.643750X0.206250X0*%
%ADD15RoundRect,0.237500X0.300000X0.237500X-0.300000X0.237500X-0.300000X-0.237500X0.300000X-0.237500X0*%
%ADD16RoundRect,0.237500X-0.237500X0.250000X-0.237500X-0.250000X0.237500X-0.250000X0.237500X0.250000X0*%
%ADD17RoundRect,0.237500X0.250000X0.237500X-0.250000X0.237500X-0.250000X-0.237500X0.250000X-0.237500X0*%
%ADD18RoundRect,0.150000X0.512500X0.150000X-0.512500X0.150000X-0.512500X-0.150000X0.512500X-0.150000X0*%
%ADD19RoundRect,0.250000X-0.450000X0.325000X-0.450000X-0.325000X0.450000X-0.325000X0.450000X0.325000X0*%
G04 APERTURE END LIST*
D10*
X-60475000Y98450000D03*
X-48925000Y96250000D03*
X-116075000Y40050000D03*
X-104525000Y37850000D03*
X104921000Y32424000D03*
X116471000Y30224000D03*
X-84375000Y52550000D03*
X-72825000Y50350000D03*
X-4291000Y-21266000D03*
X7259000Y-23466000D03*
X7114000Y16032000D03*
X18664000Y13832000D03*
X37004000Y-172000D03*
X48554000Y-2372000D03*
X72216000Y33624000D03*
X83766000Y31424000D03*
X-79475000Y98450000D03*
X-67925000Y96250000D03*
X9419000Y50032000D03*
X20969000Y47832000D03*
X110925000Y98450000D03*
X122475000Y96250000D03*
X-50375000Y52550000D03*
X-38825000Y50350000D03*
X38421000Y67828000D03*
X49971000Y65628000D03*
X-41475000Y98450000D03*
X-29925000Y96250000D03*
X-98475000Y98450000D03*
X-86925000Y96250000D03*
X72621000Y67624000D03*
X84171000Y65424000D03*
X39416000Y33828000D03*
X50966000Y31628000D03*
D11*
X9160000Y100440000D03*
X9160000Y97900000D03*
X9160000Y95360000D03*
X9160000Y92820000D03*
X9160000Y90280000D03*
X9160000Y87740000D03*
X9160000Y85200000D03*
X9160000Y82660000D03*
X9160000Y80120000D03*
D12*
X5080000Y78580000D03*
X2540000Y78580000D03*
X0Y78580000D03*
X-2540000Y78580000D03*
X-5080000Y78580000D03*
D11*
X-9160000Y80120000D03*
X-9160000Y82660000D03*
X-9160000Y85200000D03*
X-9160000Y87740000D03*
X-9160000Y90280000D03*
X-9160000Y92820000D03*
X-9160000Y95360000D03*
X-9160000Y100440000D03*
X-9160000Y97900000D03*
D10*
X-21183000Y35036000D03*
X-9633000Y32836000D03*
X104621000Y66424000D03*
X116171000Y64224000D03*
X-117475000Y98450000D03*
X-105925000Y96250000D03*
D13*
X-44300000Y41200000D03*
X-44300000Y42600000D03*
D14*
X-49900000Y42600000D03*
D13*
X-49900000Y41200000D03*
D15*
X43553500Y19878000D03*
X41828500Y19878000D03*
D13*
X13189000Y4682000D03*
X13189000Y6082000D03*
D14*
X7589000Y6082000D03*
D13*
X7589000Y4682000D03*
D15*
X42558500Y53878000D03*
X40833500Y53878000D03*
D13*
X44496000Y56478000D03*
X44496000Y57878000D03*
D14*
X38896000Y57878000D03*
D13*
X38896000Y56478000D03*
X-78300000Y41200000D03*
X-78300000Y42600000D03*
D14*
X-83900000Y42600000D03*
D13*
X-83900000Y41200000D03*
D16*
X72330000Y88132500D03*
X72330000Y86307500D03*
D13*
X1784000Y-32616000D03*
X1784000Y-31216000D03*
D14*
X-3816000Y-31216000D03*
D13*
X-3816000Y-32616000D03*
D15*
X109058500Y18474000D03*
X107333500Y18474000D03*
D13*
X78696000Y56274000D03*
X78696000Y57674000D03*
D14*
X73096000Y57674000D03*
D13*
X73096000Y56274000D03*
X-110000000Y28700000D03*
X-110000000Y30100000D03*
D14*
X-115600000Y30100000D03*
D13*
X-115600000Y28700000D03*
D17*
X-27407500Y73040000D03*
X-29232500Y73040000D03*
D13*
X110996000Y21074000D03*
X110996000Y22474000D03*
D14*
X105396000Y22474000D03*
D13*
X105396000Y21074000D03*
D18*
X-23182500Y74912500D03*
X-23182500Y73962500D03*
X-23182500Y73012500D03*
X-25457500Y73012500D03*
X-25457500Y74912500D03*
D15*
X-46237500Y38600000D03*
X-47962500Y38600000D03*
X-27457500Y74940000D03*
X-29182500Y74940000D03*
X-80237500Y38600000D03*
X-81962500Y38600000D03*
D19*
X76830000Y88245000D03*
X76830000Y86195000D03*
D13*
X78291000Y22274000D03*
X78291000Y23674000D03*
D14*
X72691000Y23674000D03*
D13*
X72691000Y22274000D03*
D15*
X13556500Y36082000D03*
X11831500Y36082000D03*
X-111937500Y26100000D03*
X-113662500Y26100000D03*
D13*
X45491000Y22478000D03*
X45491000Y23878000D03*
D14*
X39891000Y23878000D03*
D13*
X39891000Y22478000D03*
D16*
X74330000Y88132500D03*
X74330000Y86307500D03*
D15*
X76353500Y19674000D03*
X74628500Y19674000D03*
D13*
X110696000Y55074000D03*
X110696000Y56474000D03*
D14*
X105096000Y56474000D03*
D13*
X105096000Y55074000D03*
X-15108000Y23686000D03*
X-15108000Y25086000D03*
D14*
X-20708000Y25086000D03*
D13*
X-20708000Y23686000D03*
D15*
X108758500Y52474000D03*
X107033500Y52474000D03*
D13*
X15494000Y38682000D03*
X15494000Y40082000D03*
D14*
X9894000Y40082000D03*
D13*
X9894000Y38682000D03*
D15*
X-153500Y-35216000D03*
X-1878500Y-35216000D03*
X-17045500Y21086000D03*
X-18770500Y21086000D03*
X76758500Y53674000D03*
X75033500Y53674000D03*
X11251500Y2082000D03*
X9526500Y2082000D03*
D13*
X43079000Y-11522000D03*
X43079000Y-10122000D03*
D14*
X37479000Y-10122000D03*
D13*
X37479000Y-11522000D03*
D15*
X41141500Y-14122000D03*
X39416500Y-14122000D03*
M02*
