G04 #@! TF.GenerationSoftware,KiCad,Pcbnew,8.0.4*
G04 #@! TF.CreationDate,2024-10-27T13:40:52+07:00*
G04 #@! TF.ProjectId,ShinA4,5368696e-4134-42e6-9b69-6361645f7063,rev?*
G04 #@! TF.SameCoordinates,Original*
G04 #@! TF.FileFunction,Profile,NP*
%FSLAX46Y46*%
G04 Gerber Fmt 4.6, Leading zero omitted, Abs format (unit mm)*
G04 Created by KiCad (PCBNEW 8.0.4) date 2024-10-27 13:40:52*
%MOMM*%
%LPD*%
G01*
G04 APERTURE LIST*
G04 #@! TA.AperFunction,Profile*
%ADD10C,0.200000*%
G04 #@! TD*
G04 #@! TA.AperFunction,Profile*
%ADD11C,0.100000*%
G04 #@! TD*
G04 APERTURE END LIST*
D10*
X7040000Y80645000D02*
X7040000Y101790000D01*
X-141699999Y-101800000D02*
G75*
G02*
X-143500000Y-99999999I0J1800001D01*
G01*
X141700000Y101800000D02*
G75*
G02*
X143500000Y100000000I0J-1800000D01*
G01*
X88800000Y-46000000D02*
G75*
G02*
X82600000Y-46000000I-3100000J0D01*
G01*
X82600000Y-46000000D02*
G75*
G02*
X88800000Y-46000000I3100000J0D01*
G01*
X-130600000Y0D02*
G75*
G02*
X-136800000Y0I-3100000J0D01*
G01*
X-136800000Y0D02*
G75*
G02*
X-130600000Y0I3100000J0D01*
G01*
X141700000Y101800000D02*
X7040000Y101790000D01*
X143500000Y-100000000D02*
X143500000Y100000000D01*
X-7040000Y80655000D02*
X-7040000Y101800000D01*
X-7040000Y101800000D02*
X-141699999Y101800000D01*
X36775000Y92000000D02*
G75*
G02*
X30575000Y92000000I-3100000J0D01*
G01*
X30575000Y92000000D02*
G75*
G02*
X36775000Y92000000I3100000J0D01*
G01*
X-63750000Y-46000000D02*
G75*
G02*
X-69950000Y-46000000I-3100000J0D01*
G01*
X-69950000Y-46000000D02*
G75*
G02*
X-63750000Y-46000000I3100000J0D01*
G01*
X-130600000Y-92000000D02*
G75*
G02*
X-136800000Y-92000000I-3100000J0D01*
G01*
X-136800000Y-92000000D02*
G75*
G02*
X-130600000Y-92000000I3100000J0D01*
G01*
X-143500000Y99999999D02*
G75*
G02*
X-141699999Y101800000I1800001J0D01*
G01*
X-130600000Y92000000D02*
G75*
G02*
X-136800000Y92000000I-3100000J0D01*
G01*
X-136800000Y92000000D02*
G75*
G02*
X-130600000Y92000000I3100000J0D01*
G01*
X-14808265Y0D02*
G75*
G02*
X-21008265Y0I-3100000J0D01*
G01*
X-21008265Y0D02*
G75*
G02*
X-14808265Y0I3100000J0D01*
G01*
X3100000Y-92000000D02*
G75*
G02*
X-3100000Y-92000000I-3100000J0D01*
G01*
X-3100000Y-92000000D02*
G75*
G02*
X3100000Y-92000000I3100000J0D01*
G01*
X136800000Y0D02*
G75*
G02*
X130600000Y0I-3100000J0D01*
G01*
X130600000Y0D02*
G75*
G02*
X136800000Y0I3100000J0D01*
G01*
X136800000Y92000000D02*
G75*
G02*
X130600000Y92000000I-3100000J0D01*
G01*
X130600000Y92000000D02*
G75*
G02*
X136800000Y92000000I3100000J0D01*
G01*
X-63750000Y73050000D02*
G75*
G02*
X-69950000Y73050000I-3100000J0D01*
G01*
X-69950000Y73050000D02*
G75*
G02*
X-63750000Y73050000I3100000J0D01*
G01*
X-7040000Y80655000D02*
X7040000Y80645000D01*
X136800000Y-92000000D02*
G75*
G02*
X130600000Y-92000000I-3100000J0D01*
G01*
X130600000Y-92000000D02*
G75*
G02*
X136800000Y-92000000I3100000J0D01*
G01*
X-143500000Y99999999D02*
X-143500000Y-99999999D01*
X-141699999Y-101800000D02*
X141700000Y-101800000D01*
X143500000Y-100000000D02*
G75*
G02*
X141700000Y-101800000I-1800000J0D01*
G01*
X62292692Y44870114D02*
G75*
G02*
X56092692Y44870114I-3100000J0D01*
G01*
X56092692Y44870114D02*
G75*
G02*
X62292692Y44870114I3100000J0D01*
G01*
D11*
X-48900000Y43450000D02*
X-48900000Y40350000D01*
X-48900000Y40350000D02*
X-45300000Y40350000D01*
X-45300000Y43450000D02*
X-48900000Y43450000D01*
X-45300000Y40350000D02*
X-45300000Y43450000D01*
X8589000Y6932000D02*
X8589000Y3832000D01*
X8589000Y3832000D02*
X12189000Y3832000D01*
X12189000Y6932000D02*
X8589000Y6932000D01*
X12189000Y3832000D02*
X12189000Y6932000D01*
X39896000Y58728000D02*
X39896000Y55628000D01*
X39896000Y55628000D02*
X43496000Y55628000D01*
X43496000Y58728000D02*
X39896000Y58728000D01*
X43496000Y55628000D02*
X43496000Y58728000D01*
X-82900000Y43450000D02*
X-82900000Y40350000D01*
X-82900000Y40350000D02*
X-79300000Y40350000D01*
X-79300000Y43450000D02*
X-82900000Y43450000D01*
X-79300000Y40350000D02*
X-79300000Y43450000D01*
X-2816000Y-30366000D02*
X-2816000Y-33466000D01*
X-2816000Y-33466000D02*
X784000Y-33466000D01*
X784000Y-30366000D02*
X-2816000Y-30366000D01*
X784000Y-33466000D02*
X784000Y-30366000D01*
X74096000Y58524000D02*
X74096000Y55424000D01*
X74096000Y55424000D02*
X77696000Y55424000D01*
X77696000Y58524000D02*
X74096000Y58524000D01*
X77696000Y55424000D02*
X77696000Y58524000D01*
X-114600000Y30950000D02*
X-114600000Y27850000D01*
X-114600000Y27850000D02*
X-111000000Y27850000D01*
X-111000000Y30950000D02*
X-114600000Y30950000D01*
X-111000000Y27850000D02*
X-111000000Y30950000D01*
X106396000Y23324000D02*
X106396000Y20224000D01*
X106396000Y20224000D02*
X109996000Y20224000D01*
X109996000Y23324000D02*
X106396000Y23324000D01*
X109996000Y20224000D02*
X109996000Y23324000D01*
X73691000Y24524000D02*
X73691000Y21424000D01*
X73691000Y21424000D02*
X77291000Y21424000D01*
X77291000Y24524000D02*
X73691000Y24524000D01*
X77291000Y21424000D02*
X77291000Y24524000D01*
X40891000Y24728000D02*
X40891000Y21628000D01*
X40891000Y21628000D02*
X44491000Y21628000D01*
X44491000Y24728000D02*
X40891000Y24728000D01*
X44491000Y21628000D02*
X44491000Y24728000D01*
X106096000Y57324000D02*
X106096000Y54224000D01*
X106096000Y54224000D02*
X109696000Y54224000D01*
X109696000Y57324000D02*
X106096000Y57324000D01*
X109696000Y54224000D02*
X109696000Y57324000D01*
X-19708000Y25936000D02*
X-19708000Y22836000D01*
X-19708000Y22836000D02*
X-16108000Y22836000D01*
X-16108000Y25936000D02*
X-19708000Y25936000D01*
X-16108000Y22836000D02*
X-16108000Y25936000D01*
X10894000Y40932000D02*
X10894000Y37832000D01*
X10894000Y37832000D02*
X14494000Y37832000D01*
X14494000Y40932000D02*
X10894000Y40932000D01*
X14494000Y37832000D02*
X14494000Y40932000D01*
X38479000Y-9272000D02*
X38479000Y-12372000D01*
X38479000Y-12372000D02*
X42079000Y-12372000D01*
X42079000Y-9272000D02*
X38479000Y-9272000D01*
X42079000Y-12372000D02*
X42079000Y-9272000D01*
M02*
