G04 #@! TF.GenerationSoftware,KiCad,Pcbnew,8.0.4*
G04 #@! TF.CreationDate,2024-10-27T13:40:52+07:00*
G04 #@! TF.ProjectId,ShinA4,5368696e-4134-42e6-9b69-6361645f7063,rev?*
G04 #@! TF.SameCoordinates,Original*
G04 #@! TF.FileFunction,Soldermask,Top*
G04 #@! TF.FilePolarity,Negative*
%FSLAX46Y46*%
G04 Gerber Fmt 4.6, Leading zero omitted, Abs format (unit mm)*
G04 Created by KiCad (PCBNEW 8.0.4) date 2024-10-27 13:40:52*
%MOMM*%
%LPD*%
G01*
G04 APERTURE LIST*
%ADD10C,1.701800*%
%ADD11C,3.000000*%
%ADD12C,4.900000*%
%ADD13C,0.990600*%
%ADD14C,1.000000*%
%ADD15C,1.632000*%
%ADD16C,3.520000*%
%ADD17R,1.700000X1.700000*%
%ADD18O,1.700000X1.700000*%
G04 APERTURE END LIST*
D10*
X-51700000Y92500000D03*
D11*
X-52200000Y96250000D03*
D12*
X-57200000Y92500000D03*
D11*
X-57200000Y98450000D03*
D13*
X-62420000Y88300000D03*
D10*
X-62700000Y92500000D03*
X-107300000Y34100000D03*
D11*
X-107800000Y37850000D03*
D12*
X-112800000Y34100000D03*
D11*
X-112800000Y40050000D03*
D13*
X-118020000Y29900000D03*
D10*
X-118300000Y34100000D03*
X113696000Y26474000D03*
D11*
X113196000Y30224000D03*
D12*
X108196000Y26474000D03*
D11*
X108196000Y32424000D03*
D13*
X102976000Y22274000D03*
D10*
X102696000Y26474000D03*
X-75600000Y46600000D03*
D11*
X-76100000Y50350000D03*
D12*
X-81100000Y46600000D03*
D11*
X-81100000Y52550000D03*
D13*
X-86320000Y42400000D03*
D10*
X-86600000Y46600000D03*
X4484000Y-27216000D03*
D11*
X3984000Y-23466000D03*
D12*
X-1016000Y-27216000D03*
D11*
X-1016000Y-21266000D03*
D13*
X-6236000Y-31416000D03*
D10*
X-6516000Y-27216000D03*
D14*
X14160000Y84270000D03*
X14160000Y91890000D03*
D10*
X15889000Y10082000D03*
D11*
X15389000Y13832000D03*
D12*
X10389000Y10082000D03*
D11*
X10389000Y16032000D03*
D13*
X5169000Y5882000D03*
D10*
X4889000Y10082000D03*
X45779000Y-6122000D03*
D11*
X45279000Y-2372000D03*
D12*
X40279000Y-6122000D03*
D11*
X40279000Y-172000D03*
D13*
X35059000Y-10322000D03*
D10*
X34779000Y-6122000D03*
X80991000Y27674000D03*
D11*
X80491000Y31424000D03*
D12*
X75491000Y27674000D03*
D11*
X75491000Y33624000D03*
D13*
X70271000Y23474000D03*
D10*
X69991000Y27674000D03*
D14*
X14160000Y86810000D03*
D15*
X76830000Y91220000D03*
X74330000Y91220000D03*
X72330000Y91220000D03*
X69830000Y91220000D03*
D16*
X79900000Y93930000D03*
X66760000Y93930000D03*
D14*
X14160000Y94430000D03*
D10*
X-70700000Y92500000D03*
D11*
X-71200000Y96250000D03*
D12*
X-76200000Y92500000D03*
D11*
X-76200000Y98450000D03*
D13*
X-81420000Y88300000D03*
D10*
X-81700000Y92500000D03*
X18194000Y44082000D03*
D11*
X17694000Y47832000D03*
D12*
X12694000Y44082000D03*
D11*
X12694000Y50032000D03*
D13*
X7474000Y39882000D03*
D10*
X7194000Y44082000D03*
X119700000Y92500000D03*
D11*
X119200000Y96250000D03*
D12*
X114200000Y92500000D03*
D11*
X114200000Y98450000D03*
D13*
X108980000Y88300000D03*
D10*
X108700000Y92500000D03*
X-41600000Y46600000D03*
D11*
X-42100000Y50350000D03*
D12*
X-47100000Y46600000D03*
D11*
X-47100000Y52550000D03*
D13*
X-52320000Y42400000D03*
D10*
X-52600000Y46600000D03*
X47196000Y61878000D03*
D11*
X46696000Y65628000D03*
D12*
X41696000Y61878000D03*
D11*
X41696000Y67828000D03*
D13*
X36476000Y57678000D03*
D10*
X36196000Y61878000D03*
X-32700000Y92500000D03*
D11*
X-33200000Y96250000D03*
D12*
X-38200000Y92500000D03*
D11*
X-38200000Y98450000D03*
D13*
X-43420000Y88300000D03*
D10*
X-43700000Y92500000D03*
X-89700000Y92500000D03*
D11*
X-90200000Y96250000D03*
D12*
X-95200000Y92500000D03*
D11*
X-95200000Y98450000D03*
D13*
X-100420000Y88300000D03*
D10*
X-100700000Y92500000D03*
X81396000Y61674000D03*
D11*
X80896000Y65424000D03*
D12*
X75896000Y61674000D03*
D11*
X75896000Y67624000D03*
D13*
X70676000Y57474000D03*
D10*
X70396000Y61674000D03*
D17*
X-4826000Y-52600000D03*
D18*
X-2286000Y-52600000D03*
X254000Y-52600000D03*
X2794000Y-52600000D03*
D10*
X48191000Y27878000D03*
D11*
X47691000Y31628000D03*
D12*
X42691000Y27878000D03*
D11*
X42691000Y33828000D03*
D13*
X37471000Y23678000D03*
D10*
X37191000Y27878000D03*
X-12408000Y29086000D03*
D11*
X-12908000Y32836000D03*
D12*
X-17908000Y29086000D03*
D11*
X-17908000Y35036000D03*
D13*
X-23128000Y24886000D03*
D10*
X-23408000Y29086000D03*
D14*
X14160000Y89350000D03*
D10*
X113396000Y60474000D03*
D11*
X112896000Y64224000D03*
D12*
X107896000Y60474000D03*
D11*
X107896000Y66424000D03*
D13*
X102676000Y56274000D03*
D10*
X102396000Y60474000D03*
X-108700000Y92500000D03*
D11*
X-109200000Y96250000D03*
D12*
X-114200000Y92500000D03*
D11*
X-114200000Y98450000D03*
D13*
X-119420000Y88300000D03*
D10*
X-119700000Y92500000D03*
M02*
