M48
; DRILL file {KiCad 8.0.4} date 2024-10-27T13:41:00+0700
; FORMAT={-:-/ absolute / metric / decimal}
; #@! TF.CreationDate,2024-10-27T13:41:00+07:00
; #@! TF.GenerationSoftware,Kicad,Pcbnew,8.0.4
; #@! TF.FileFunction,NonPlated,1,2,NPTH
FMAT,2
METRIC
; #@! TA.AperFunction,NonPlated,NPTH,ComponentDrill
T1C0.991
; #@! TA.AperFunction,NonPlated,NPTH,ComponentDrill
T2C1.702
; #@! TA.AperFunction,NonPlated,NPTH,ComponentDrill
T3C3.000
; #@! TA.AperFunction,NonPlated,NPTH,ComponentDrill
T4C5.000
%
G90
G05
T1
X-119.42Y88.3
X-118.02Y29.9
X-100.42Y88.3
X-86.32Y42.4
X-81.42Y88.3
X-62.42Y88.3
X-52.32Y42.4
X-43.42Y88.3
X-23.128Y24.886
X-6.236Y-31.416
X5.169Y5.882
X7.474Y39.882
X35.059Y-10.322
X36.476Y57.678
X37.471Y23.678
X70.271Y23.474
X70.676Y57.474
X102.676Y56.274
X102.976Y22.274
X108.98Y88.3
T2
X-119.7Y92.5
X-118.3Y34.1
X-108.7Y92.5
X-107.3Y34.1
X-100.7Y92.5
X-89.7Y92.5
X-86.6Y46.6
X-81.7Y92.5
X-75.6Y46.6
X-70.7Y92.5
X-62.7Y92.5
X-52.6Y46.6
X-51.7Y92.5
X-43.7Y92.5
X-41.6Y46.6
X-32.7Y92.5
X-23.408Y29.086
X-12.408Y29.086
X-6.516Y-27.216
X4.484Y-27.216
X4.889Y10.082
X7.194Y44.082
X15.889Y10.082
X18.194Y44.082
X34.779Y-6.122
X36.196Y61.878
X37.191Y27.878
X45.779Y-6.122
X47.196Y61.878
X48.191Y27.878
X69.991Y27.674
X70.396Y61.674
X80.991Y27.674
X81.396Y61.674
X102.396Y60.474
X102.696Y26.474
X108.7Y92.5
X113.396Y60.474
X113.696Y26.474
X119.7Y92.5
T3
X-114.2Y98.45
X-112.8Y40.05
X-109.2Y96.25
X-107.8Y37.85
X-95.2Y98.45
X-90.2Y96.25
X-81.1Y52.55
X-76.2Y98.45
X-76.1Y50.35
X-71.2Y96.25
X-57.2Y98.45
X-52.2Y96.25
X-47.1Y52.55
X-42.1Y50.35
X-38.2Y98.45
X-33.2Y96.25
X-17.908Y35.036
X-12.908Y32.836
X-1.016Y-21.266
X3.984Y-23.466
X10.389Y16.032
X12.694Y50.032
X15.389Y13.832
X17.694Y47.832
X40.279Y-0.172
X41.696Y67.828
X42.691Y33.828
X45.279Y-2.372
X46.696Y65.628
X47.691Y31.628
X75.491Y33.624
X75.896Y67.624
X80.491Y31.424
X80.896Y65.424
X107.896Y66.424
X108.196Y32.424
X112.896Y64.224
X113.196Y30.224
X114.2Y98.45
X119.2Y96.25
T4
X-114.2Y92.5
X-112.8Y34.1
X-95.2Y92.5
X-81.1Y46.6
X-76.2Y92.5
X-57.2Y92.5
X-47.1Y46.6
X-38.2Y92.5
X-17.908Y29.086
X-1.016Y-27.216
X10.389Y10.082
X12.694Y44.082
X40.279Y-6.122
X41.696Y61.878
X42.691Y27.878
X75.491Y27.674
X75.896Y61.674
X107.896Y60.474
X108.196Y26.474
X114.2Y92.5
M30
