M48
; DRILL file {KiCad 8.0.4} date 2024-10-27T13:41:00+0700
; FORMAT={-:-/ absolute / metric / decimal}
; #@! TF.CreationDate,2024-10-27T13:41:00+07:00
; #@! TF.GenerationSoftware,Kicad,Pcbnew,8.0.4
; #@! TF.FileFunction,Plated,1,2,PTH
FMAT,2
METRIC
; #@! TA.AperFunction,Plated,PTH,ViaDrill
T1C0.300
; #@! TA.AperFunction,Plated,PTH,ComponentDrill
T2C0.500
; #@! TA.AperFunction,Plated,PTH,ComponentDrill
T3C0.920
; #@! TA.AperFunction,Plated,PTH,ComponentDrill
T4C1.000
; #@! TA.AperFunction,Plated,PTH,ComponentDrill
T5C2.300
%
G90
G05
T1
X-120.9Y28.2
X-117.8Y28.2
X-117.5Y95.7
X-116.0Y43.5
X-98.5Y95.7
X-97.3Y28.65
X-97.3Y23.1
X-87.6Y77.0
X-87.6Y76.0
X-87.6Y73.6
X-87.6Y72.6
X-87.6Y70.0
X-87.6Y69.0
X-87.6Y65.4
X-87.6Y64.4
X-87.6Y61.6
X-87.6Y60.6
X-86.6Y77.0
X-86.6Y76.0
X-86.6Y73.6
X-86.6Y72.6
X-86.6Y70.0
X-86.6Y69.0
X-86.6Y65.4
X-86.6Y64.4
X-86.6Y61.6
X-86.6Y60.6
X-86.0Y40.6
X-86.0Y38.1
X-84.375Y56.55
X-79.5Y95.7
X-75.0Y77.0
X-75.0Y76.0
X-75.0Y73.6
X-75.0Y72.6
X-75.0Y70.0
X-75.0Y69.0
X-75.0Y65.4
X-75.0Y64.4
X-75.0Y61.6
X-75.0Y60.6
X-74.0Y77.0
X-74.0Y76.0
X-74.0Y73.6
X-74.0Y72.6
X-74.0Y70.0
X-74.0Y69.0
X-74.0Y65.4
X-74.0Y64.4
X-74.0Y61.6
X-74.0Y60.6
X-63.4Y37.8
X-63.4Y34.3
X-60.475Y95.7
X-60.0Y77.2
X-60.0Y76.2
X-60.0Y73.8
X-60.0Y72.8
X-60.0Y70.2
X-60.0Y69.2
X-60.0Y65.6
X-60.0Y64.6
X-60.0Y61.8
X-60.0Y60.8
X-59.0Y77.2
X-59.0Y76.2
X-59.0Y73.8
X-59.0Y72.8
X-59.0Y70.2
X-59.0Y69.2
X-59.0Y65.6
X-59.0Y64.6
X-59.0Y61.8
X-59.0Y60.8
X-55.0Y41.1
X-52.2Y77.2
X-52.2Y76.2
X-52.2Y73.8
X-52.2Y72.8
X-52.2Y70.2
X-52.2Y69.2
X-52.2Y65.6
X-52.2Y64.6
X-52.2Y61.8
X-52.2Y60.8
X-51.5Y41.1
X-51.2Y77.2
X-51.2Y76.2
X-51.2Y73.8
X-51.2Y72.8
X-51.2Y70.2
X-51.2Y69.2
X-51.2Y65.6
X-51.2Y64.6
X-51.2Y61.8
X-51.2Y60.8
X-50.375Y56.55
X-45.3Y77.2
X-45.3Y76.2
X-45.3Y73.8
X-45.3Y72.8
X-45.3Y70.2
X-45.3Y69.2
X-44.3Y77.2
X-44.3Y76.2
X-44.3Y73.8
X-44.3Y72.8
X-44.3Y70.2
X-44.3Y69.2
X-41.5Y95.7
X-25.6Y23.7
X-23.05Y17.5
X-22.8Y79.2
X-22.4Y23.7
X-21.183Y39.036
X-20.4Y73.962
X-16.2Y93.73
X-16.2Y90.28
X-16.2Y87.7
X-16.2Y85.2
X-16.2Y82.66
X-16.2Y80.12
X-14.2Y79.2
X-12.0Y100.4
X-11.5Y14.9
X-11.0Y72.0
X-11.0Y71.0
X-10.0Y72.0
X-10.0Y71.0
X-9.3Y-32.6
X-6.7Y78.3
X-5.4Y-32.616
X-4.3Y-18.8
X-2.6Y71.4
X0.0Y71.4
X1.8Y71.4
X3.9Y71.4
X5.6Y71.3
X7.0Y71.2
X7.0Y18.6
X7.589Y3.632
X7.8Y38.0
X9.4Y71.1
X9.419Y53.032
X9.7Y-31.2
X10.6Y-36.9
X11.3Y-21.7
X14.0Y72.0
X14.0Y71.0
X15.0Y72.0
X15.0Y71.0
X15.4Y6.1
X16.4Y-11.5
X17.1Y35.2
X17.1Y34.325
X17.1Y33.5
X18.0Y98.0
X18.0Y97.0
X19.0Y98.0
X19.0Y97.0
X22.5Y35.9
X27.2Y85.9
X30.1Y35.2
X30.1Y34.325
X32.0Y98.0
X32.0Y97.0
X32.1Y85.9
X32.9Y-11.5
X33.0Y98.0
X33.0Y97.0
X33.2Y86.0
X34.2Y86.0
X34.7Y-0.1
X35.9Y-11.5
X36.228Y67.828
X37.3Y56.5
X37.3Y51.1
X40.1Y21.5
X43.0Y89.0
X43.0Y88.0
X43.5Y-8.9
X44.0Y89.0
X44.0Y88.0
X46.9Y23.9
X68.1Y33.6
X68.3Y56.3
X70.9Y22.224
X71.6Y56.3
X72.6Y70.4
X79.9Y23.7
X100.4Y55.0
X103.4Y55.1
X103.6Y21.024
X104.621Y69.179
X104.9Y34.5
X108.3Y98.3
X111.075Y38.15
X111.1Y23.6
T2
X14.16Y94.43
X14.16Y91.89
X14.16Y89.35
X14.16Y86.81
X14.16Y84.27
T3
X69.83Y91.22
X72.33Y91.22
X74.33Y91.22
X76.83Y91.22
T4
X-4.826Y-52.6
X-2.286Y-52.6
X0.254Y-52.6
X2.794Y-52.6
T5
X66.76Y93.93
X79.9Y93.93
M30
