%TF.GenerationSoftware,KiCad,Pcbnew,8.0.4*%
%TF.CreationDate,2024-10-27T13:41:01+07:00*%
%TF.ProjectId,ShinA4,5368696e-4134-42e6-9b69-6361645f7063,rev?*%
%TF.SameCoordinates,Original*%
%TF.FileFunction,Drillmap*%
%TF.FilePolarity,Positive*%
%FSLAX45Y45*%
G04 Gerber Fmt 4.5, Leading zero omitted, Abs format (unit mm)*
G04 Created by KiCad (PCBNEW 8.0.4) date 2024-10-27 13:41:01*
%MOMM*%
%LPD*%
G01*
G04 APERTURE LIST*
%ADD10C,0.200000*%
%ADD11C,0.100000*%
%ADD12C,0.170180*%
%ADD13C,0.300000*%
%ADD14C,0.500000*%
G04 APERTURE END LIST*
D10*
X704000Y8064500D02*
X704000Y10179000D01*
X-14170000Y-10180000D02*
G75*
G02*
X-14350000Y-10000000I0J180000D01*
G01*
X14170000Y10180000D02*
G75*
G02*
X14350000Y10000000I0J-180000D01*
G01*
X8880000Y-4600000D02*
G75*
G02*
X8260000Y-4600000I-310000J0D01*
G01*
X8260000Y-4600000D02*
G75*
G02*
X8880000Y-4600000I310000J0D01*
G01*
X-13060000Y0D02*
G75*
G02*
X-13680000Y0I-310000J0D01*
G01*
X-13680000Y0D02*
G75*
G02*
X-13060000Y0I310000J0D01*
G01*
X14170000Y10180000D02*
X704000Y10179000D01*
X14350000Y-10000000D02*
X14350000Y10000000D01*
X-704000Y8065500D02*
X-704000Y10180000D01*
X-704000Y10180000D02*
X-14170000Y10180000D01*
X3677500Y9200000D02*
G75*
G02*
X3057500Y9200000I-310000J0D01*
G01*
X3057500Y9200000D02*
G75*
G02*
X3677500Y9200000I310000J0D01*
G01*
X-6375000Y-4600000D02*
G75*
G02*
X-6995000Y-4600000I-310000J0D01*
G01*
X-6995000Y-4600000D02*
G75*
G02*
X-6375000Y-4600000I310000J0D01*
G01*
X-13060000Y-9200000D02*
G75*
G02*
X-13680000Y-9200000I-310000J0D01*
G01*
X-13680000Y-9200000D02*
G75*
G02*
X-13060000Y-9200000I310000J0D01*
G01*
X-14350000Y10000000D02*
G75*
G02*
X-14170000Y10180000I180000J0D01*
G01*
X-13060000Y9200000D02*
G75*
G02*
X-13680000Y9200000I-310000J0D01*
G01*
X-13680000Y9200000D02*
G75*
G02*
X-13060000Y9200000I310000J0D01*
G01*
X-1480826Y0D02*
G75*
G02*
X-2100827Y0I-310000J0D01*
G01*
X-2100827Y0D02*
G75*
G02*
X-1480826Y0I310000J0D01*
G01*
X310000Y-9200000D02*
G75*
G02*
X-310000Y-9200000I-310000J0D01*
G01*
X-310000Y-9200000D02*
G75*
G02*
X310000Y-9200000I310000J0D01*
G01*
X13680000Y0D02*
G75*
G02*
X13060000Y0I-310000J0D01*
G01*
X13060000Y0D02*
G75*
G02*
X13680000Y0I310000J0D01*
G01*
X13680000Y9200000D02*
G75*
G02*
X13060000Y9200000I-310000J0D01*
G01*
X13060000Y9200000D02*
G75*
G02*
X13680000Y9200000I310000J0D01*
G01*
X-6375000Y7305000D02*
G75*
G02*
X-6995000Y7305000I-310000J0D01*
G01*
X-6995000Y7305000D02*
G75*
G02*
X-6375000Y7305000I310000J0D01*
G01*
X-704000Y8065500D02*
X704000Y8064500D01*
X13680000Y-9200000D02*
G75*
G02*
X13060000Y-9200000I-310000J0D01*
G01*
X13060000Y-9200000D02*
G75*
G02*
X13680000Y-9200000I310000J0D01*
G01*
X-14350000Y10000000D02*
X-14350000Y-10000000D01*
X-14170000Y-10180000D02*
X14170000Y-10180000D01*
X14350000Y-10000000D02*
G75*
G02*
X14170000Y-10180000I-180000J0D01*
G01*
X6229269Y4487011D02*
G75*
G02*
X5609269Y4487011I-310000J0D01*
G01*
X5609269Y4487011D02*
G75*
G02*
X6229269Y4487011I310000J0D01*
G01*
D11*
X-4890000Y4345000D02*
X-4890000Y4035000D01*
X-4890000Y4035000D02*
X-4530000Y4035000D01*
X-4530000Y4345000D02*
X-4890000Y4345000D01*
X-4530000Y4035000D02*
X-4530000Y4345000D01*
X858900Y693200D02*
X858900Y383200D01*
X858900Y383200D02*
X1218900Y383200D01*
X1218900Y693200D02*
X858900Y693200D01*
X1218900Y383200D02*
X1218900Y693200D01*
X3989600Y5872800D02*
X3989600Y5562800D01*
X3989600Y5562800D02*
X4349600Y5562800D01*
X4349600Y5872800D02*
X3989600Y5872800D01*
X4349600Y5562800D02*
X4349600Y5872800D01*
X-8290000Y4345000D02*
X-8290000Y4035000D01*
X-8290000Y4035000D02*
X-7930000Y4035000D01*
X-7930000Y4345000D02*
X-8290000Y4345000D01*
X-7930000Y4035000D02*
X-7930000Y4345000D01*
X-281600Y-3036600D02*
X-281600Y-3346600D01*
X-281600Y-3346600D02*
X78400Y-3346600D01*
X78400Y-3036600D02*
X-281600Y-3036600D01*
X78400Y-3346600D02*
X78400Y-3036600D01*
X7409600Y5852400D02*
X7409600Y5542400D01*
X7409600Y5542400D02*
X7769600Y5542400D01*
X7769600Y5852400D02*
X7409600Y5852400D01*
X7769600Y5542400D02*
X7769600Y5852400D01*
X-11460000Y3095000D02*
X-11460000Y2785000D01*
X-11460000Y2785000D02*
X-11100000Y2785000D01*
X-11100000Y3095000D02*
X-11460000Y3095000D01*
X-11100000Y2785000D02*
X-11100000Y3095000D01*
X10639600Y2332400D02*
X10639600Y2022400D01*
X10639600Y2022400D02*
X10999600Y2022400D01*
X10999600Y2332400D02*
X10639600Y2332400D01*
X10999600Y2022400D02*
X10999600Y2332400D01*
X7369100Y2452400D02*
X7369100Y2142400D01*
X7369100Y2142400D02*
X7729100Y2142400D01*
X7729100Y2452400D02*
X7369100Y2452400D01*
X7729100Y2142400D02*
X7729100Y2452400D01*
X4089100Y2472800D02*
X4089100Y2162800D01*
X4089100Y2162800D02*
X4449100Y2162800D01*
X4449100Y2472800D02*
X4089100Y2472800D01*
X4449100Y2162800D02*
X4449100Y2472800D01*
X10609600Y5732400D02*
X10609600Y5422400D01*
X10609600Y5422400D02*
X10969600Y5422400D01*
X10969600Y5732400D02*
X10609600Y5732400D01*
X10969600Y5422400D02*
X10969600Y5732400D01*
X-1970800Y2593600D02*
X-1970800Y2283600D01*
X-1970800Y2283600D02*
X-1610800Y2283600D01*
X-1610800Y2593600D02*
X-1970800Y2593600D01*
X-1610800Y2283600D02*
X-1610800Y2593600D01*
X1089400Y4093200D02*
X1089400Y3783200D01*
X1089400Y3783200D02*
X1449400Y3783200D01*
X1449400Y4093200D02*
X1089400Y4093200D01*
X1449400Y3783200D02*
X1449400Y4093200D01*
X3847900Y-927200D02*
X3847900Y-1237200D01*
X3847900Y-1237200D02*
X4207900Y-1237200D01*
X4207900Y-927200D02*
X3847900Y-927200D01*
X4207900Y-1237200D02*
X4207900Y-927200D01*
D10*
D11*
X-11991530Y8879530D02*
X-11892470Y8780470D01*
X-11892470Y8879530D02*
X-11991530Y8780470D01*
X-11851530Y3039530D02*
X-11752470Y2940470D01*
X-11752470Y3039530D02*
X-11851530Y2940470D01*
X-10091530Y8879530D02*
X-9992470Y8780470D01*
X-9992470Y8879530D02*
X-10091530Y8780470D01*
X-8681530Y4289530D02*
X-8582470Y4190470D01*
X-8582470Y4289530D02*
X-8681530Y4190470D01*
X-8191530Y8879530D02*
X-8092470Y8780470D01*
X-8092470Y8879530D02*
X-8191530Y8780470D01*
X-6291530Y8879530D02*
X-6192470Y8780470D01*
X-6192470Y8879530D02*
X-6291530Y8780470D01*
X-5281530Y4289530D02*
X-5182470Y4190470D01*
X-5182470Y4289530D02*
X-5281530Y4190470D01*
X-4391530Y8879530D02*
X-4292470Y8780470D01*
X-4292470Y8879530D02*
X-4391530Y8780470D01*
X-2362330Y2538130D02*
X-2263270Y2439070D01*
X-2263270Y2538130D02*
X-2362330Y2439070D01*
X-673130Y-3092070D02*
X-574070Y-3191130D01*
X-574070Y-3092070D02*
X-673130Y-3191130D01*
X467370Y637730D02*
X566430Y538670D01*
X566430Y637730D02*
X467370Y538670D01*
X697870Y4037730D02*
X796930Y3938670D01*
X796930Y4037730D02*
X697870Y3938670D01*
X3456370Y-982670D02*
X3555430Y-1081730D01*
X3555430Y-982670D02*
X3456370Y-1081730D01*
X3598070Y5817330D02*
X3697130Y5718270D01*
X3697130Y5817330D02*
X3598070Y5718270D01*
X3697570Y2417330D02*
X3796630Y2318270D01*
X3796630Y2417330D02*
X3697570Y2318270D01*
X6977570Y2396930D02*
X7076630Y2297870D01*
X7076630Y2396930D02*
X6977570Y2297870D01*
X7018070Y5796930D02*
X7117130Y5697870D01*
X7117130Y5796930D02*
X7018070Y5697870D01*
X10218070Y5676930D02*
X10317130Y5577870D01*
X10317130Y5676930D02*
X10218070Y5577870D01*
X10248070Y2276930D02*
X10347130Y2177870D01*
X10347130Y2276930D02*
X10248070Y2177870D01*
X10848470Y8879530D02*
X10947530Y8780470D01*
X10947530Y8879530D02*
X10848470Y8780470D01*
D12*
X-11884910Y9250000D02*
G75*
G02*
X-12055090Y9250000I-85090J0D01*
G01*
X-12055090Y9250000D02*
G75*
G02*
X-11884910Y9250000I85090J0D01*
G01*
X-11744910Y3410000D02*
G75*
G02*
X-11915090Y3410000I-85090J0D01*
G01*
X-11915090Y3410000D02*
G75*
G02*
X-11744910Y3410000I85090J0D01*
G01*
X-10784910Y9250000D02*
G75*
G02*
X-10955090Y9250000I-85090J0D01*
G01*
X-10955090Y9250000D02*
G75*
G02*
X-10784910Y9250000I85090J0D01*
G01*
X-10644910Y3410000D02*
G75*
G02*
X-10815090Y3410000I-85090J0D01*
G01*
X-10815090Y3410000D02*
G75*
G02*
X-10644910Y3410000I85090J0D01*
G01*
X-9984910Y9250000D02*
G75*
G02*
X-10155090Y9250000I-85090J0D01*
G01*
X-10155090Y9250000D02*
G75*
G02*
X-9984910Y9250000I85090J0D01*
G01*
X-8884910Y9250000D02*
G75*
G02*
X-9055090Y9250000I-85090J0D01*
G01*
X-9055090Y9250000D02*
G75*
G02*
X-8884910Y9250000I85090J0D01*
G01*
X-8574910Y4660000D02*
G75*
G02*
X-8745090Y4660000I-85090J0D01*
G01*
X-8745090Y4660000D02*
G75*
G02*
X-8574910Y4660000I85090J0D01*
G01*
X-8084910Y9250000D02*
G75*
G02*
X-8255090Y9250000I-85090J0D01*
G01*
X-8255090Y9250000D02*
G75*
G02*
X-8084910Y9250000I85090J0D01*
G01*
X-7474910Y4660000D02*
G75*
G02*
X-7645090Y4660000I-85090J0D01*
G01*
X-7645090Y4660000D02*
G75*
G02*
X-7474910Y4660000I85090J0D01*
G01*
X-6984910Y9250000D02*
G75*
G02*
X-7155090Y9250000I-85090J0D01*
G01*
X-7155090Y9250000D02*
G75*
G02*
X-6984910Y9250000I85090J0D01*
G01*
X-6184910Y9250000D02*
G75*
G02*
X-6355090Y9250000I-85090J0D01*
G01*
X-6355090Y9250000D02*
G75*
G02*
X-6184910Y9250000I85090J0D01*
G01*
X-5174910Y4660000D02*
G75*
G02*
X-5345090Y4660000I-85090J0D01*
G01*
X-5345090Y4660000D02*
G75*
G02*
X-5174910Y4660000I85090J0D01*
G01*
X-5084910Y9250000D02*
G75*
G02*
X-5255090Y9250000I-85090J0D01*
G01*
X-5255090Y9250000D02*
G75*
G02*
X-5084910Y9250000I85090J0D01*
G01*
X-4284910Y9250000D02*
G75*
G02*
X-4455090Y9250000I-85090J0D01*
G01*
X-4455090Y9250000D02*
G75*
G02*
X-4284910Y9250000I85090J0D01*
G01*
X-4074910Y4660000D02*
G75*
G02*
X-4245090Y4660000I-85090J0D01*
G01*
X-4245090Y4660000D02*
G75*
G02*
X-4074910Y4660000I85090J0D01*
G01*
X-3184910Y9250000D02*
G75*
G02*
X-3355090Y9250000I-85090J0D01*
G01*
X-3355090Y9250000D02*
G75*
G02*
X-3184910Y9250000I85090J0D01*
G01*
X-2255710Y2908600D02*
G75*
G02*
X-2425890Y2908600I-85090J0D01*
G01*
X-2425890Y2908600D02*
G75*
G02*
X-2255710Y2908600I85090J0D01*
G01*
X-1155710Y2908600D02*
G75*
G02*
X-1325890Y2908600I-85090J0D01*
G01*
X-1325890Y2908600D02*
G75*
G02*
X-1155710Y2908600I85090J0D01*
G01*
X-566510Y-2721600D02*
G75*
G02*
X-736690Y-2721600I-85090J0D01*
G01*
X-736690Y-2721600D02*
G75*
G02*
X-566510Y-2721600I85090J0D01*
G01*
X533490Y-2721600D02*
G75*
G02*
X363310Y-2721600I-85090J0D01*
G01*
X363310Y-2721600D02*
G75*
G02*
X533490Y-2721600I85090J0D01*
G01*
X573990Y1008200D02*
G75*
G02*
X403810Y1008200I-85090J0D01*
G01*
X403810Y1008200D02*
G75*
G02*
X573990Y1008200I85090J0D01*
G01*
X804490Y4408200D02*
G75*
G02*
X634310Y4408200I-85090J0D01*
G01*
X634310Y4408200D02*
G75*
G02*
X804490Y4408200I85090J0D01*
G01*
X1673990Y1008200D02*
G75*
G02*
X1503810Y1008200I-85090J0D01*
G01*
X1503810Y1008200D02*
G75*
G02*
X1673990Y1008200I85090J0D01*
G01*
X1904490Y4408200D02*
G75*
G02*
X1734310Y4408200I-85090J0D01*
G01*
X1734310Y4408200D02*
G75*
G02*
X1904490Y4408200I85090J0D01*
G01*
X3562990Y-612200D02*
G75*
G02*
X3392810Y-612200I-85090J0D01*
G01*
X3392810Y-612200D02*
G75*
G02*
X3562990Y-612200I85090J0D01*
G01*
X3704690Y6187800D02*
G75*
G02*
X3534510Y6187800I-85090J0D01*
G01*
X3534510Y6187800D02*
G75*
G02*
X3704690Y6187800I85090J0D01*
G01*
X3804190Y2787800D02*
G75*
G02*
X3634010Y2787800I-85090J0D01*
G01*
X3634010Y2787800D02*
G75*
G02*
X3804190Y2787800I85090J0D01*
G01*
X4662990Y-612200D02*
G75*
G02*
X4492810Y-612200I-85090J0D01*
G01*
X4492810Y-612200D02*
G75*
G02*
X4662990Y-612200I85090J0D01*
G01*
X4804690Y6187800D02*
G75*
G02*
X4634510Y6187800I-85090J0D01*
G01*
X4634510Y6187800D02*
G75*
G02*
X4804690Y6187800I85090J0D01*
G01*
X4904190Y2787800D02*
G75*
G02*
X4734010Y2787800I-85090J0D01*
G01*
X4734010Y2787800D02*
G75*
G02*
X4904190Y2787800I85090J0D01*
G01*
X7084190Y2767400D02*
G75*
G02*
X6914010Y2767400I-85090J0D01*
G01*
X6914010Y2767400D02*
G75*
G02*
X7084190Y2767400I85090J0D01*
G01*
X7124690Y6167400D02*
G75*
G02*
X6954510Y6167400I-85090J0D01*
G01*
X6954510Y6167400D02*
G75*
G02*
X7124690Y6167400I85090J0D01*
G01*
X8184190Y2767400D02*
G75*
G02*
X8014010Y2767400I-85090J0D01*
G01*
X8014010Y2767400D02*
G75*
G02*
X8184190Y2767400I85090J0D01*
G01*
X8224690Y6167400D02*
G75*
G02*
X8054510Y6167400I-85090J0D01*
G01*
X8054510Y6167400D02*
G75*
G02*
X8224690Y6167400I85090J0D01*
G01*
X10324690Y6047400D02*
G75*
G02*
X10154510Y6047400I-85090J0D01*
G01*
X10154510Y6047400D02*
G75*
G02*
X10324690Y6047400I85090J0D01*
G01*
X10354690Y2647400D02*
G75*
G02*
X10184510Y2647400I-85090J0D01*
G01*
X10184510Y2647400D02*
G75*
G02*
X10354690Y2647400I85090J0D01*
G01*
X10955090Y9250000D02*
G75*
G02*
X10784910Y9250000I-85090J0D01*
G01*
X10784910Y9250000D02*
G75*
G02*
X10955090Y9250000I85090J0D01*
G01*
X11424690Y6047400D02*
G75*
G02*
X11254510Y6047400I-85090J0D01*
G01*
X11254510Y6047400D02*
G75*
G02*
X11424690Y6047400I85090J0D01*
G01*
X11454690Y2647400D02*
G75*
G02*
X11284510Y2647400I-85090J0D01*
G01*
X11284510Y2647400D02*
G75*
G02*
X11454690Y2647400I85090J0D01*
G01*
X12055090Y9250000D02*
G75*
G02*
X11884910Y9250000I-85090J0D01*
G01*
X11884910Y9250000D02*
G75*
G02*
X12055090Y9250000I85090J0D01*
G01*
D13*
X-11420000Y9995000D02*
X-11420000Y9695000D01*
X-11570000Y9845000D02*
X-11270000Y9845000D01*
X-11280000Y4155000D02*
X-11280000Y3855000D01*
X-11430000Y4005000D02*
X-11130000Y4005000D01*
X-10920000Y9775000D02*
X-10920000Y9475000D01*
X-11070000Y9625000D02*
X-10770000Y9625000D01*
X-10780000Y3935000D02*
X-10780000Y3635000D01*
X-10930000Y3785000D02*
X-10630000Y3785000D01*
X-9520000Y9995000D02*
X-9520000Y9695000D01*
X-9670000Y9845000D02*
X-9370000Y9845000D01*
X-9020000Y9775000D02*
X-9020000Y9475000D01*
X-9170000Y9625000D02*
X-8870000Y9625000D01*
X-8110000Y5405000D02*
X-8110000Y5105000D01*
X-8260000Y5255000D02*
X-7960000Y5255000D01*
X-7620000Y9995000D02*
X-7620000Y9695000D01*
X-7770000Y9845000D02*
X-7470000Y9845000D01*
X-7610000Y5185000D02*
X-7610000Y4885000D01*
X-7760000Y5035000D02*
X-7460000Y5035000D01*
X-7120000Y9775000D02*
X-7120000Y9475000D01*
X-7270000Y9625000D02*
X-6970000Y9625000D01*
X-5720000Y9995000D02*
X-5720000Y9695000D01*
X-5870000Y9845000D02*
X-5570000Y9845000D01*
X-5220000Y9775000D02*
X-5220000Y9475000D01*
X-5370000Y9625000D02*
X-5070000Y9625000D01*
X-4710000Y5405000D02*
X-4710000Y5105000D01*
X-4860000Y5255000D02*
X-4560000Y5255000D01*
X-4210000Y5185000D02*
X-4210000Y4885000D01*
X-4360000Y5035000D02*
X-4060000Y5035000D01*
X-3820000Y9995000D02*
X-3820000Y9695000D01*
X-3970000Y9845000D02*
X-3670000Y9845000D01*
X-3320000Y9775000D02*
X-3320000Y9475000D01*
X-3470000Y9625000D02*
X-3170000Y9625000D01*
X-1790800Y3653600D02*
X-1790800Y3353600D01*
X-1940800Y3503600D02*
X-1640800Y3503600D01*
X-1290800Y3433600D02*
X-1290800Y3133600D01*
X-1440800Y3283600D02*
X-1140800Y3283600D01*
X-101600Y-1976600D02*
X-101600Y-2276600D01*
X-251600Y-2126600D02*
X48400Y-2126600D01*
X398400Y-2196600D02*
X398400Y-2496600D01*
X248400Y-2346600D02*
X548400Y-2346600D01*
X1038900Y1753200D02*
X1038900Y1453200D01*
X888900Y1603200D02*
X1188900Y1603200D01*
X1269400Y5153200D02*
X1269400Y4853200D01*
X1119400Y5003200D02*
X1419400Y5003200D01*
X1538900Y1533200D02*
X1538900Y1233200D01*
X1388900Y1383200D02*
X1688900Y1383200D01*
X1769400Y4933200D02*
X1769400Y4633200D01*
X1619400Y4783200D02*
X1919400Y4783200D01*
X4027900Y132800D02*
X4027900Y-167200D01*
X3877900Y-17200D02*
X4177900Y-17200D01*
X4169600Y6932800D02*
X4169600Y6632800D01*
X4019600Y6782800D02*
X4319600Y6782800D01*
X4269100Y3532800D02*
X4269100Y3232800D01*
X4119100Y3382800D02*
X4419100Y3382800D01*
X4527900Y-87200D02*
X4527900Y-387200D01*
X4377900Y-237200D02*
X4677900Y-237200D01*
X4669600Y6712800D02*
X4669600Y6412800D01*
X4519600Y6562800D02*
X4819600Y6562800D01*
X4769100Y3312800D02*
X4769100Y3012800D01*
X4619100Y3162800D02*
X4919100Y3162800D01*
X7549100Y3512400D02*
X7549100Y3212400D01*
X7399100Y3362400D02*
X7699100Y3362400D01*
X7589600Y6912400D02*
X7589600Y6612400D01*
X7439600Y6762400D02*
X7739600Y6762400D01*
X8049100Y3292400D02*
X8049100Y2992400D01*
X7899100Y3142400D02*
X8199100Y3142400D01*
X8089600Y6692400D02*
X8089600Y6392400D01*
X7939600Y6542400D02*
X8239600Y6542400D01*
X10789600Y6792400D02*
X10789600Y6492400D01*
X10639600Y6642400D02*
X10939600Y6642400D01*
X10819600Y3392400D02*
X10819600Y3092400D01*
X10669600Y3242400D02*
X10969600Y3242400D01*
X11289600Y6572400D02*
X11289600Y6272400D01*
X11139600Y6422400D02*
X11439600Y6422400D01*
X11319600Y3172400D02*
X11319600Y2872400D01*
X11169600Y3022400D02*
X11469600Y3022400D01*
X11420000Y9995000D02*
X11420000Y9695000D01*
X11270000Y9845000D02*
X11570000Y9845000D01*
X11920000Y9775000D02*
X11920000Y9475000D01*
X11770000Y9625000D02*
X12070000Y9625000D01*
D14*
X-11243222Y9073222D02*
X-11243222Y9426778D01*
X-11596778Y9426778D01*
X-11596778Y9073222D01*
X-11243222Y9073222D01*
X-11103222Y3233222D02*
X-11103222Y3586778D01*
X-11456778Y3586778D01*
X-11456778Y3233222D01*
X-11103222Y3233222D01*
X-9343222Y9073222D02*
X-9343222Y9426778D01*
X-9696778Y9426778D01*
X-9696778Y9073222D01*
X-9343222Y9073222D01*
X-7933222Y4483222D02*
X-7933222Y4836778D01*
X-8286778Y4836778D01*
X-8286778Y4483222D01*
X-7933222Y4483222D01*
X-7443222Y9073222D02*
X-7443222Y9426778D01*
X-7796778Y9426778D01*
X-7796778Y9073222D01*
X-7443222Y9073222D01*
X-5543222Y9073222D02*
X-5543222Y9426778D01*
X-5896778Y9426778D01*
X-5896778Y9073222D01*
X-5543222Y9073222D01*
X-4533222Y4483222D02*
X-4533222Y4836778D01*
X-4886778Y4836778D01*
X-4886778Y4483222D01*
X-4533222Y4483222D01*
X-3643222Y9073222D02*
X-3643222Y9426778D01*
X-3996778Y9426778D01*
X-3996778Y9073222D01*
X-3643222Y9073222D01*
X-1614022Y2731822D02*
X-1614022Y3085378D01*
X-1967578Y3085378D01*
X-1967578Y2731822D01*
X-1614022Y2731822D01*
X75178Y-2898378D02*
X75178Y-2544822D01*
X-278378Y-2544822D01*
X-278378Y-2898378D01*
X75178Y-2898378D01*
X1215678Y831422D02*
X1215678Y1184978D01*
X862122Y1184978D01*
X862122Y831422D01*
X1215678Y831422D01*
X1446178Y4231422D02*
X1446178Y4584978D01*
X1092622Y4584978D01*
X1092622Y4231422D01*
X1446178Y4231422D01*
X4204678Y-788978D02*
X4204678Y-435422D01*
X3851122Y-435422D01*
X3851122Y-788978D01*
X4204678Y-788978D01*
X4346378Y6011022D02*
X4346378Y6364578D01*
X3992822Y6364578D01*
X3992822Y6011022D01*
X4346378Y6011022D01*
X4445878Y2611022D02*
X4445878Y2964578D01*
X4092322Y2964578D01*
X4092322Y2611022D01*
X4445878Y2611022D01*
X7725878Y2590622D02*
X7725878Y2944178D01*
X7372322Y2944178D01*
X7372322Y2590622D01*
X7725878Y2590622D01*
X7766378Y5990622D02*
X7766378Y6344178D01*
X7412822Y6344178D01*
X7412822Y5990622D01*
X7766378Y5990622D01*
X10966378Y5870622D02*
X10966378Y6224178D01*
X10612822Y6224178D01*
X10612822Y5870622D01*
X10966378Y5870622D01*
X10996378Y2470622D02*
X10996378Y2824178D01*
X10642822Y2824178D01*
X10642822Y2470622D01*
X10996378Y2470622D01*
X11596778Y9073222D02*
X11596778Y9426778D01*
X11243222Y9426778D01*
X11243222Y9073222D01*
X11596778Y9073222D01*
D10*
X-14099223Y-10501484D02*
X-14099223Y-10301484D01*
X-14099223Y-10301484D02*
X-14051604Y-10301484D01*
X-14051604Y-10301484D02*
X-14023033Y-10311008D01*
X-14023033Y-10311008D02*
X-14003985Y-10330055D01*
X-14003985Y-10330055D02*
X-13994461Y-10349103D01*
X-13994461Y-10349103D02*
X-13984937Y-10387198D01*
X-13984937Y-10387198D02*
X-13984937Y-10415770D01*
X-13984937Y-10415770D02*
X-13994461Y-10453865D01*
X-13994461Y-10453865D02*
X-14003985Y-10472912D01*
X-14003985Y-10472912D02*
X-14023033Y-10491960D01*
X-14023033Y-10491960D02*
X-14051604Y-10501484D01*
X-14051604Y-10501484D02*
X-14099223Y-10501484D01*
X-13899223Y-10501484D02*
X-13899223Y-10368150D01*
X-13899223Y-10406246D02*
X-13889699Y-10387198D01*
X-13889699Y-10387198D02*
X-13880175Y-10377674D01*
X-13880175Y-10377674D02*
X-13861128Y-10368150D01*
X-13861128Y-10368150D02*
X-13842080Y-10368150D01*
X-13775414Y-10501484D02*
X-13775414Y-10368150D01*
X-13775414Y-10301484D02*
X-13784937Y-10311008D01*
X-13784937Y-10311008D02*
X-13775414Y-10320531D01*
X-13775414Y-10320531D02*
X-13765890Y-10311008D01*
X-13765890Y-10311008D02*
X-13775414Y-10301484D01*
X-13775414Y-10301484D02*
X-13775414Y-10320531D01*
X-13651604Y-10501484D02*
X-13670652Y-10491960D01*
X-13670652Y-10491960D02*
X-13680175Y-10472912D01*
X-13680175Y-10472912D02*
X-13680175Y-10301484D01*
X-13546842Y-10501484D02*
X-13565890Y-10491960D01*
X-13565890Y-10491960D02*
X-13575414Y-10472912D01*
X-13575414Y-10472912D02*
X-13575414Y-10301484D01*
X-13318271Y-10501484D02*
X-13318271Y-10301484D01*
X-13318271Y-10301484D02*
X-13251604Y-10444341D01*
X-13251604Y-10444341D02*
X-13184937Y-10301484D01*
X-13184937Y-10301484D02*
X-13184937Y-10501484D01*
X-13003985Y-10501484D02*
X-13003985Y-10396722D01*
X-13003985Y-10396722D02*
X-13013509Y-10377674D01*
X-13013509Y-10377674D02*
X-13032556Y-10368150D01*
X-13032556Y-10368150D02*
X-13070652Y-10368150D01*
X-13070652Y-10368150D02*
X-13089699Y-10377674D01*
X-13003985Y-10491960D02*
X-13023033Y-10501484D01*
X-13023033Y-10501484D02*
X-13070652Y-10501484D01*
X-13070652Y-10501484D02*
X-13089699Y-10491960D01*
X-13089699Y-10491960D02*
X-13099223Y-10472912D01*
X-13099223Y-10472912D02*
X-13099223Y-10453865D01*
X-13099223Y-10453865D02*
X-13089699Y-10434817D01*
X-13089699Y-10434817D02*
X-13070652Y-10425293D01*
X-13070652Y-10425293D02*
X-13023033Y-10425293D01*
X-13023033Y-10425293D02*
X-13003985Y-10415770D01*
X-12908747Y-10368150D02*
X-12908747Y-10568150D01*
X-12908747Y-10377674D02*
X-12889699Y-10368150D01*
X-12889699Y-10368150D02*
X-12851604Y-10368150D01*
X-12851604Y-10368150D02*
X-12832556Y-10377674D01*
X-12832556Y-10377674D02*
X-12823033Y-10387198D01*
X-12823033Y-10387198D02*
X-12813509Y-10406246D01*
X-12813509Y-10406246D02*
X-12813509Y-10463389D01*
X-12813509Y-10463389D02*
X-12823033Y-10482436D01*
X-12823033Y-10482436D02*
X-12832556Y-10491960D01*
X-12832556Y-10491960D02*
X-12851604Y-10501484D01*
X-12851604Y-10501484D02*
X-12889699Y-10501484D01*
X-12889699Y-10501484D02*
X-12908747Y-10491960D01*
X-12727794Y-10482436D02*
X-12718271Y-10491960D01*
X-12718271Y-10491960D02*
X-12727794Y-10501484D01*
X-12727794Y-10501484D02*
X-12737318Y-10491960D01*
X-12737318Y-10491960D02*
X-12727794Y-10482436D01*
X-12727794Y-10482436D02*
X-12727794Y-10501484D01*
X-12727794Y-10377674D02*
X-12718271Y-10387198D01*
X-12718271Y-10387198D02*
X-12727794Y-10396722D01*
X-12727794Y-10396722D02*
X-12737318Y-10387198D01*
X-12737318Y-10387198D02*
X-12727794Y-10377674D01*
X-12727794Y-10377674D02*
X-12727794Y-10396722D01*
D11*
X-14459060Y-10780470D02*
X-14360000Y-10879530D01*
X-14360000Y-10780470D02*
X-14459060Y-10879530D01*
D10*
X-14061128Y-10721484D02*
X-14042080Y-10721484D01*
X-14042080Y-10721484D02*
X-14023033Y-10731008D01*
X-14023033Y-10731008D02*
X-14013509Y-10740531D01*
X-14013509Y-10740531D02*
X-14003985Y-10759579D01*
X-14003985Y-10759579D02*
X-13994461Y-10797674D01*
X-13994461Y-10797674D02*
X-13994461Y-10845293D01*
X-13994461Y-10845293D02*
X-14003985Y-10883389D01*
X-14003985Y-10883389D02*
X-14013509Y-10902436D01*
X-14013509Y-10902436D02*
X-14023033Y-10911960D01*
X-14023033Y-10911960D02*
X-14042080Y-10921484D01*
X-14042080Y-10921484D02*
X-14061128Y-10921484D01*
X-14061128Y-10921484D02*
X-14080175Y-10911960D01*
X-14080175Y-10911960D02*
X-14089699Y-10902436D01*
X-14089699Y-10902436D02*
X-14099223Y-10883389D01*
X-14099223Y-10883389D02*
X-14108747Y-10845293D01*
X-14108747Y-10845293D02*
X-14108747Y-10797674D01*
X-14108747Y-10797674D02*
X-14099223Y-10759579D01*
X-14099223Y-10759579D02*
X-14089699Y-10740531D01*
X-14089699Y-10740531D02*
X-14080175Y-10731008D01*
X-14080175Y-10731008D02*
X-14061128Y-10721484D01*
X-13908747Y-10902436D02*
X-13899223Y-10911960D01*
X-13899223Y-10911960D02*
X-13908747Y-10921484D01*
X-13908747Y-10921484D02*
X-13918271Y-10911960D01*
X-13918271Y-10911960D02*
X-13908747Y-10902436D01*
X-13908747Y-10902436D02*
X-13908747Y-10921484D01*
X-13803985Y-10921484D02*
X-13765890Y-10921484D01*
X-13765890Y-10921484D02*
X-13746842Y-10911960D01*
X-13746842Y-10911960D02*
X-13737318Y-10902436D01*
X-13737318Y-10902436D02*
X-13718271Y-10873865D01*
X-13718271Y-10873865D02*
X-13708747Y-10835770D01*
X-13708747Y-10835770D02*
X-13708747Y-10759579D01*
X-13708747Y-10759579D02*
X-13718271Y-10740531D01*
X-13718271Y-10740531D02*
X-13727794Y-10731008D01*
X-13727794Y-10731008D02*
X-13746842Y-10721484D01*
X-13746842Y-10721484D02*
X-13784937Y-10721484D01*
X-13784937Y-10721484D02*
X-13803985Y-10731008D01*
X-13803985Y-10731008D02*
X-13813509Y-10740531D01*
X-13813509Y-10740531D02*
X-13823033Y-10759579D01*
X-13823033Y-10759579D02*
X-13823033Y-10807198D01*
X-13823033Y-10807198D02*
X-13813509Y-10826246D01*
X-13813509Y-10826246D02*
X-13803985Y-10835770D01*
X-13803985Y-10835770D02*
X-13784937Y-10845293D01*
X-13784937Y-10845293D02*
X-13746842Y-10845293D01*
X-13746842Y-10845293D02*
X-13727794Y-10835770D01*
X-13727794Y-10835770D02*
X-13718271Y-10826246D01*
X-13718271Y-10826246D02*
X-13708747Y-10807198D01*
X-13613509Y-10921484D02*
X-13575414Y-10921484D01*
X-13575414Y-10921484D02*
X-13556366Y-10911960D01*
X-13556366Y-10911960D02*
X-13546842Y-10902436D01*
X-13546842Y-10902436D02*
X-13527794Y-10873865D01*
X-13527794Y-10873865D02*
X-13518271Y-10835770D01*
X-13518271Y-10835770D02*
X-13518271Y-10759579D01*
X-13518271Y-10759579D02*
X-13527794Y-10740531D01*
X-13527794Y-10740531D02*
X-13537318Y-10731008D01*
X-13537318Y-10731008D02*
X-13556366Y-10721484D01*
X-13556366Y-10721484D02*
X-13594461Y-10721484D01*
X-13594461Y-10721484D02*
X-13613509Y-10731008D01*
X-13613509Y-10731008D02*
X-13623033Y-10740531D01*
X-13623033Y-10740531D02*
X-13632556Y-10759579D01*
X-13632556Y-10759579D02*
X-13632556Y-10807198D01*
X-13632556Y-10807198D02*
X-13623033Y-10826246D01*
X-13623033Y-10826246D02*
X-13613509Y-10835770D01*
X-13613509Y-10835770D02*
X-13594461Y-10845293D01*
X-13594461Y-10845293D02*
X-13556366Y-10845293D01*
X-13556366Y-10845293D02*
X-13537318Y-10835770D01*
X-13537318Y-10835770D02*
X-13527794Y-10826246D01*
X-13527794Y-10826246D02*
X-13518271Y-10807198D01*
X-13327794Y-10921484D02*
X-13442080Y-10921484D01*
X-13384937Y-10921484D02*
X-13384937Y-10721484D01*
X-13384937Y-10721484D02*
X-13403985Y-10750055D01*
X-13403985Y-10750055D02*
X-13423033Y-10769103D01*
X-13423033Y-10769103D02*
X-13442080Y-10778627D01*
X-13242080Y-10921484D02*
X-13242080Y-10788150D01*
X-13242080Y-10807198D02*
X-13232556Y-10797674D01*
X-13232556Y-10797674D02*
X-13213509Y-10788150D01*
X-13213509Y-10788150D02*
X-13184937Y-10788150D01*
X-13184937Y-10788150D02*
X-13165890Y-10797674D01*
X-13165890Y-10797674D02*
X-13156366Y-10816722D01*
X-13156366Y-10816722D02*
X-13156366Y-10921484D01*
X-13156366Y-10816722D02*
X-13146842Y-10797674D01*
X-13146842Y-10797674D02*
X-13127794Y-10788150D01*
X-13127794Y-10788150D02*
X-13099223Y-10788150D01*
X-13099223Y-10788150D02*
X-13080175Y-10797674D01*
X-13080175Y-10797674D02*
X-13070652Y-10816722D01*
X-13070652Y-10816722D02*
X-13070652Y-10921484D01*
X-12975413Y-10921484D02*
X-12975413Y-10788150D01*
X-12975413Y-10807198D02*
X-12965890Y-10797674D01*
X-12965890Y-10797674D02*
X-12946842Y-10788150D01*
X-12946842Y-10788150D02*
X-12918271Y-10788150D01*
X-12918271Y-10788150D02*
X-12899223Y-10797674D01*
X-12899223Y-10797674D02*
X-12889699Y-10816722D01*
X-12889699Y-10816722D02*
X-12889699Y-10921484D01*
X-12889699Y-10816722D02*
X-12880175Y-10797674D01*
X-12880175Y-10797674D02*
X-12861128Y-10788150D01*
X-12861128Y-10788150D02*
X-12832556Y-10788150D01*
X-12832556Y-10788150D02*
X-12813509Y-10797674D01*
X-12813509Y-10797674D02*
X-12803985Y-10816722D01*
X-12803985Y-10816722D02*
X-12803985Y-10921484D01*
X-12413509Y-10711960D02*
X-12584937Y-10969103D01*
X-12156366Y-10721484D02*
X-12137318Y-10721484D01*
X-12137318Y-10721484D02*
X-12118270Y-10731008D01*
X-12118270Y-10731008D02*
X-12108747Y-10740531D01*
X-12108747Y-10740531D02*
X-12099223Y-10759579D01*
X-12099223Y-10759579D02*
X-12089699Y-10797674D01*
X-12089699Y-10797674D02*
X-12089699Y-10845293D01*
X-12089699Y-10845293D02*
X-12099223Y-10883389D01*
X-12099223Y-10883389D02*
X-12108747Y-10902436D01*
X-12108747Y-10902436D02*
X-12118270Y-10911960D01*
X-12118270Y-10911960D02*
X-12137318Y-10921484D01*
X-12137318Y-10921484D02*
X-12156366Y-10921484D01*
X-12156366Y-10921484D02*
X-12175413Y-10911960D01*
X-12175413Y-10911960D02*
X-12184937Y-10902436D01*
X-12184937Y-10902436D02*
X-12194461Y-10883389D01*
X-12194461Y-10883389D02*
X-12203985Y-10845293D01*
X-12203985Y-10845293D02*
X-12203985Y-10797674D01*
X-12203985Y-10797674D02*
X-12194461Y-10759579D01*
X-12194461Y-10759579D02*
X-12184937Y-10740531D01*
X-12184937Y-10740531D02*
X-12175413Y-10731008D01*
X-12175413Y-10731008D02*
X-12156366Y-10721484D01*
X-12003985Y-10902436D02*
X-11994461Y-10911960D01*
X-11994461Y-10911960D02*
X-12003985Y-10921484D01*
X-12003985Y-10921484D02*
X-12013509Y-10911960D01*
X-12013509Y-10911960D02*
X-12003985Y-10902436D01*
X-12003985Y-10902436D02*
X-12003985Y-10921484D01*
X-11870651Y-10721484D02*
X-11851604Y-10721484D01*
X-11851604Y-10721484D02*
X-11832556Y-10731008D01*
X-11832556Y-10731008D02*
X-11823032Y-10740531D01*
X-11823032Y-10740531D02*
X-11813509Y-10759579D01*
X-11813509Y-10759579D02*
X-11803985Y-10797674D01*
X-11803985Y-10797674D02*
X-11803985Y-10845293D01*
X-11803985Y-10845293D02*
X-11813509Y-10883389D01*
X-11813509Y-10883389D02*
X-11823032Y-10902436D01*
X-11823032Y-10902436D02*
X-11832556Y-10911960D01*
X-11832556Y-10911960D02*
X-11851604Y-10921484D01*
X-11851604Y-10921484D02*
X-11870651Y-10921484D01*
X-11870651Y-10921484D02*
X-11889699Y-10911960D01*
X-11889699Y-10911960D02*
X-11899223Y-10902436D01*
X-11899223Y-10902436D02*
X-11908747Y-10883389D01*
X-11908747Y-10883389D02*
X-11918270Y-10845293D01*
X-11918270Y-10845293D02*
X-11918270Y-10797674D01*
X-11918270Y-10797674D02*
X-11908747Y-10759579D01*
X-11908747Y-10759579D02*
X-11899223Y-10740531D01*
X-11899223Y-10740531D02*
X-11889699Y-10731008D01*
X-11889699Y-10731008D02*
X-11870651Y-10721484D01*
X-11737318Y-10721484D02*
X-11613509Y-10721484D01*
X-11613509Y-10721484D02*
X-11680175Y-10797674D01*
X-11680175Y-10797674D02*
X-11651604Y-10797674D01*
X-11651604Y-10797674D02*
X-11632556Y-10807198D01*
X-11632556Y-10807198D02*
X-11623032Y-10816722D01*
X-11623032Y-10816722D02*
X-11613509Y-10835770D01*
X-11613509Y-10835770D02*
X-11613509Y-10883389D01*
X-11613509Y-10883389D02*
X-11623032Y-10902436D01*
X-11623032Y-10902436D02*
X-11632556Y-10911960D01*
X-11632556Y-10911960D02*
X-11651604Y-10921484D01*
X-11651604Y-10921484D02*
X-11708747Y-10921484D01*
X-11708747Y-10921484D02*
X-11727794Y-10911960D01*
X-11727794Y-10911960D02*
X-11737318Y-10902436D01*
X-11518270Y-10921484D02*
X-11480175Y-10921484D01*
X-11480175Y-10921484D02*
X-11461128Y-10911960D01*
X-11461128Y-10911960D02*
X-11451604Y-10902436D01*
X-11451604Y-10902436D02*
X-11432556Y-10873865D01*
X-11432556Y-10873865D02*
X-11423032Y-10835770D01*
X-11423032Y-10835770D02*
X-11423032Y-10759579D01*
X-11423032Y-10759579D02*
X-11432556Y-10740531D01*
X-11432556Y-10740531D02*
X-11442080Y-10731008D01*
X-11442080Y-10731008D02*
X-11461128Y-10721484D01*
X-11461128Y-10721484D02*
X-11499223Y-10721484D01*
X-11499223Y-10721484D02*
X-11518270Y-10731008D01*
X-11518270Y-10731008D02*
X-11527794Y-10740531D01*
X-11527794Y-10740531D02*
X-11537318Y-10759579D01*
X-11537318Y-10759579D02*
X-11537318Y-10807198D01*
X-11537318Y-10807198D02*
X-11527794Y-10826246D01*
X-11527794Y-10826246D02*
X-11518270Y-10835770D01*
X-11518270Y-10835770D02*
X-11499223Y-10845293D01*
X-11499223Y-10845293D02*
X-11461128Y-10845293D01*
X-11461128Y-10845293D02*
X-11442080Y-10835770D01*
X-11442080Y-10835770D02*
X-11432556Y-10826246D01*
X-11432556Y-10826246D02*
X-11423032Y-10807198D01*
X-11299223Y-10721484D02*
X-11280175Y-10721484D01*
X-11280175Y-10721484D02*
X-11261128Y-10731008D01*
X-11261128Y-10731008D02*
X-11251604Y-10740531D01*
X-11251604Y-10740531D02*
X-11242080Y-10759579D01*
X-11242080Y-10759579D02*
X-11232556Y-10797674D01*
X-11232556Y-10797674D02*
X-11232556Y-10845293D01*
X-11232556Y-10845293D02*
X-11242080Y-10883389D01*
X-11242080Y-10883389D02*
X-11251604Y-10902436D01*
X-11251604Y-10902436D02*
X-11261128Y-10911960D01*
X-11261128Y-10911960D02*
X-11280175Y-10921484D01*
X-11280175Y-10921484D02*
X-11299223Y-10921484D01*
X-11299223Y-10921484D02*
X-11318270Y-10911960D01*
X-11318270Y-10911960D02*
X-11327794Y-10902436D01*
X-11327794Y-10902436D02*
X-11337318Y-10883389D01*
X-11337318Y-10883389D02*
X-11346842Y-10845293D01*
X-11346842Y-10845293D02*
X-11346842Y-10797674D01*
X-11346842Y-10797674D02*
X-11337318Y-10759579D01*
X-11337318Y-10759579D02*
X-11327794Y-10740531D01*
X-11327794Y-10740531D02*
X-11318270Y-10731008D01*
X-11318270Y-10731008D02*
X-11299223Y-10721484D01*
X-11156366Y-10721484D02*
X-11156366Y-10759579D01*
X-11080175Y-10721484D02*
X-11080175Y-10759579D01*
X-10784937Y-10997674D02*
X-10794461Y-10988150D01*
X-10794461Y-10988150D02*
X-10813509Y-10959579D01*
X-10813509Y-10959579D02*
X-10823032Y-10940531D01*
X-10823032Y-10940531D02*
X-10832556Y-10911960D01*
X-10832556Y-10911960D02*
X-10842080Y-10864341D01*
X-10842080Y-10864341D02*
X-10842080Y-10826246D01*
X-10842080Y-10826246D02*
X-10832556Y-10778627D01*
X-10832556Y-10778627D02*
X-10823032Y-10750055D01*
X-10823032Y-10750055D02*
X-10813509Y-10731008D01*
X-10813509Y-10731008D02*
X-10794461Y-10702436D01*
X-10794461Y-10702436D02*
X-10784937Y-10692912D01*
X-10718270Y-10740531D02*
X-10708747Y-10731008D01*
X-10708747Y-10731008D02*
X-10689699Y-10721484D01*
X-10689699Y-10721484D02*
X-10642080Y-10721484D01*
X-10642080Y-10721484D02*
X-10623032Y-10731008D01*
X-10623032Y-10731008D02*
X-10613509Y-10740531D01*
X-10613509Y-10740531D02*
X-10603985Y-10759579D01*
X-10603985Y-10759579D02*
X-10603985Y-10778627D01*
X-10603985Y-10778627D02*
X-10613509Y-10807198D01*
X-10613509Y-10807198D02*
X-10727794Y-10921484D01*
X-10727794Y-10921484D02*
X-10603985Y-10921484D01*
X-10480175Y-10721484D02*
X-10461128Y-10721484D01*
X-10461128Y-10721484D02*
X-10442080Y-10731008D01*
X-10442080Y-10731008D02*
X-10432556Y-10740531D01*
X-10432556Y-10740531D02*
X-10423032Y-10759579D01*
X-10423032Y-10759579D02*
X-10413509Y-10797674D01*
X-10413509Y-10797674D02*
X-10413509Y-10845293D01*
X-10413509Y-10845293D02*
X-10423032Y-10883389D01*
X-10423032Y-10883389D02*
X-10432556Y-10902436D01*
X-10432556Y-10902436D02*
X-10442080Y-10911960D01*
X-10442080Y-10911960D02*
X-10461128Y-10921484D01*
X-10461128Y-10921484D02*
X-10480175Y-10921484D01*
X-10480175Y-10921484D02*
X-10499223Y-10911960D01*
X-10499223Y-10911960D02*
X-10508747Y-10902436D01*
X-10508747Y-10902436D02*
X-10518270Y-10883389D01*
X-10518270Y-10883389D02*
X-10527794Y-10845293D01*
X-10527794Y-10845293D02*
X-10527794Y-10797674D01*
X-10527794Y-10797674D02*
X-10518270Y-10759579D01*
X-10518270Y-10759579D02*
X-10508747Y-10740531D01*
X-10508747Y-10740531D02*
X-10499223Y-10731008D01*
X-10499223Y-10731008D02*
X-10480175Y-10721484D01*
X-10175413Y-10921484D02*
X-10175413Y-10721484D01*
X-10089699Y-10921484D02*
X-10089699Y-10816722D01*
X-10089699Y-10816722D02*
X-10099223Y-10797674D01*
X-10099223Y-10797674D02*
X-10118270Y-10788150D01*
X-10118270Y-10788150D02*
X-10146842Y-10788150D01*
X-10146842Y-10788150D02*
X-10165889Y-10797674D01*
X-10165889Y-10797674D02*
X-10175413Y-10807198D01*
X-9965889Y-10921484D02*
X-9984937Y-10911960D01*
X-9984937Y-10911960D02*
X-9994461Y-10902436D01*
X-9994461Y-10902436D02*
X-10003985Y-10883389D01*
X-10003985Y-10883389D02*
X-10003985Y-10826246D01*
X-10003985Y-10826246D02*
X-9994461Y-10807198D01*
X-9994461Y-10807198D02*
X-9984937Y-10797674D01*
X-9984937Y-10797674D02*
X-9965889Y-10788150D01*
X-9965889Y-10788150D02*
X-9937318Y-10788150D01*
X-9937318Y-10788150D02*
X-9918270Y-10797674D01*
X-9918270Y-10797674D02*
X-9908747Y-10807198D01*
X-9908747Y-10807198D02*
X-9899223Y-10826246D01*
X-9899223Y-10826246D02*
X-9899223Y-10883389D01*
X-9899223Y-10883389D02*
X-9908747Y-10902436D01*
X-9908747Y-10902436D02*
X-9918270Y-10911960D01*
X-9918270Y-10911960D02*
X-9937318Y-10921484D01*
X-9937318Y-10921484D02*
X-9965889Y-10921484D01*
X-9784937Y-10921484D02*
X-9803985Y-10911960D01*
X-9803985Y-10911960D02*
X-9813508Y-10892912D01*
X-9813508Y-10892912D02*
X-9813508Y-10721484D01*
X-9632556Y-10911960D02*
X-9651604Y-10921484D01*
X-9651604Y-10921484D02*
X-9689699Y-10921484D01*
X-9689699Y-10921484D02*
X-9708747Y-10911960D01*
X-9708747Y-10911960D02*
X-9718270Y-10892912D01*
X-9718270Y-10892912D02*
X-9718270Y-10816722D01*
X-9718270Y-10816722D02*
X-9708747Y-10797674D01*
X-9708747Y-10797674D02*
X-9689699Y-10788150D01*
X-9689699Y-10788150D02*
X-9651604Y-10788150D01*
X-9651604Y-10788150D02*
X-9632556Y-10797674D01*
X-9632556Y-10797674D02*
X-9623032Y-10816722D01*
X-9623032Y-10816722D02*
X-9623032Y-10835770D01*
X-9623032Y-10835770D02*
X-9718270Y-10854817D01*
X-9546842Y-10911960D02*
X-9527794Y-10921484D01*
X-9527794Y-10921484D02*
X-9489699Y-10921484D01*
X-9489699Y-10921484D02*
X-9470651Y-10911960D01*
X-9470651Y-10911960D02*
X-9461127Y-10892912D01*
X-9461127Y-10892912D02*
X-9461127Y-10883389D01*
X-9461127Y-10883389D02*
X-9470651Y-10864341D01*
X-9470651Y-10864341D02*
X-9489699Y-10854817D01*
X-9489699Y-10854817D02*
X-9518270Y-10854817D01*
X-9518270Y-10854817D02*
X-9537318Y-10845293D01*
X-9537318Y-10845293D02*
X-9546842Y-10826246D01*
X-9546842Y-10826246D02*
X-9546842Y-10816722D01*
X-9546842Y-10816722D02*
X-9537318Y-10797674D01*
X-9537318Y-10797674D02*
X-9518270Y-10788150D01*
X-9518270Y-10788150D02*
X-9489699Y-10788150D01*
X-9489699Y-10788150D02*
X-9470651Y-10797674D01*
X-9394461Y-10997674D02*
X-9384937Y-10988150D01*
X-9384937Y-10988150D02*
X-9365889Y-10959579D01*
X-9365889Y-10959579D02*
X-9356366Y-10940531D01*
X-9356366Y-10940531D02*
X-9346842Y-10911960D01*
X-9346842Y-10911960D02*
X-9337318Y-10864341D01*
X-9337318Y-10864341D02*
X-9337318Y-10826246D01*
X-9337318Y-10826246D02*
X-9346842Y-10778627D01*
X-9346842Y-10778627D02*
X-9356366Y-10750055D01*
X-9356366Y-10750055D02*
X-9365889Y-10731008D01*
X-9365889Y-10731008D02*
X-9384937Y-10702436D01*
X-9384937Y-10702436D02*
X-9394461Y-10692912D01*
X-9032556Y-10997674D02*
X-9042080Y-10988150D01*
X-9042080Y-10988150D02*
X-9061127Y-10959579D01*
X-9061127Y-10959579D02*
X-9070651Y-10940531D01*
X-9070651Y-10940531D02*
X-9080175Y-10911960D01*
X-9080175Y-10911960D02*
X-9089699Y-10864341D01*
X-9089699Y-10864341D02*
X-9089699Y-10826246D01*
X-9089699Y-10826246D02*
X-9080175Y-10778627D01*
X-9080175Y-10778627D02*
X-9070651Y-10750055D01*
X-9070651Y-10750055D02*
X-9061127Y-10731008D01*
X-9061127Y-10731008D02*
X-9042080Y-10702436D01*
X-9042080Y-10702436D02*
X-9032556Y-10692912D01*
X-8956366Y-10788150D02*
X-8956366Y-10921484D01*
X-8956366Y-10807198D02*
X-8946842Y-10797674D01*
X-8946842Y-10797674D02*
X-8927794Y-10788150D01*
X-8927794Y-10788150D02*
X-8899223Y-10788150D01*
X-8899223Y-10788150D02*
X-8880175Y-10797674D01*
X-8880175Y-10797674D02*
X-8870651Y-10816722D01*
X-8870651Y-10816722D02*
X-8870651Y-10921484D01*
X-8746842Y-10921484D02*
X-8765889Y-10911960D01*
X-8765889Y-10911960D02*
X-8775413Y-10902436D01*
X-8775413Y-10902436D02*
X-8784937Y-10883389D01*
X-8784937Y-10883389D02*
X-8784937Y-10826246D01*
X-8784937Y-10826246D02*
X-8775413Y-10807198D01*
X-8775413Y-10807198D02*
X-8765889Y-10797674D01*
X-8765889Y-10797674D02*
X-8746842Y-10788150D01*
X-8746842Y-10788150D02*
X-8718270Y-10788150D01*
X-8718270Y-10788150D02*
X-8699223Y-10797674D01*
X-8699223Y-10797674D02*
X-8689699Y-10807198D01*
X-8689699Y-10807198D02*
X-8680175Y-10826246D01*
X-8680175Y-10826246D02*
X-8680175Y-10883389D01*
X-8680175Y-10883389D02*
X-8689699Y-10902436D01*
X-8689699Y-10902436D02*
X-8699223Y-10911960D01*
X-8699223Y-10911960D02*
X-8718270Y-10921484D01*
X-8718270Y-10921484D02*
X-8746842Y-10921484D01*
X-8623032Y-10788150D02*
X-8546842Y-10788150D01*
X-8594461Y-10721484D02*
X-8594461Y-10892912D01*
X-8594461Y-10892912D02*
X-8584937Y-10911960D01*
X-8584937Y-10911960D02*
X-8565889Y-10921484D01*
X-8565889Y-10921484D02*
X-8546842Y-10921484D01*
X-8327794Y-10788150D02*
X-8327794Y-10988150D01*
X-8327794Y-10797674D02*
X-8308746Y-10788150D01*
X-8308746Y-10788150D02*
X-8270651Y-10788150D01*
X-8270651Y-10788150D02*
X-8251603Y-10797674D01*
X-8251603Y-10797674D02*
X-8242080Y-10807198D01*
X-8242080Y-10807198D02*
X-8232556Y-10826246D01*
X-8232556Y-10826246D02*
X-8232556Y-10883389D01*
X-8232556Y-10883389D02*
X-8242080Y-10902436D01*
X-8242080Y-10902436D02*
X-8251603Y-10911960D01*
X-8251603Y-10911960D02*
X-8270651Y-10921484D01*
X-8270651Y-10921484D02*
X-8308746Y-10921484D01*
X-8308746Y-10921484D02*
X-8327794Y-10911960D01*
X-8118270Y-10921484D02*
X-8137318Y-10911960D01*
X-8137318Y-10911960D02*
X-8146842Y-10892912D01*
X-8146842Y-10892912D02*
X-8146842Y-10721484D01*
X-7956365Y-10921484D02*
X-7956365Y-10816722D01*
X-7956365Y-10816722D02*
X-7965889Y-10797674D01*
X-7965889Y-10797674D02*
X-7984937Y-10788150D01*
X-7984937Y-10788150D02*
X-8023032Y-10788150D01*
X-8023032Y-10788150D02*
X-8042080Y-10797674D01*
X-7956365Y-10911960D02*
X-7975413Y-10921484D01*
X-7975413Y-10921484D02*
X-8023032Y-10921484D01*
X-8023032Y-10921484D02*
X-8042080Y-10911960D01*
X-8042080Y-10911960D02*
X-8051603Y-10892912D01*
X-8051603Y-10892912D02*
X-8051603Y-10873865D01*
X-8051603Y-10873865D02*
X-8042080Y-10854817D01*
X-8042080Y-10854817D02*
X-8023032Y-10845293D01*
X-8023032Y-10845293D02*
X-7975413Y-10845293D01*
X-7975413Y-10845293D02*
X-7956365Y-10835770D01*
X-7889699Y-10788150D02*
X-7813508Y-10788150D01*
X-7861127Y-10721484D02*
X-7861127Y-10892912D01*
X-7861127Y-10892912D02*
X-7851603Y-10911960D01*
X-7851603Y-10911960D02*
X-7832556Y-10921484D01*
X-7832556Y-10921484D02*
X-7813508Y-10921484D01*
X-7670651Y-10911960D02*
X-7689699Y-10921484D01*
X-7689699Y-10921484D02*
X-7727794Y-10921484D01*
X-7727794Y-10921484D02*
X-7746842Y-10911960D01*
X-7746842Y-10911960D02*
X-7756365Y-10892912D01*
X-7756365Y-10892912D02*
X-7756365Y-10816722D01*
X-7756365Y-10816722D02*
X-7746842Y-10797674D01*
X-7746842Y-10797674D02*
X-7727794Y-10788150D01*
X-7727794Y-10788150D02*
X-7689699Y-10788150D01*
X-7689699Y-10788150D02*
X-7670651Y-10797674D01*
X-7670651Y-10797674D02*
X-7661127Y-10816722D01*
X-7661127Y-10816722D02*
X-7661127Y-10835770D01*
X-7661127Y-10835770D02*
X-7756365Y-10854817D01*
X-7489699Y-10921484D02*
X-7489699Y-10721484D01*
X-7489699Y-10911960D02*
X-7508746Y-10921484D01*
X-7508746Y-10921484D02*
X-7546842Y-10921484D01*
X-7546842Y-10921484D02*
X-7565889Y-10911960D01*
X-7565889Y-10911960D02*
X-7575413Y-10902436D01*
X-7575413Y-10902436D02*
X-7584937Y-10883389D01*
X-7584937Y-10883389D02*
X-7584937Y-10826246D01*
X-7584937Y-10826246D02*
X-7575413Y-10807198D01*
X-7575413Y-10807198D02*
X-7565889Y-10797674D01*
X-7565889Y-10797674D02*
X-7546842Y-10788150D01*
X-7546842Y-10788150D02*
X-7508746Y-10788150D01*
X-7508746Y-10788150D02*
X-7489699Y-10797674D01*
X-7413508Y-10997674D02*
X-7403984Y-10988150D01*
X-7403984Y-10988150D02*
X-7384937Y-10959579D01*
X-7384937Y-10959579D02*
X-7375413Y-10940531D01*
X-7375413Y-10940531D02*
X-7365889Y-10911960D01*
X-7365889Y-10911960D02*
X-7356365Y-10864341D01*
X-7356365Y-10864341D02*
X-7356365Y-10826246D01*
X-7356365Y-10826246D02*
X-7365889Y-10778627D01*
X-7365889Y-10778627D02*
X-7375413Y-10750055D01*
X-7375413Y-10750055D02*
X-7384937Y-10731008D01*
X-7384937Y-10731008D02*
X-7403984Y-10702436D01*
X-7403984Y-10702436D02*
X-7413508Y-10692912D01*
D12*
X-14360000Y-11094000D02*
G75*
G02*
X-14530180Y-11094000I-85090J0D01*
G01*
X-14530180Y-11094000D02*
G75*
G02*
X-14360000Y-11094000I85090J0D01*
G01*
D10*
X-13994461Y-11185484D02*
X-14108747Y-11185484D01*
X-14051604Y-11185484D02*
X-14051604Y-10985484D01*
X-14051604Y-10985484D02*
X-14070652Y-11014055D01*
X-14070652Y-11014055D02*
X-14089699Y-11033103D01*
X-14089699Y-11033103D02*
X-14108747Y-11042627D01*
X-13908747Y-11166436D02*
X-13899223Y-11175960D01*
X-13899223Y-11175960D02*
X-13908747Y-11185484D01*
X-13908747Y-11185484D02*
X-13918271Y-11175960D01*
X-13918271Y-11175960D02*
X-13908747Y-11166436D01*
X-13908747Y-11166436D02*
X-13908747Y-11185484D01*
X-13832556Y-10985484D02*
X-13699223Y-10985484D01*
X-13699223Y-10985484D02*
X-13784937Y-11185484D01*
X-13584937Y-10985484D02*
X-13565890Y-10985484D01*
X-13565890Y-10985484D02*
X-13546842Y-10995008D01*
X-13546842Y-10995008D02*
X-13537318Y-11004531D01*
X-13537318Y-11004531D02*
X-13527794Y-11023579D01*
X-13527794Y-11023579D02*
X-13518271Y-11061674D01*
X-13518271Y-11061674D02*
X-13518271Y-11109293D01*
X-13518271Y-11109293D02*
X-13527794Y-11147389D01*
X-13527794Y-11147389D02*
X-13537318Y-11166436D01*
X-13537318Y-11166436D02*
X-13546842Y-11175960D01*
X-13546842Y-11175960D02*
X-13565890Y-11185484D01*
X-13565890Y-11185484D02*
X-13584937Y-11185484D01*
X-13584937Y-11185484D02*
X-13603985Y-11175960D01*
X-13603985Y-11175960D02*
X-13613509Y-11166436D01*
X-13613509Y-11166436D02*
X-13623033Y-11147389D01*
X-13623033Y-11147389D02*
X-13632556Y-11109293D01*
X-13632556Y-11109293D02*
X-13632556Y-11061674D01*
X-13632556Y-11061674D02*
X-13623033Y-11023579D01*
X-13623033Y-11023579D02*
X-13613509Y-11004531D01*
X-13613509Y-11004531D02*
X-13603985Y-10995008D01*
X-13603985Y-10995008D02*
X-13584937Y-10985484D01*
X-13442080Y-11004531D02*
X-13432556Y-10995008D01*
X-13432556Y-10995008D02*
X-13413509Y-10985484D01*
X-13413509Y-10985484D02*
X-13365890Y-10985484D01*
X-13365890Y-10985484D02*
X-13346842Y-10995008D01*
X-13346842Y-10995008D02*
X-13337318Y-11004531D01*
X-13337318Y-11004531D02*
X-13327794Y-11023579D01*
X-13327794Y-11023579D02*
X-13327794Y-11042627D01*
X-13327794Y-11042627D02*
X-13337318Y-11071198D01*
X-13337318Y-11071198D02*
X-13451604Y-11185484D01*
X-13451604Y-11185484D02*
X-13327794Y-11185484D01*
X-13242080Y-11185484D02*
X-13242080Y-11052150D01*
X-13242080Y-11071198D02*
X-13232556Y-11061674D01*
X-13232556Y-11061674D02*
X-13213509Y-11052150D01*
X-13213509Y-11052150D02*
X-13184937Y-11052150D01*
X-13184937Y-11052150D02*
X-13165890Y-11061674D01*
X-13165890Y-11061674D02*
X-13156366Y-11080722D01*
X-13156366Y-11080722D02*
X-13156366Y-11185484D01*
X-13156366Y-11080722D02*
X-13146842Y-11061674D01*
X-13146842Y-11061674D02*
X-13127794Y-11052150D01*
X-13127794Y-11052150D02*
X-13099223Y-11052150D01*
X-13099223Y-11052150D02*
X-13080175Y-11061674D01*
X-13080175Y-11061674D02*
X-13070652Y-11080722D01*
X-13070652Y-11080722D02*
X-13070652Y-11185484D01*
X-12975413Y-11185484D02*
X-12975413Y-11052150D01*
X-12975413Y-11071198D02*
X-12965890Y-11061674D01*
X-12965890Y-11061674D02*
X-12946842Y-11052150D01*
X-12946842Y-11052150D02*
X-12918271Y-11052150D01*
X-12918271Y-11052150D02*
X-12899223Y-11061674D01*
X-12899223Y-11061674D02*
X-12889699Y-11080722D01*
X-12889699Y-11080722D02*
X-12889699Y-11185484D01*
X-12889699Y-11080722D02*
X-12880175Y-11061674D01*
X-12880175Y-11061674D02*
X-12861128Y-11052150D01*
X-12861128Y-11052150D02*
X-12832556Y-11052150D01*
X-12832556Y-11052150D02*
X-12813509Y-11061674D01*
X-12813509Y-11061674D02*
X-12803985Y-11080722D01*
X-12803985Y-11080722D02*
X-12803985Y-11185484D01*
X-12413509Y-10975960D02*
X-12584937Y-11233103D01*
X-12156366Y-10985484D02*
X-12137318Y-10985484D01*
X-12137318Y-10985484D02*
X-12118270Y-10995008D01*
X-12118270Y-10995008D02*
X-12108747Y-11004531D01*
X-12108747Y-11004531D02*
X-12099223Y-11023579D01*
X-12099223Y-11023579D02*
X-12089699Y-11061674D01*
X-12089699Y-11061674D02*
X-12089699Y-11109293D01*
X-12089699Y-11109293D02*
X-12099223Y-11147389D01*
X-12099223Y-11147389D02*
X-12108747Y-11166436D01*
X-12108747Y-11166436D02*
X-12118270Y-11175960D01*
X-12118270Y-11175960D02*
X-12137318Y-11185484D01*
X-12137318Y-11185484D02*
X-12156366Y-11185484D01*
X-12156366Y-11185484D02*
X-12175413Y-11175960D01*
X-12175413Y-11175960D02*
X-12184937Y-11166436D01*
X-12184937Y-11166436D02*
X-12194461Y-11147389D01*
X-12194461Y-11147389D02*
X-12203985Y-11109293D01*
X-12203985Y-11109293D02*
X-12203985Y-11061674D01*
X-12203985Y-11061674D02*
X-12194461Y-11023579D01*
X-12194461Y-11023579D02*
X-12184937Y-11004531D01*
X-12184937Y-11004531D02*
X-12175413Y-10995008D01*
X-12175413Y-10995008D02*
X-12156366Y-10985484D01*
X-12003985Y-11166436D02*
X-11994461Y-11175960D01*
X-11994461Y-11175960D02*
X-12003985Y-11185484D01*
X-12003985Y-11185484D02*
X-12013509Y-11175960D01*
X-12013509Y-11175960D02*
X-12003985Y-11166436D01*
X-12003985Y-11166436D02*
X-12003985Y-11185484D01*
X-11870651Y-10985484D02*
X-11851604Y-10985484D01*
X-11851604Y-10985484D02*
X-11832556Y-10995008D01*
X-11832556Y-10995008D02*
X-11823032Y-11004531D01*
X-11823032Y-11004531D02*
X-11813509Y-11023579D01*
X-11813509Y-11023579D02*
X-11803985Y-11061674D01*
X-11803985Y-11061674D02*
X-11803985Y-11109293D01*
X-11803985Y-11109293D02*
X-11813509Y-11147389D01*
X-11813509Y-11147389D02*
X-11823032Y-11166436D01*
X-11823032Y-11166436D02*
X-11832556Y-11175960D01*
X-11832556Y-11175960D02*
X-11851604Y-11185484D01*
X-11851604Y-11185484D02*
X-11870651Y-11185484D01*
X-11870651Y-11185484D02*
X-11889699Y-11175960D01*
X-11889699Y-11175960D02*
X-11899223Y-11166436D01*
X-11899223Y-11166436D02*
X-11908747Y-11147389D01*
X-11908747Y-11147389D02*
X-11918270Y-11109293D01*
X-11918270Y-11109293D02*
X-11918270Y-11061674D01*
X-11918270Y-11061674D02*
X-11908747Y-11023579D01*
X-11908747Y-11023579D02*
X-11899223Y-11004531D01*
X-11899223Y-11004531D02*
X-11889699Y-10995008D01*
X-11889699Y-10995008D02*
X-11870651Y-10985484D01*
X-11632556Y-10985484D02*
X-11670651Y-10985484D01*
X-11670651Y-10985484D02*
X-11689699Y-10995008D01*
X-11689699Y-10995008D02*
X-11699223Y-11004531D01*
X-11699223Y-11004531D02*
X-11718270Y-11033103D01*
X-11718270Y-11033103D02*
X-11727794Y-11071198D01*
X-11727794Y-11071198D02*
X-11727794Y-11147389D01*
X-11727794Y-11147389D02*
X-11718270Y-11166436D01*
X-11718270Y-11166436D02*
X-11708747Y-11175960D01*
X-11708747Y-11175960D02*
X-11689699Y-11185484D01*
X-11689699Y-11185484D02*
X-11651604Y-11185484D01*
X-11651604Y-11185484D02*
X-11632556Y-11175960D01*
X-11632556Y-11175960D02*
X-11623032Y-11166436D01*
X-11623032Y-11166436D02*
X-11613509Y-11147389D01*
X-11613509Y-11147389D02*
X-11613509Y-11099770D01*
X-11613509Y-11099770D02*
X-11623032Y-11080722D01*
X-11623032Y-11080722D02*
X-11632556Y-11071198D01*
X-11632556Y-11071198D02*
X-11651604Y-11061674D01*
X-11651604Y-11061674D02*
X-11689699Y-11061674D01*
X-11689699Y-11061674D02*
X-11708747Y-11071198D01*
X-11708747Y-11071198D02*
X-11718270Y-11080722D01*
X-11718270Y-11080722D02*
X-11727794Y-11099770D01*
X-11546842Y-10985484D02*
X-11413509Y-10985484D01*
X-11413509Y-10985484D02*
X-11499223Y-11185484D01*
X-11299223Y-10985484D02*
X-11280175Y-10985484D01*
X-11280175Y-10985484D02*
X-11261128Y-10995008D01*
X-11261128Y-10995008D02*
X-11251604Y-11004531D01*
X-11251604Y-11004531D02*
X-11242080Y-11023579D01*
X-11242080Y-11023579D02*
X-11232556Y-11061674D01*
X-11232556Y-11061674D02*
X-11232556Y-11109293D01*
X-11232556Y-11109293D02*
X-11242080Y-11147389D01*
X-11242080Y-11147389D02*
X-11251604Y-11166436D01*
X-11251604Y-11166436D02*
X-11261128Y-11175960D01*
X-11261128Y-11175960D02*
X-11280175Y-11185484D01*
X-11280175Y-11185484D02*
X-11299223Y-11185484D01*
X-11299223Y-11185484D02*
X-11318270Y-11175960D01*
X-11318270Y-11175960D02*
X-11327794Y-11166436D01*
X-11327794Y-11166436D02*
X-11337318Y-11147389D01*
X-11337318Y-11147389D02*
X-11346842Y-11109293D01*
X-11346842Y-11109293D02*
X-11346842Y-11061674D01*
X-11346842Y-11061674D02*
X-11337318Y-11023579D01*
X-11337318Y-11023579D02*
X-11327794Y-11004531D01*
X-11327794Y-11004531D02*
X-11318270Y-10995008D01*
X-11318270Y-10995008D02*
X-11299223Y-10985484D01*
X-11156366Y-10985484D02*
X-11156366Y-11023579D01*
X-11080175Y-10985484D02*
X-11080175Y-11023579D01*
X-10784937Y-11261674D02*
X-10794461Y-11252150D01*
X-10794461Y-11252150D02*
X-10813509Y-11223579D01*
X-10813509Y-11223579D02*
X-10823032Y-11204531D01*
X-10823032Y-11204531D02*
X-10832556Y-11175960D01*
X-10832556Y-11175960D02*
X-10842080Y-11128341D01*
X-10842080Y-11128341D02*
X-10842080Y-11090246D01*
X-10842080Y-11090246D02*
X-10832556Y-11042627D01*
X-10832556Y-11042627D02*
X-10823032Y-11014055D01*
X-10823032Y-11014055D02*
X-10813509Y-10995008D01*
X-10813509Y-10995008D02*
X-10794461Y-10966436D01*
X-10794461Y-10966436D02*
X-10784937Y-10956912D01*
X-10623032Y-11052150D02*
X-10623032Y-11185484D01*
X-10670651Y-10975960D02*
X-10718270Y-11118817D01*
X-10718270Y-11118817D02*
X-10594461Y-11118817D01*
X-10480175Y-10985484D02*
X-10461128Y-10985484D01*
X-10461128Y-10985484D02*
X-10442080Y-10995008D01*
X-10442080Y-10995008D02*
X-10432556Y-11004531D01*
X-10432556Y-11004531D02*
X-10423032Y-11023579D01*
X-10423032Y-11023579D02*
X-10413509Y-11061674D01*
X-10413509Y-11061674D02*
X-10413509Y-11109293D01*
X-10413509Y-11109293D02*
X-10423032Y-11147389D01*
X-10423032Y-11147389D02*
X-10432556Y-11166436D01*
X-10432556Y-11166436D02*
X-10442080Y-11175960D01*
X-10442080Y-11175960D02*
X-10461128Y-11185484D01*
X-10461128Y-11185484D02*
X-10480175Y-11185484D01*
X-10480175Y-11185484D02*
X-10499223Y-11175960D01*
X-10499223Y-11175960D02*
X-10508747Y-11166436D01*
X-10508747Y-11166436D02*
X-10518270Y-11147389D01*
X-10518270Y-11147389D02*
X-10527794Y-11109293D01*
X-10527794Y-11109293D02*
X-10527794Y-11061674D01*
X-10527794Y-11061674D02*
X-10518270Y-11023579D01*
X-10518270Y-11023579D02*
X-10508747Y-11004531D01*
X-10508747Y-11004531D02*
X-10499223Y-10995008D01*
X-10499223Y-10995008D02*
X-10480175Y-10985484D01*
X-10175413Y-11185484D02*
X-10175413Y-10985484D01*
X-10089699Y-11185484D02*
X-10089699Y-11080722D01*
X-10089699Y-11080722D02*
X-10099223Y-11061674D01*
X-10099223Y-11061674D02*
X-10118270Y-11052150D01*
X-10118270Y-11052150D02*
X-10146842Y-11052150D01*
X-10146842Y-11052150D02*
X-10165889Y-11061674D01*
X-10165889Y-11061674D02*
X-10175413Y-11071198D01*
X-9965889Y-11185484D02*
X-9984937Y-11175960D01*
X-9984937Y-11175960D02*
X-9994461Y-11166436D01*
X-9994461Y-11166436D02*
X-10003985Y-11147389D01*
X-10003985Y-11147389D02*
X-10003985Y-11090246D01*
X-10003985Y-11090246D02*
X-9994461Y-11071198D01*
X-9994461Y-11071198D02*
X-9984937Y-11061674D01*
X-9984937Y-11061674D02*
X-9965889Y-11052150D01*
X-9965889Y-11052150D02*
X-9937318Y-11052150D01*
X-9937318Y-11052150D02*
X-9918270Y-11061674D01*
X-9918270Y-11061674D02*
X-9908747Y-11071198D01*
X-9908747Y-11071198D02*
X-9899223Y-11090246D01*
X-9899223Y-11090246D02*
X-9899223Y-11147389D01*
X-9899223Y-11147389D02*
X-9908747Y-11166436D01*
X-9908747Y-11166436D02*
X-9918270Y-11175960D01*
X-9918270Y-11175960D02*
X-9937318Y-11185484D01*
X-9937318Y-11185484D02*
X-9965889Y-11185484D01*
X-9784937Y-11185484D02*
X-9803985Y-11175960D01*
X-9803985Y-11175960D02*
X-9813508Y-11156912D01*
X-9813508Y-11156912D02*
X-9813508Y-10985484D01*
X-9632556Y-11175960D02*
X-9651604Y-11185484D01*
X-9651604Y-11185484D02*
X-9689699Y-11185484D01*
X-9689699Y-11185484D02*
X-9708747Y-11175960D01*
X-9708747Y-11175960D02*
X-9718270Y-11156912D01*
X-9718270Y-11156912D02*
X-9718270Y-11080722D01*
X-9718270Y-11080722D02*
X-9708747Y-11061674D01*
X-9708747Y-11061674D02*
X-9689699Y-11052150D01*
X-9689699Y-11052150D02*
X-9651604Y-11052150D01*
X-9651604Y-11052150D02*
X-9632556Y-11061674D01*
X-9632556Y-11061674D02*
X-9623032Y-11080722D01*
X-9623032Y-11080722D02*
X-9623032Y-11099770D01*
X-9623032Y-11099770D02*
X-9718270Y-11118817D01*
X-9546842Y-11175960D02*
X-9527794Y-11185484D01*
X-9527794Y-11185484D02*
X-9489699Y-11185484D01*
X-9489699Y-11185484D02*
X-9470651Y-11175960D01*
X-9470651Y-11175960D02*
X-9461127Y-11156912D01*
X-9461127Y-11156912D02*
X-9461127Y-11147389D01*
X-9461127Y-11147389D02*
X-9470651Y-11128341D01*
X-9470651Y-11128341D02*
X-9489699Y-11118817D01*
X-9489699Y-11118817D02*
X-9518270Y-11118817D01*
X-9518270Y-11118817D02*
X-9537318Y-11109293D01*
X-9537318Y-11109293D02*
X-9546842Y-11090246D01*
X-9546842Y-11090246D02*
X-9546842Y-11080722D01*
X-9546842Y-11080722D02*
X-9537318Y-11061674D01*
X-9537318Y-11061674D02*
X-9518270Y-11052150D01*
X-9518270Y-11052150D02*
X-9489699Y-11052150D01*
X-9489699Y-11052150D02*
X-9470651Y-11061674D01*
X-9394461Y-11261674D02*
X-9384937Y-11252150D01*
X-9384937Y-11252150D02*
X-9365889Y-11223579D01*
X-9365889Y-11223579D02*
X-9356366Y-11204531D01*
X-9356366Y-11204531D02*
X-9346842Y-11175960D01*
X-9346842Y-11175960D02*
X-9337318Y-11128341D01*
X-9337318Y-11128341D02*
X-9337318Y-11090246D01*
X-9337318Y-11090246D02*
X-9346842Y-11042627D01*
X-9346842Y-11042627D02*
X-9356366Y-11014055D01*
X-9356366Y-11014055D02*
X-9365889Y-10995008D01*
X-9365889Y-10995008D02*
X-9384937Y-10966436D01*
X-9384937Y-10966436D02*
X-9394461Y-10956912D01*
X-9032556Y-11261674D02*
X-9042080Y-11252150D01*
X-9042080Y-11252150D02*
X-9061127Y-11223579D01*
X-9061127Y-11223579D02*
X-9070651Y-11204531D01*
X-9070651Y-11204531D02*
X-9080175Y-11175960D01*
X-9080175Y-11175960D02*
X-9089699Y-11128341D01*
X-9089699Y-11128341D02*
X-9089699Y-11090246D01*
X-9089699Y-11090246D02*
X-9080175Y-11042627D01*
X-9080175Y-11042627D02*
X-9070651Y-11014055D01*
X-9070651Y-11014055D02*
X-9061127Y-10995008D01*
X-9061127Y-10995008D02*
X-9042080Y-10966436D01*
X-9042080Y-10966436D02*
X-9032556Y-10956912D01*
X-8956366Y-11052150D02*
X-8956366Y-11185484D01*
X-8956366Y-11071198D02*
X-8946842Y-11061674D01*
X-8946842Y-11061674D02*
X-8927794Y-11052150D01*
X-8927794Y-11052150D02*
X-8899223Y-11052150D01*
X-8899223Y-11052150D02*
X-8880175Y-11061674D01*
X-8880175Y-11061674D02*
X-8870651Y-11080722D01*
X-8870651Y-11080722D02*
X-8870651Y-11185484D01*
X-8746842Y-11185484D02*
X-8765889Y-11175960D01*
X-8765889Y-11175960D02*
X-8775413Y-11166436D01*
X-8775413Y-11166436D02*
X-8784937Y-11147389D01*
X-8784937Y-11147389D02*
X-8784937Y-11090246D01*
X-8784937Y-11090246D02*
X-8775413Y-11071198D01*
X-8775413Y-11071198D02*
X-8765889Y-11061674D01*
X-8765889Y-11061674D02*
X-8746842Y-11052150D01*
X-8746842Y-11052150D02*
X-8718270Y-11052150D01*
X-8718270Y-11052150D02*
X-8699223Y-11061674D01*
X-8699223Y-11061674D02*
X-8689699Y-11071198D01*
X-8689699Y-11071198D02*
X-8680175Y-11090246D01*
X-8680175Y-11090246D02*
X-8680175Y-11147389D01*
X-8680175Y-11147389D02*
X-8689699Y-11166436D01*
X-8689699Y-11166436D02*
X-8699223Y-11175960D01*
X-8699223Y-11175960D02*
X-8718270Y-11185484D01*
X-8718270Y-11185484D02*
X-8746842Y-11185484D01*
X-8623032Y-11052150D02*
X-8546842Y-11052150D01*
X-8594461Y-10985484D02*
X-8594461Y-11156912D01*
X-8594461Y-11156912D02*
X-8584937Y-11175960D01*
X-8584937Y-11175960D02*
X-8565889Y-11185484D01*
X-8565889Y-11185484D02*
X-8546842Y-11185484D01*
X-8327794Y-11052150D02*
X-8327794Y-11252150D01*
X-8327794Y-11061674D02*
X-8308746Y-11052150D01*
X-8308746Y-11052150D02*
X-8270651Y-11052150D01*
X-8270651Y-11052150D02*
X-8251603Y-11061674D01*
X-8251603Y-11061674D02*
X-8242080Y-11071198D01*
X-8242080Y-11071198D02*
X-8232556Y-11090246D01*
X-8232556Y-11090246D02*
X-8232556Y-11147389D01*
X-8232556Y-11147389D02*
X-8242080Y-11166436D01*
X-8242080Y-11166436D02*
X-8251603Y-11175960D01*
X-8251603Y-11175960D02*
X-8270651Y-11185484D01*
X-8270651Y-11185484D02*
X-8308746Y-11185484D01*
X-8308746Y-11185484D02*
X-8327794Y-11175960D01*
X-8118270Y-11185484D02*
X-8137318Y-11175960D01*
X-8137318Y-11175960D02*
X-8146842Y-11156912D01*
X-8146842Y-11156912D02*
X-8146842Y-10985484D01*
X-7956365Y-11185484D02*
X-7956365Y-11080722D01*
X-7956365Y-11080722D02*
X-7965889Y-11061674D01*
X-7965889Y-11061674D02*
X-7984937Y-11052150D01*
X-7984937Y-11052150D02*
X-8023032Y-11052150D01*
X-8023032Y-11052150D02*
X-8042080Y-11061674D01*
X-7956365Y-11175960D02*
X-7975413Y-11185484D01*
X-7975413Y-11185484D02*
X-8023032Y-11185484D01*
X-8023032Y-11185484D02*
X-8042080Y-11175960D01*
X-8042080Y-11175960D02*
X-8051603Y-11156912D01*
X-8051603Y-11156912D02*
X-8051603Y-11137865D01*
X-8051603Y-11137865D02*
X-8042080Y-11118817D01*
X-8042080Y-11118817D02*
X-8023032Y-11109293D01*
X-8023032Y-11109293D02*
X-7975413Y-11109293D01*
X-7975413Y-11109293D02*
X-7956365Y-11099770D01*
X-7889699Y-11052150D02*
X-7813508Y-11052150D01*
X-7861127Y-10985484D02*
X-7861127Y-11156912D01*
X-7861127Y-11156912D02*
X-7851603Y-11175960D01*
X-7851603Y-11175960D02*
X-7832556Y-11185484D01*
X-7832556Y-11185484D02*
X-7813508Y-11185484D01*
X-7670651Y-11175960D02*
X-7689699Y-11185484D01*
X-7689699Y-11185484D02*
X-7727794Y-11185484D01*
X-7727794Y-11185484D02*
X-7746842Y-11175960D01*
X-7746842Y-11175960D02*
X-7756365Y-11156912D01*
X-7756365Y-11156912D02*
X-7756365Y-11080722D01*
X-7756365Y-11080722D02*
X-7746842Y-11061674D01*
X-7746842Y-11061674D02*
X-7727794Y-11052150D01*
X-7727794Y-11052150D02*
X-7689699Y-11052150D01*
X-7689699Y-11052150D02*
X-7670651Y-11061674D01*
X-7670651Y-11061674D02*
X-7661127Y-11080722D01*
X-7661127Y-11080722D02*
X-7661127Y-11099770D01*
X-7661127Y-11099770D02*
X-7756365Y-11118817D01*
X-7489699Y-11185484D02*
X-7489699Y-10985484D01*
X-7489699Y-11175960D02*
X-7508746Y-11185484D01*
X-7508746Y-11185484D02*
X-7546842Y-11185484D01*
X-7546842Y-11185484D02*
X-7565889Y-11175960D01*
X-7565889Y-11175960D02*
X-7575413Y-11166436D01*
X-7575413Y-11166436D02*
X-7584937Y-11147389D01*
X-7584937Y-11147389D02*
X-7584937Y-11090246D01*
X-7584937Y-11090246D02*
X-7575413Y-11071198D01*
X-7575413Y-11071198D02*
X-7565889Y-11061674D01*
X-7565889Y-11061674D02*
X-7546842Y-11052150D01*
X-7546842Y-11052150D02*
X-7508746Y-11052150D01*
X-7508746Y-11052150D02*
X-7489699Y-11061674D01*
X-7413508Y-11261674D02*
X-7403984Y-11252150D01*
X-7403984Y-11252150D02*
X-7384937Y-11223579D01*
X-7384937Y-11223579D02*
X-7375413Y-11204531D01*
X-7375413Y-11204531D02*
X-7365889Y-11175960D01*
X-7365889Y-11175960D02*
X-7356365Y-11128341D01*
X-7356365Y-11128341D02*
X-7356365Y-11090246D01*
X-7356365Y-11090246D02*
X-7365889Y-11042627D01*
X-7365889Y-11042627D02*
X-7375413Y-11014055D01*
X-7375413Y-11014055D02*
X-7384937Y-10995008D01*
X-7384937Y-10995008D02*
X-7403984Y-10966436D01*
X-7403984Y-10966436D02*
X-7413508Y-10956912D01*
X-14460000Y-11284180D02*
X-14460000Y-11484180D01*
X-14560000Y-11384180D02*
X-14360000Y-11384180D01*
X-14118271Y-11275664D02*
X-13994461Y-11275664D01*
X-13994461Y-11275664D02*
X-14061128Y-11351854D01*
X-14061128Y-11351854D02*
X-14032556Y-11351854D01*
X-14032556Y-11351854D02*
X-14013509Y-11361378D01*
X-14013509Y-11361378D02*
X-14003985Y-11370902D01*
X-14003985Y-11370902D02*
X-13994461Y-11389949D01*
X-13994461Y-11389949D02*
X-13994461Y-11437568D01*
X-13994461Y-11437568D02*
X-14003985Y-11456616D01*
X-14003985Y-11456616D02*
X-14013509Y-11466140D01*
X-14013509Y-11466140D02*
X-14032556Y-11475664D01*
X-14032556Y-11475664D02*
X-14089699Y-11475664D01*
X-14089699Y-11475664D02*
X-14108747Y-11466140D01*
X-14108747Y-11466140D02*
X-14118271Y-11456616D01*
X-13908747Y-11456616D02*
X-13899223Y-11466140D01*
X-13899223Y-11466140D02*
X-13908747Y-11475664D01*
X-13908747Y-11475664D02*
X-13918271Y-11466140D01*
X-13918271Y-11466140D02*
X-13908747Y-11456616D01*
X-13908747Y-11456616D02*
X-13908747Y-11475664D01*
X-13775414Y-11275664D02*
X-13756366Y-11275664D01*
X-13756366Y-11275664D02*
X-13737318Y-11285188D01*
X-13737318Y-11285188D02*
X-13727794Y-11294711D01*
X-13727794Y-11294711D02*
X-13718271Y-11313759D01*
X-13718271Y-11313759D02*
X-13708747Y-11351854D01*
X-13708747Y-11351854D02*
X-13708747Y-11399473D01*
X-13708747Y-11399473D02*
X-13718271Y-11437568D01*
X-13718271Y-11437568D02*
X-13727794Y-11456616D01*
X-13727794Y-11456616D02*
X-13737318Y-11466140D01*
X-13737318Y-11466140D02*
X-13756366Y-11475664D01*
X-13756366Y-11475664D02*
X-13775414Y-11475664D01*
X-13775414Y-11475664D02*
X-13794461Y-11466140D01*
X-13794461Y-11466140D02*
X-13803985Y-11456616D01*
X-13803985Y-11456616D02*
X-13813509Y-11437568D01*
X-13813509Y-11437568D02*
X-13823033Y-11399473D01*
X-13823033Y-11399473D02*
X-13823033Y-11351854D01*
X-13823033Y-11351854D02*
X-13813509Y-11313759D01*
X-13813509Y-11313759D02*
X-13803985Y-11294711D01*
X-13803985Y-11294711D02*
X-13794461Y-11285188D01*
X-13794461Y-11285188D02*
X-13775414Y-11275664D01*
X-13584937Y-11275664D02*
X-13565890Y-11275664D01*
X-13565890Y-11275664D02*
X-13546842Y-11285188D01*
X-13546842Y-11285188D02*
X-13537318Y-11294711D01*
X-13537318Y-11294711D02*
X-13527794Y-11313759D01*
X-13527794Y-11313759D02*
X-13518271Y-11351854D01*
X-13518271Y-11351854D02*
X-13518271Y-11399473D01*
X-13518271Y-11399473D02*
X-13527794Y-11437568D01*
X-13527794Y-11437568D02*
X-13537318Y-11456616D01*
X-13537318Y-11456616D02*
X-13546842Y-11466140D01*
X-13546842Y-11466140D02*
X-13565890Y-11475664D01*
X-13565890Y-11475664D02*
X-13584937Y-11475664D01*
X-13584937Y-11475664D02*
X-13603985Y-11466140D01*
X-13603985Y-11466140D02*
X-13613509Y-11456616D01*
X-13613509Y-11456616D02*
X-13623033Y-11437568D01*
X-13623033Y-11437568D02*
X-13632556Y-11399473D01*
X-13632556Y-11399473D02*
X-13632556Y-11351854D01*
X-13632556Y-11351854D02*
X-13623033Y-11313759D01*
X-13623033Y-11313759D02*
X-13613509Y-11294711D01*
X-13613509Y-11294711D02*
X-13603985Y-11285188D01*
X-13603985Y-11285188D02*
X-13584937Y-11275664D01*
X-13394461Y-11275664D02*
X-13375413Y-11275664D01*
X-13375413Y-11275664D02*
X-13356366Y-11285188D01*
X-13356366Y-11285188D02*
X-13346842Y-11294711D01*
X-13346842Y-11294711D02*
X-13337318Y-11313759D01*
X-13337318Y-11313759D02*
X-13327794Y-11351854D01*
X-13327794Y-11351854D02*
X-13327794Y-11399473D01*
X-13327794Y-11399473D02*
X-13337318Y-11437568D01*
X-13337318Y-11437568D02*
X-13346842Y-11456616D01*
X-13346842Y-11456616D02*
X-13356366Y-11466140D01*
X-13356366Y-11466140D02*
X-13375413Y-11475664D01*
X-13375413Y-11475664D02*
X-13394461Y-11475664D01*
X-13394461Y-11475664D02*
X-13413509Y-11466140D01*
X-13413509Y-11466140D02*
X-13423033Y-11456616D01*
X-13423033Y-11456616D02*
X-13432556Y-11437568D01*
X-13432556Y-11437568D02*
X-13442080Y-11399473D01*
X-13442080Y-11399473D02*
X-13442080Y-11351854D01*
X-13442080Y-11351854D02*
X-13432556Y-11313759D01*
X-13432556Y-11313759D02*
X-13423033Y-11294711D01*
X-13423033Y-11294711D02*
X-13413509Y-11285188D01*
X-13413509Y-11285188D02*
X-13394461Y-11275664D01*
X-13242080Y-11475664D02*
X-13242080Y-11342330D01*
X-13242080Y-11361378D02*
X-13232556Y-11351854D01*
X-13232556Y-11351854D02*
X-13213509Y-11342330D01*
X-13213509Y-11342330D02*
X-13184937Y-11342330D01*
X-13184937Y-11342330D02*
X-13165890Y-11351854D01*
X-13165890Y-11351854D02*
X-13156366Y-11370902D01*
X-13156366Y-11370902D02*
X-13156366Y-11475664D01*
X-13156366Y-11370902D02*
X-13146842Y-11351854D01*
X-13146842Y-11351854D02*
X-13127794Y-11342330D01*
X-13127794Y-11342330D02*
X-13099223Y-11342330D01*
X-13099223Y-11342330D02*
X-13080175Y-11351854D01*
X-13080175Y-11351854D02*
X-13070652Y-11370902D01*
X-13070652Y-11370902D02*
X-13070652Y-11475664D01*
X-12975413Y-11475664D02*
X-12975413Y-11342330D01*
X-12975413Y-11361378D02*
X-12965890Y-11351854D01*
X-12965890Y-11351854D02*
X-12946842Y-11342330D01*
X-12946842Y-11342330D02*
X-12918271Y-11342330D01*
X-12918271Y-11342330D02*
X-12899223Y-11351854D01*
X-12899223Y-11351854D02*
X-12889699Y-11370902D01*
X-12889699Y-11370902D02*
X-12889699Y-11475664D01*
X-12889699Y-11370902D02*
X-12880175Y-11351854D01*
X-12880175Y-11351854D02*
X-12861128Y-11342330D01*
X-12861128Y-11342330D02*
X-12832556Y-11342330D01*
X-12832556Y-11342330D02*
X-12813509Y-11351854D01*
X-12813509Y-11351854D02*
X-12803985Y-11370902D01*
X-12803985Y-11370902D02*
X-12803985Y-11475664D01*
X-12413509Y-11266140D02*
X-12584937Y-11523283D01*
X-12156366Y-11275664D02*
X-12137318Y-11275664D01*
X-12137318Y-11275664D02*
X-12118270Y-11285188D01*
X-12118270Y-11285188D02*
X-12108747Y-11294711D01*
X-12108747Y-11294711D02*
X-12099223Y-11313759D01*
X-12099223Y-11313759D02*
X-12089699Y-11351854D01*
X-12089699Y-11351854D02*
X-12089699Y-11399473D01*
X-12089699Y-11399473D02*
X-12099223Y-11437568D01*
X-12099223Y-11437568D02*
X-12108747Y-11456616D01*
X-12108747Y-11456616D02*
X-12118270Y-11466140D01*
X-12118270Y-11466140D02*
X-12137318Y-11475664D01*
X-12137318Y-11475664D02*
X-12156366Y-11475664D01*
X-12156366Y-11475664D02*
X-12175413Y-11466140D01*
X-12175413Y-11466140D02*
X-12184937Y-11456616D01*
X-12184937Y-11456616D02*
X-12194461Y-11437568D01*
X-12194461Y-11437568D02*
X-12203985Y-11399473D01*
X-12203985Y-11399473D02*
X-12203985Y-11351854D01*
X-12203985Y-11351854D02*
X-12194461Y-11313759D01*
X-12194461Y-11313759D02*
X-12184937Y-11294711D01*
X-12184937Y-11294711D02*
X-12175413Y-11285188D01*
X-12175413Y-11285188D02*
X-12156366Y-11275664D01*
X-12003985Y-11456616D02*
X-11994461Y-11466140D01*
X-11994461Y-11466140D02*
X-12003985Y-11475664D01*
X-12003985Y-11475664D02*
X-12013509Y-11466140D01*
X-12013509Y-11466140D02*
X-12003985Y-11456616D01*
X-12003985Y-11456616D02*
X-12003985Y-11475664D01*
X-11803985Y-11475664D02*
X-11918270Y-11475664D01*
X-11861128Y-11475664D02*
X-11861128Y-11275664D01*
X-11861128Y-11275664D02*
X-11880175Y-11304235D01*
X-11880175Y-11304235D02*
X-11899223Y-11323283D01*
X-11899223Y-11323283D02*
X-11918270Y-11332807D01*
X-11613509Y-11475664D02*
X-11727794Y-11475664D01*
X-11670651Y-11475664D02*
X-11670651Y-11275664D01*
X-11670651Y-11275664D02*
X-11689699Y-11304235D01*
X-11689699Y-11304235D02*
X-11708747Y-11323283D01*
X-11708747Y-11323283D02*
X-11727794Y-11332807D01*
X-11499223Y-11361378D02*
X-11518270Y-11351854D01*
X-11518270Y-11351854D02*
X-11527794Y-11342330D01*
X-11527794Y-11342330D02*
X-11537318Y-11323283D01*
X-11537318Y-11323283D02*
X-11537318Y-11313759D01*
X-11537318Y-11313759D02*
X-11527794Y-11294711D01*
X-11527794Y-11294711D02*
X-11518270Y-11285188D01*
X-11518270Y-11285188D02*
X-11499223Y-11275664D01*
X-11499223Y-11275664D02*
X-11461128Y-11275664D01*
X-11461128Y-11275664D02*
X-11442080Y-11285188D01*
X-11442080Y-11285188D02*
X-11432556Y-11294711D01*
X-11432556Y-11294711D02*
X-11423032Y-11313759D01*
X-11423032Y-11313759D02*
X-11423032Y-11323283D01*
X-11423032Y-11323283D02*
X-11432556Y-11342330D01*
X-11432556Y-11342330D02*
X-11442080Y-11351854D01*
X-11442080Y-11351854D02*
X-11461128Y-11361378D01*
X-11461128Y-11361378D02*
X-11499223Y-11361378D01*
X-11499223Y-11361378D02*
X-11518270Y-11370902D01*
X-11518270Y-11370902D02*
X-11527794Y-11380426D01*
X-11527794Y-11380426D02*
X-11537318Y-11399473D01*
X-11537318Y-11399473D02*
X-11537318Y-11437568D01*
X-11537318Y-11437568D02*
X-11527794Y-11456616D01*
X-11527794Y-11456616D02*
X-11518270Y-11466140D01*
X-11518270Y-11466140D02*
X-11499223Y-11475664D01*
X-11499223Y-11475664D02*
X-11461128Y-11475664D01*
X-11461128Y-11475664D02*
X-11442080Y-11466140D01*
X-11442080Y-11466140D02*
X-11432556Y-11456616D01*
X-11432556Y-11456616D02*
X-11423032Y-11437568D01*
X-11423032Y-11437568D02*
X-11423032Y-11399473D01*
X-11423032Y-11399473D02*
X-11432556Y-11380426D01*
X-11432556Y-11380426D02*
X-11442080Y-11370902D01*
X-11442080Y-11370902D02*
X-11461128Y-11361378D01*
X-11232556Y-11475664D02*
X-11346842Y-11475664D01*
X-11289699Y-11475664D02*
X-11289699Y-11275664D01*
X-11289699Y-11275664D02*
X-11308747Y-11304235D01*
X-11308747Y-11304235D02*
X-11327794Y-11323283D01*
X-11327794Y-11323283D02*
X-11346842Y-11332807D01*
X-11156366Y-11275664D02*
X-11156366Y-11313759D01*
X-11080175Y-11275664D02*
X-11080175Y-11313759D01*
X-10784937Y-11551854D02*
X-10794461Y-11542330D01*
X-10794461Y-11542330D02*
X-10813509Y-11513759D01*
X-10813509Y-11513759D02*
X-10823032Y-11494711D01*
X-10823032Y-11494711D02*
X-10832556Y-11466140D01*
X-10832556Y-11466140D02*
X-10842080Y-11418521D01*
X-10842080Y-11418521D02*
X-10842080Y-11380426D01*
X-10842080Y-11380426D02*
X-10832556Y-11332807D01*
X-10832556Y-11332807D02*
X-10823032Y-11304235D01*
X-10823032Y-11304235D02*
X-10813509Y-11285188D01*
X-10813509Y-11285188D02*
X-10794461Y-11256616D01*
X-10794461Y-11256616D02*
X-10784937Y-11247092D01*
X-10623032Y-11342330D02*
X-10623032Y-11475664D01*
X-10670651Y-11266140D02*
X-10718270Y-11408997D01*
X-10718270Y-11408997D02*
X-10594461Y-11408997D01*
X-10480175Y-11275664D02*
X-10461128Y-11275664D01*
X-10461128Y-11275664D02*
X-10442080Y-11285188D01*
X-10442080Y-11285188D02*
X-10432556Y-11294711D01*
X-10432556Y-11294711D02*
X-10423032Y-11313759D01*
X-10423032Y-11313759D02*
X-10413509Y-11351854D01*
X-10413509Y-11351854D02*
X-10413509Y-11399473D01*
X-10413509Y-11399473D02*
X-10423032Y-11437568D01*
X-10423032Y-11437568D02*
X-10432556Y-11456616D01*
X-10432556Y-11456616D02*
X-10442080Y-11466140D01*
X-10442080Y-11466140D02*
X-10461128Y-11475664D01*
X-10461128Y-11475664D02*
X-10480175Y-11475664D01*
X-10480175Y-11475664D02*
X-10499223Y-11466140D01*
X-10499223Y-11466140D02*
X-10508747Y-11456616D01*
X-10508747Y-11456616D02*
X-10518270Y-11437568D01*
X-10518270Y-11437568D02*
X-10527794Y-11399473D01*
X-10527794Y-11399473D02*
X-10527794Y-11351854D01*
X-10527794Y-11351854D02*
X-10518270Y-11313759D01*
X-10518270Y-11313759D02*
X-10508747Y-11294711D01*
X-10508747Y-11294711D02*
X-10499223Y-11285188D01*
X-10499223Y-11285188D02*
X-10480175Y-11275664D01*
X-10175413Y-11475664D02*
X-10175413Y-11275664D01*
X-10089699Y-11475664D02*
X-10089699Y-11370902D01*
X-10089699Y-11370902D02*
X-10099223Y-11351854D01*
X-10099223Y-11351854D02*
X-10118270Y-11342330D01*
X-10118270Y-11342330D02*
X-10146842Y-11342330D01*
X-10146842Y-11342330D02*
X-10165889Y-11351854D01*
X-10165889Y-11351854D02*
X-10175413Y-11361378D01*
X-9965889Y-11475664D02*
X-9984937Y-11466140D01*
X-9984937Y-11466140D02*
X-9994461Y-11456616D01*
X-9994461Y-11456616D02*
X-10003985Y-11437568D01*
X-10003985Y-11437568D02*
X-10003985Y-11380426D01*
X-10003985Y-11380426D02*
X-9994461Y-11361378D01*
X-9994461Y-11361378D02*
X-9984937Y-11351854D01*
X-9984937Y-11351854D02*
X-9965889Y-11342330D01*
X-9965889Y-11342330D02*
X-9937318Y-11342330D01*
X-9937318Y-11342330D02*
X-9918270Y-11351854D01*
X-9918270Y-11351854D02*
X-9908747Y-11361378D01*
X-9908747Y-11361378D02*
X-9899223Y-11380426D01*
X-9899223Y-11380426D02*
X-9899223Y-11437568D01*
X-9899223Y-11437568D02*
X-9908747Y-11456616D01*
X-9908747Y-11456616D02*
X-9918270Y-11466140D01*
X-9918270Y-11466140D02*
X-9937318Y-11475664D01*
X-9937318Y-11475664D02*
X-9965889Y-11475664D01*
X-9784937Y-11475664D02*
X-9803985Y-11466140D01*
X-9803985Y-11466140D02*
X-9813508Y-11447092D01*
X-9813508Y-11447092D02*
X-9813508Y-11275664D01*
X-9632556Y-11466140D02*
X-9651604Y-11475664D01*
X-9651604Y-11475664D02*
X-9689699Y-11475664D01*
X-9689699Y-11475664D02*
X-9708747Y-11466140D01*
X-9708747Y-11466140D02*
X-9718270Y-11447092D01*
X-9718270Y-11447092D02*
X-9718270Y-11370902D01*
X-9718270Y-11370902D02*
X-9708747Y-11351854D01*
X-9708747Y-11351854D02*
X-9689699Y-11342330D01*
X-9689699Y-11342330D02*
X-9651604Y-11342330D01*
X-9651604Y-11342330D02*
X-9632556Y-11351854D01*
X-9632556Y-11351854D02*
X-9623032Y-11370902D01*
X-9623032Y-11370902D02*
X-9623032Y-11389949D01*
X-9623032Y-11389949D02*
X-9718270Y-11408997D01*
X-9546842Y-11466140D02*
X-9527794Y-11475664D01*
X-9527794Y-11475664D02*
X-9489699Y-11475664D01*
X-9489699Y-11475664D02*
X-9470651Y-11466140D01*
X-9470651Y-11466140D02*
X-9461127Y-11447092D01*
X-9461127Y-11447092D02*
X-9461127Y-11437568D01*
X-9461127Y-11437568D02*
X-9470651Y-11418521D01*
X-9470651Y-11418521D02*
X-9489699Y-11408997D01*
X-9489699Y-11408997D02*
X-9518270Y-11408997D01*
X-9518270Y-11408997D02*
X-9537318Y-11399473D01*
X-9537318Y-11399473D02*
X-9546842Y-11380426D01*
X-9546842Y-11380426D02*
X-9546842Y-11370902D01*
X-9546842Y-11370902D02*
X-9537318Y-11351854D01*
X-9537318Y-11351854D02*
X-9518270Y-11342330D01*
X-9518270Y-11342330D02*
X-9489699Y-11342330D01*
X-9489699Y-11342330D02*
X-9470651Y-11351854D01*
X-9394461Y-11551854D02*
X-9384937Y-11542330D01*
X-9384937Y-11542330D02*
X-9365889Y-11513759D01*
X-9365889Y-11513759D02*
X-9356366Y-11494711D01*
X-9356366Y-11494711D02*
X-9346842Y-11466140D01*
X-9346842Y-11466140D02*
X-9337318Y-11418521D01*
X-9337318Y-11418521D02*
X-9337318Y-11380426D01*
X-9337318Y-11380426D02*
X-9346842Y-11332807D01*
X-9346842Y-11332807D02*
X-9356366Y-11304235D01*
X-9356366Y-11304235D02*
X-9365889Y-11285188D01*
X-9365889Y-11285188D02*
X-9384937Y-11256616D01*
X-9384937Y-11256616D02*
X-9394461Y-11247092D01*
X-9032556Y-11551854D02*
X-9042080Y-11542330D01*
X-9042080Y-11542330D02*
X-9061127Y-11513759D01*
X-9061127Y-11513759D02*
X-9070651Y-11494711D01*
X-9070651Y-11494711D02*
X-9080175Y-11466140D01*
X-9080175Y-11466140D02*
X-9089699Y-11418521D01*
X-9089699Y-11418521D02*
X-9089699Y-11380426D01*
X-9089699Y-11380426D02*
X-9080175Y-11332807D01*
X-9080175Y-11332807D02*
X-9070651Y-11304235D01*
X-9070651Y-11304235D02*
X-9061127Y-11285188D01*
X-9061127Y-11285188D02*
X-9042080Y-11256616D01*
X-9042080Y-11256616D02*
X-9032556Y-11247092D01*
X-8956366Y-11342330D02*
X-8956366Y-11475664D01*
X-8956366Y-11361378D02*
X-8946842Y-11351854D01*
X-8946842Y-11351854D02*
X-8927794Y-11342330D01*
X-8927794Y-11342330D02*
X-8899223Y-11342330D01*
X-8899223Y-11342330D02*
X-8880175Y-11351854D01*
X-8880175Y-11351854D02*
X-8870651Y-11370902D01*
X-8870651Y-11370902D02*
X-8870651Y-11475664D01*
X-8746842Y-11475664D02*
X-8765889Y-11466140D01*
X-8765889Y-11466140D02*
X-8775413Y-11456616D01*
X-8775413Y-11456616D02*
X-8784937Y-11437568D01*
X-8784937Y-11437568D02*
X-8784937Y-11380426D01*
X-8784937Y-11380426D02*
X-8775413Y-11361378D01*
X-8775413Y-11361378D02*
X-8765889Y-11351854D01*
X-8765889Y-11351854D02*
X-8746842Y-11342330D01*
X-8746842Y-11342330D02*
X-8718270Y-11342330D01*
X-8718270Y-11342330D02*
X-8699223Y-11351854D01*
X-8699223Y-11351854D02*
X-8689699Y-11361378D01*
X-8689699Y-11361378D02*
X-8680175Y-11380426D01*
X-8680175Y-11380426D02*
X-8680175Y-11437568D01*
X-8680175Y-11437568D02*
X-8689699Y-11456616D01*
X-8689699Y-11456616D02*
X-8699223Y-11466140D01*
X-8699223Y-11466140D02*
X-8718270Y-11475664D01*
X-8718270Y-11475664D02*
X-8746842Y-11475664D01*
X-8623032Y-11342330D02*
X-8546842Y-11342330D01*
X-8594461Y-11275664D02*
X-8594461Y-11447092D01*
X-8594461Y-11447092D02*
X-8584937Y-11466140D01*
X-8584937Y-11466140D02*
X-8565889Y-11475664D01*
X-8565889Y-11475664D02*
X-8546842Y-11475664D01*
X-8327794Y-11342330D02*
X-8327794Y-11542330D01*
X-8327794Y-11351854D02*
X-8308746Y-11342330D01*
X-8308746Y-11342330D02*
X-8270651Y-11342330D01*
X-8270651Y-11342330D02*
X-8251603Y-11351854D01*
X-8251603Y-11351854D02*
X-8242080Y-11361378D01*
X-8242080Y-11361378D02*
X-8232556Y-11380426D01*
X-8232556Y-11380426D02*
X-8232556Y-11437568D01*
X-8232556Y-11437568D02*
X-8242080Y-11456616D01*
X-8242080Y-11456616D02*
X-8251603Y-11466140D01*
X-8251603Y-11466140D02*
X-8270651Y-11475664D01*
X-8270651Y-11475664D02*
X-8308746Y-11475664D01*
X-8308746Y-11475664D02*
X-8327794Y-11466140D01*
X-8118270Y-11475664D02*
X-8137318Y-11466140D01*
X-8137318Y-11466140D02*
X-8146842Y-11447092D01*
X-8146842Y-11447092D02*
X-8146842Y-11275664D01*
X-7956365Y-11475664D02*
X-7956365Y-11370902D01*
X-7956365Y-11370902D02*
X-7965889Y-11351854D01*
X-7965889Y-11351854D02*
X-7984937Y-11342330D01*
X-7984937Y-11342330D02*
X-8023032Y-11342330D01*
X-8023032Y-11342330D02*
X-8042080Y-11351854D01*
X-7956365Y-11466140D02*
X-7975413Y-11475664D01*
X-7975413Y-11475664D02*
X-8023032Y-11475664D01*
X-8023032Y-11475664D02*
X-8042080Y-11466140D01*
X-8042080Y-11466140D02*
X-8051603Y-11447092D01*
X-8051603Y-11447092D02*
X-8051603Y-11428045D01*
X-8051603Y-11428045D02*
X-8042080Y-11408997D01*
X-8042080Y-11408997D02*
X-8023032Y-11399473D01*
X-8023032Y-11399473D02*
X-7975413Y-11399473D01*
X-7975413Y-11399473D02*
X-7956365Y-11389949D01*
X-7889699Y-11342330D02*
X-7813508Y-11342330D01*
X-7861127Y-11275664D02*
X-7861127Y-11447092D01*
X-7861127Y-11447092D02*
X-7851603Y-11466140D01*
X-7851603Y-11466140D02*
X-7832556Y-11475664D01*
X-7832556Y-11475664D02*
X-7813508Y-11475664D01*
X-7670651Y-11466140D02*
X-7689699Y-11475664D01*
X-7689699Y-11475664D02*
X-7727794Y-11475664D01*
X-7727794Y-11475664D02*
X-7746842Y-11466140D01*
X-7746842Y-11466140D02*
X-7756365Y-11447092D01*
X-7756365Y-11447092D02*
X-7756365Y-11370902D01*
X-7756365Y-11370902D02*
X-7746842Y-11351854D01*
X-7746842Y-11351854D02*
X-7727794Y-11342330D01*
X-7727794Y-11342330D02*
X-7689699Y-11342330D01*
X-7689699Y-11342330D02*
X-7670651Y-11351854D01*
X-7670651Y-11351854D02*
X-7661127Y-11370902D01*
X-7661127Y-11370902D02*
X-7661127Y-11389949D01*
X-7661127Y-11389949D02*
X-7756365Y-11408997D01*
X-7489699Y-11475664D02*
X-7489699Y-11275664D01*
X-7489699Y-11466140D02*
X-7508746Y-11475664D01*
X-7508746Y-11475664D02*
X-7546842Y-11475664D01*
X-7546842Y-11475664D02*
X-7565889Y-11466140D01*
X-7565889Y-11466140D02*
X-7575413Y-11456616D01*
X-7575413Y-11456616D02*
X-7584937Y-11437568D01*
X-7584937Y-11437568D02*
X-7584937Y-11380426D01*
X-7584937Y-11380426D02*
X-7575413Y-11361378D01*
X-7575413Y-11361378D02*
X-7565889Y-11351854D01*
X-7565889Y-11351854D02*
X-7546842Y-11342330D01*
X-7546842Y-11342330D02*
X-7508746Y-11342330D01*
X-7508746Y-11342330D02*
X-7489699Y-11351854D01*
X-7413508Y-11551854D02*
X-7403984Y-11542330D01*
X-7403984Y-11542330D02*
X-7384937Y-11513759D01*
X-7384937Y-11513759D02*
X-7375413Y-11494711D01*
X-7375413Y-11494711D02*
X-7365889Y-11466140D01*
X-7365889Y-11466140D02*
X-7356365Y-11418521D01*
X-7356365Y-11418521D02*
X-7356365Y-11380426D01*
X-7356365Y-11380426D02*
X-7365889Y-11332807D01*
X-7365889Y-11332807D02*
X-7375413Y-11304235D01*
X-7375413Y-11304235D02*
X-7384937Y-11285188D01*
X-7384937Y-11285188D02*
X-7403984Y-11256616D01*
X-7403984Y-11256616D02*
X-7413508Y-11247092D01*
X-14389289Y-11774891D02*
X-14389289Y-11633469D01*
X-14530711Y-11633469D01*
X-14530711Y-11774891D01*
X-14389289Y-11774891D01*
X-14003985Y-11595664D02*
X-14099223Y-11595664D01*
X-14099223Y-11595664D02*
X-14108747Y-11690902D01*
X-14108747Y-11690902D02*
X-14099223Y-11681378D01*
X-14099223Y-11681378D02*
X-14080175Y-11671854D01*
X-14080175Y-11671854D02*
X-14032556Y-11671854D01*
X-14032556Y-11671854D02*
X-14013509Y-11681378D01*
X-14013509Y-11681378D02*
X-14003985Y-11690902D01*
X-14003985Y-11690902D02*
X-13994461Y-11709949D01*
X-13994461Y-11709949D02*
X-13994461Y-11757568D01*
X-13994461Y-11757568D02*
X-14003985Y-11776616D01*
X-14003985Y-11776616D02*
X-14013509Y-11786140D01*
X-14013509Y-11786140D02*
X-14032556Y-11795664D01*
X-14032556Y-11795664D02*
X-14080175Y-11795664D01*
X-14080175Y-11795664D02*
X-14099223Y-11786140D01*
X-14099223Y-11786140D02*
X-14108747Y-11776616D01*
X-13908747Y-11776616D02*
X-13899223Y-11786140D01*
X-13899223Y-11786140D02*
X-13908747Y-11795664D01*
X-13908747Y-11795664D02*
X-13918271Y-11786140D01*
X-13918271Y-11786140D02*
X-13908747Y-11776616D01*
X-13908747Y-11776616D02*
X-13908747Y-11795664D01*
X-13775414Y-11595664D02*
X-13756366Y-11595664D01*
X-13756366Y-11595664D02*
X-13737318Y-11605188D01*
X-13737318Y-11605188D02*
X-13727794Y-11614711D01*
X-13727794Y-11614711D02*
X-13718271Y-11633759D01*
X-13718271Y-11633759D02*
X-13708747Y-11671854D01*
X-13708747Y-11671854D02*
X-13708747Y-11719473D01*
X-13708747Y-11719473D02*
X-13718271Y-11757568D01*
X-13718271Y-11757568D02*
X-13727794Y-11776616D01*
X-13727794Y-11776616D02*
X-13737318Y-11786140D01*
X-13737318Y-11786140D02*
X-13756366Y-11795664D01*
X-13756366Y-11795664D02*
X-13775414Y-11795664D01*
X-13775414Y-11795664D02*
X-13794461Y-11786140D01*
X-13794461Y-11786140D02*
X-13803985Y-11776616D01*
X-13803985Y-11776616D02*
X-13813509Y-11757568D01*
X-13813509Y-11757568D02*
X-13823033Y-11719473D01*
X-13823033Y-11719473D02*
X-13823033Y-11671854D01*
X-13823033Y-11671854D02*
X-13813509Y-11633759D01*
X-13813509Y-11633759D02*
X-13803985Y-11614711D01*
X-13803985Y-11614711D02*
X-13794461Y-11605188D01*
X-13794461Y-11605188D02*
X-13775414Y-11595664D01*
X-13584937Y-11595664D02*
X-13565890Y-11595664D01*
X-13565890Y-11595664D02*
X-13546842Y-11605188D01*
X-13546842Y-11605188D02*
X-13537318Y-11614711D01*
X-13537318Y-11614711D02*
X-13527794Y-11633759D01*
X-13527794Y-11633759D02*
X-13518271Y-11671854D01*
X-13518271Y-11671854D02*
X-13518271Y-11719473D01*
X-13518271Y-11719473D02*
X-13527794Y-11757568D01*
X-13527794Y-11757568D02*
X-13537318Y-11776616D01*
X-13537318Y-11776616D02*
X-13546842Y-11786140D01*
X-13546842Y-11786140D02*
X-13565890Y-11795664D01*
X-13565890Y-11795664D02*
X-13584937Y-11795664D01*
X-13584937Y-11795664D02*
X-13603985Y-11786140D01*
X-13603985Y-11786140D02*
X-13613509Y-11776616D01*
X-13613509Y-11776616D02*
X-13623033Y-11757568D01*
X-13623033Y-11757568D02*
X-13632556Y-11719473D01*
X-13632556Y-11719473D02*
X-13632556Y-11671854D01*
X-13632556Y-11671854D02*
X-13623033Y-11633759D01*
X-13623033Y-11633759D02*
X-13613509Y-11614711D01*
X-13613509Y-11614711D02*
X-13603985Y-11605188D01*
X-13603985Y-11605188D02*
X-13584937Y-11595664D01*
X-13394461Y-11595664D02*
X-13375413Y-11595664D01*
X-13375413Y-11595664D02*
X-13356366Y-11605188D01*
X-13356366Y-11605188D02*
X-13346842Y-11614711D01*
X-13346842Y-11614711D02*
X-13337318Y-11633759D01*
X-13337318Y-11633759D02*
X-13327794Y-11671854D01*
X-13327794Y-11671854D02*
X-13327794Y-11719473D01*
X-13327794Y-11719473D02*
X-13337318Y-11757568D01*
X-13337318Y-11757568D02*
X-13346842Y-11776616D01*
X-13346842Y-11776616D02*
X-13356366Y-11786140D01*
X-13356366Y-11786140D02*
X-13375413Y-11795664D01*
X-13375413Y-11795664D02*
X-13394461Y-11795664D01*
X-13394461Y-11795664D02*
X-13413509Y-11786140D01*
X-13413509Y-11786140D02*
X-13423033Y-11776616D01*
X-13423033Y-11776616D02*
X-13432556Y-11757568D01*
X-13432556Y-11757568D02*
X-13442080Y-11719473D01*
X-13442080Y-11719473D02*
X-13442080Y-11671854D01*
X-13442080Y-11671854D02*
X-13432556Y-11633759D01*
X-13432556Y-11633759D02*
X-13423033Y-11614711D01*
X-13423033Y-11614711D02*
X-13413509Y-11605188D01*
X-13413509Y-11605188D02*
X-13394461Y-11595664D01*
X-13242080Y-11795664D02*
X-13242080Y-11662330D01*
X-13242080Y-11681378D02*
X-13232556Y-11671854D01*
X-13232556Y-11671854D02*
X-13213509Y-11662330D01*
X-13213509Y-11662330D02*
X-13184937Y-11662330D01*
X-13184937Y-11662330D02*
X-13165890Y-11671854D01*
X-13165890Y-11671854D02*
X-13156366Y-11690902D01*
X-13156366Y-11690902D02*
X-13156366Y-11795664D01*
X-13156366Y-11690902D02*
X-13146842Y-11671854D01*
X-13146842Y-11671854D02*
X-13127794Y-11662330D01*
X-13127794Y-11662330D02*
X-13099223Y-11662330D01*
X-13099223Y-11662330D02*
X-13080175Y-11671854D01*
X-13080175Y-11671854D02*
X-13070652Y-11690902D01*
X-13070652Y-11690902D02*
X-13070652Y-11795664D01*
X-12975413Y-11795664D02*
X-12975413Y-11662330D01*
X-12975413Y-11681378D02*
X-12965890Y-11671854D01*
X-12965890Y-11671854D02*
X-12946842Y-11662330D01*
X-12946842Y-11662330D02*
X-12918271Y-11662330D01*
X-12918271Y-11662330D02*
X-12899223Y-11671854D01*
X-12899223Y-11671854D02*
X-12889699Y-11690902D01*
X-12889699Y-11690902D02*
X-12889699Y-11795664D01*
X-12889699Y-11690902D02*
X-12880175Y-11671854D01*
X-12880175Y-11671854D02*
X-12861128Y-11662330D01*
X-12861128Y-11662330D02*
X-12832556Y-11662330D01*
X-12832556Y-11662330D02*
X-12813509Y-11671854D01*
X-12813509Y-11671854D02*
X-12803985Y-11690902D01*
X-12803985Y-11690902D02*
X-12803985Y-11795664D01*
X-12413509Y-11586140D02*
X-12584937Y-11843283D01*
X-12156366Y-11595664D02*
X-12137318Y-11595664D01*
X-12137318Y-11595664D02*
X-12118270Y-11605188D01*
X-12118270Y-11605188D02*
X-12108747Y-11614711D01*
X-12108747Y-11614711D02*
X-12099223Y-11633759D01*
X-12099223Y-11633759D02*
X-12089699Y-11671854D01*
X-12089699Y-11671854D02*
X-12089699Y-11719473D01*
X-12089699Y-11719473D02*
X-12099223Y-11757568D01*
X-12099223Y-11757568D02*
X-12108747Y-11776616D01*
X-12108747Y-11776616D02*
X-12118270Y-11786140D01*
X-12118270Y-11786140D02*
X-12137318Y-11795664D01*
X-12137318Y-11795664D02*
X-12156366Y-11795664D01*
X-12156366Y-11795664D02*
X-12175413Y-11786140D01*
X-12175413Y-11786140D02*
X-12184937Y-11776616D01*
X-12184937Y-11776616D02*
X-12194461Y-11757568D01*
X-12194461Y-11757568D02*
X-12203985Y-11719473D01*
X-12203985Y-11719473D02*
X-12203985Y-11671854D01*
X-12203985Y-11671854D02*
X-12194461Y-11633759D01*
X-12194461Y-11633759D02*
X-12184937Y-11614711D01*
X-12184937Y-11614711D02*
X-12175413Y-11605188D01*
X-12175413Y-11605188D02*
X-12156366Y-11595664D01*
X-12003985Y-11776616D02*
X-11994461Y-11786140D01*
X-11994461Y-11786140D02*
X-12003985Y-11795664D01*
X-12003985Y-11795664D02*
X-12013509Y-11786140D01*
X-12013509Y-11786140D02*
X-12003985Y-11776616D01*
X-12003985Y-11776616D02*
X-12003985Y-11795664D01*
X-11803985Y-11795664D02*
X-11918270Y-11795664D01*
X-11861128Y-11795664D02*
X-11861128Y-11595664D01*
X-11861128Y-11595664D02*
X-11880175Y-11624235D01*
X-11880175Y-11624235D02*
X-11899223Y-11643283D01*
X-11899223Y-11643283D02*
X-11918270Y-11652807D01*
X-11708747Y-11795664D02*
X-11670651Y-11795664D01*
X-11670651Y-11795664D02*
X-11651604Y-11786140D01*
X-11651604Y-11786140D02*
X-11642080Y-11776616D01*
X-11642080Y-11776616D02*
X-11623032Y-11748045D01*
X-11623032Y-11748045D02*
X-11613509Y-11709949D01*
X-11613509Y-11709949D02*
X-11613509Y-11633759D01*
X-11613509Y-11633759D02*
X-11623032Y-11614711D01*
X-11623032Y-11614711D02*
X-11632556Y-11605188D01*
X-11632556Y-11605188D02*
X-11651604Y-11595664D01*
X-11651604Y-11595664D02*
X-11689699Y-11595664D01*
X-11689699Y-11595664D02*
X-11708747Y-11605188D01*
X-11708747Y-11605188D02*
X-11718270Y-11614711D01*
X-11718270Y-11614711D02*
X-11727794Y-11633759D01*
X-11727794Y-11633759D02*
X-11727794Y-11681378D01*
X-11727794Y-11681378D02*
X-11718270Y-11700426D01*
X-11718270Y-11700426D02*
X-11708747Y-11709949D01*
X-11708747Y-11709949D02*
X-11689699Y-11719473D01*
X-11689699Y-11719473D02*
X-11651604Y-11719473D01*
X-11651604Y-11719473D02*
X-11632556Y-11709949D01*
X-11632556Y-11709949D02*
X-11623032Y-11700426D01*
X-11623032Y-11700426D02*
X-11613509Y-11681378D01*
X-11442080Y-11595664D02*
X-11480175Y-11595664D01*
X-11480175Y-11595664D02*
X-11499223Y-11605188D01*
X-11499223Y-11605188D02*
X-11508747Y-11614711D01*
X-11508747Y-11614711D02*
X-11527794Y-11643283D01*
X-11527794Y-11643283D02*
X-11537318Y-11681378D01*
X-11537318Y-11681378D02*
X-11537318Y-11757568D01*
X-11537318Y-11757568D02*
X-11527794Y-11776616D01*
X-11527794Y-11776616D02*
X-11518270Y-11786140D01*
X-11518270Y-11786140D02*
X-11499223Y-11795664D01*
X-11499223Y-11795664D02*
X-11461128Y-11795664D01*
X-11461128Y-11795664D02*
X-11442080Y-11786140D01*
X-11442080Y-11786140D02*
X-11432556Y-11776616D01*
X-11432556Y-11776616D02*
X-11423032Y-11757568D01*
X-11423032Y-11757568D02*
X-11423032Y-11709949D01*
X-11423032Y-11709949D02*
X-11432556Y-11690902D01*
X-11432556Y-11690902D02*
X-11442080Y-11681378D01*
X-11442080Y-11681378D02*
X-11461128Y-11671854D01*
X-11461128Y-11671854D02*
X-11499223Y-11671854D01*
X-11499223Y-11671854D02*
X-11518270Y-11681378D01*
X-11518270Y-11681378D02*
X-11527794Y-11690902D01*
X-11527794Y-11690902D02*
X-11537318Y-11709949D01*
X-11327794Y-11795664D02*
X-11289699Y-11795664D01*
X-11289699Y-11795664D02*
X-11270651Y-11786140D01*
X-11270651Y-11786140D02*
X-11261128Y-11776616D01*
X-11261128Y-11776616D02*
X-11242080Y-11748045D01*
X-11242080Y-11748045D02*
X-11232556Y-11709949D01*
X-11232556Y-11709949D02*
X-11232556Y-11633759D01*
X-11232556Y-11633759D02*
X-11242080Y-11614711D01*
X-11242080Y-11614711D02*
X-11251604Y-11605188D01*
X-11251604Y-11605188D02*
X-11270651Y-11595664D01*
X-11270651Y-11595664D02*
X-11308747Y-11595664D01*
X-11308747Y-11595664D02*
X-11327794Y-11605188D01*
X-11327794Y-11605188D02*
X-11337318Y-11614711D01*
X-11337318Y-11614711D02*
X-11346842Y-11633759D01*
X-11346842Y-11633759D02*
X-11346842Y-11681378D01*
X-11346842Y-11681378D02*
X-11337318Y-11700426D01*
X-11337318Y-11700426D02*
X-11327794Y-11709949D01*
X-11327794Y-11709949D02*
X-11308747Y-11719473D01*
X-11308747Y-11719473D02*
X-11270651Y-11719473D01*
X-11270651Y-11719473D02*
X-11251604Y-11709949D01*
X-11251604Y-11709949D02*
X-11242080Y-11700426D01*
X-11242080Y-11700426D02*
X-11232556Y-11681378D01*
X-11156366Y-11595664D02*
X-11156366Y-11633759D01*
X-11080175Y-11595664D02*
X-11080175Y-11633759D01*
X-10784937Y-11871854D02*
X-10794461Y-11862330D01*
X-10794461Y-11862330D02*
X-10813509Y-11833759D01*
X-10813509Y-11833759D02*
X-10823032Y-11814711D01*
X-10823032Y-11814711D02*
X-10832556Y-11786140D01*
X-10832556Y-11786140D02*
X-10842080Y-11738521D01*
X-10842080Y-11738521D02*
X-10842080Y-11700426D01*
X-10842080Y-11700426D02*
X-10832556Y-11652807D01*
X-10832556Y-11652807D02*
X-10823032Y-11624235D01*
X-10823032Y-11624235D02*
X-10813509Y-11605188D01*
X-10813509Y-11605188D02*
X-10794461Y-11576616D01*
X-10794461Y-11576616D02*
X-10784937Y-11567092D01*
X-10718270Y-11614711D02*
X-10708747Y-11605188D01*
X-10708747Y-11605188D02*
X-10689699Y-11595664D01*
X-10689699Y-11595664D02*
X-10642080Y-11595664D01*
X-10642080Y-11595664D02*
X-10623032Y-11605188D01*
X-10623032Y-11605188D02*
X-10613509Y-11614711D01*
X-10613509Y-11614711D02*
X-10603985Y-11633759D01*
X-10603985Y-11633759D02*
X-10603985Y-11652807D01*
X-10603985Y-11652807D02*
X-10613509Y-11681378D01*
X-10613509Y-11681378D02*
X-10727794Y-11795664D01*
X-10727794Y-11795664D02*
X-10603985Y-11795664D01*
X-10480175Y-11595664D02*
X-10461128Y-11595664D01*
X-10461128Y-11595664D02*
X-10442080Y-11605188D01*
X-10442080Y-11605188D02*
X-10432556Y-11614711D01*
X-10432556Y-11614711D02*
X-10423032Y-11633759D01*
X-10423032Y-11633759D02*
X-10413509Y-11671854D01*
X-10413509Y-11671854D02*
X-10413509Y-11719473D01*
X-10413509Y-11719473D02*
X-10423032Y-11757568D01*
X-10423032Y-11757568D02*
X-10432556Y-11776616D01*
X-10432556Y-11776616D02*
X-10442080Y-11786140D01*
X-10442080Y-11786140D02*
X-10461128Y-11795664D01*
X-10461128Y-11795664D02*
X-10480175Y-11795664D01*
X-10480175Y-11795664D02*
X-10499223Y-11786140D01*
X-10499223Y-11786140D02*
X-10508747Y-11776616D01*
X-10508747Y-11776616D02*
X-10518270Y-11757568D01*
X-10518270Y-11757568D02*
X-10527794Y-11719473D01*
X-10527794Y-11719473D02*
X-10527794Y-11671854D01*
X-10527794Y-11671854D02*
X-10518270Y-11633759D01*
X-10518270Y-11633759D02*
X-10508747Y-11614711D01*
X-10508747Y-11614711D02*
X-10499223Y-11605188D01*
X-10499223Y-11605188D02*
X-10480175Y-11595664D01*
X-10175413Y-11795664D02*
X-10175413Y-11595664D01*
X-10089699Y-11795664D02*
X-10089699Y-11690902D01*
X-10089699Y-11690902D02*
X-10099223Y-11671854D01*
X-10099223Y-11671854D02*
X-10118270Y-11662330D01*
X-10118270Y-11662330D02*
X-10146842Y-11662330D01*
X-10146842Y-11662330D02*
X-10165889Y-11671854D01*
X-10165889Y-11671854D02*
X-10175413Y-11681378D01*
X-9965889Y-11795664D02*
X-9984937Y-11786140D01*
X-9984937Y-11786140D02*
X-9994461Y-11776616D01*
X-9994461Y-11776616D02*
X-10003985Y-11757568D01*
X-10003985Y-11757568D02*
X-10003985Y-11700426D01*
X-10003985Y-11700426D02*
X-9994461Y-11681378D01*
X-9994461Y-11681378D02*
X-9984937Y-11671854D01*
X-9984937Y-11671854D02*
X-9965889Y-11662330D01*
X-9965889Y-11662330D02*
X-9937318Y-11662330D01*
X-9937318Y-11662330D02*
X-9918270Y-11671854D01*
X-9918270Y-11671854D02*
X-9908747Y-11681378D01*
X-9908747Y-11681378D02*
X-9899223Y-11700426D01*
X-9899223Y-11700426D02*
X-9899223Y-11757568D01*
X-9899223Y-11757568D02*
X-9908747Y-11776616D01*
X-9908747Y-11776616D02*
X-9918270Y-11786140D01*
X-9918270Y-11786140D02*
X-9937318Y-11795664D01*
X-9937318Y-11795664D02*
X-9965889Y-11795664D01*
X-9784937Y-11795664D02*
X-9803985Y-11786140D01*
X-9803985Y-11786140D02*
X-9813508Y-11767092D01*
X-9813508Y-11767092D02*
X-9813508Y-11595664D01*
X-9632556Y-11786140D02*
X-9651604Y-11795664D01*
X-9651604Y-11795664D02*
X-9689699Y-11795664D01*
X-9689699Y-11795664D02*
X-9708747Y-11786140D01*
X-9708747Y-11786140D02*
X-9718270Y-11767092D01*
X-9718270Y-11767092D02*
X-9718270Y-11690902D01*
X-9718270Y-11690902D02*
X-9708747Y-11671854D01*
X-9708747Y-11671854D02*
X-9689699Y-11662330D01*
X-9689699Y-11662330D02*
X-9651604Y-11662330D01*
X-9651604Y-11662330D02*
X-9632556Y-11671854D01*
X-9632556Y-11671854D02*
X-9623032Y-11690902D01*
X-9623032Y-11690902D02*
X-9623032Y-11709949D01*
X-9623032Y-11709949D02*
X-9718270Y-11728997D01*
X-9546842Y-11786140D02*
X-9527794Y-11795664D01*
X-9527794Y-11795664D02*
X-9489699Y-11795664D01*
X-9489699Y-11795664D02*
X-9470651Y-11786140D01*
X-9470651Y-11786140D02*
X-9461127Y-11767092D01*
X-9461127Y-11767092D02*
X-9461127Y-11757568D01*
X-9461127Y-11757568D02*
X-9470651Y-11738521D01*
X-9470651Y-11738521D02*
X-9489699Y-11728997D01*
X-9489699Y-11728997D02*
X-9518270Y-11728997D01*
X-9518270Y-11728997D02*
X-9537318Y-11719473D01*
X-9537318Y-11719473D02*
X-9546842Y-11700426D01*
X-9546842Y-11700426D02*
X-9546842Y-11690902D01*
X-9546842Y-11690902D02*
X-9537318Y-11671854D01*
X-9537318Y-11671854D02*
X-9518270Y-11662330D01*
X-9518270Y-11662330D02*
X-9489699Y-11662330D01*
X-9489699Y-11662330D02*
X-9470651Y-11671854D01*
X-9394461Y-11871854D02*
X-9384937Y-11862330D01*
X-9384937Y-11862330D02*
X-9365889Y-11833759D01*
X-9365889Y-11833759D02*
X-9356366Y-11814711D01*
X-9356366Y-11814711D02*
X-9346842Y-11786140D01*
X-9346842Y-11786140D02*
X-9337318Y-11738521D01*
X-9337318Y-11738521D02*
X-9337318Y-11700426D01*
X-9337318Y-11700426D02*
X-9346842Y-11652807D01*
X-9346842Y-11652807D02*
X-9356366Y-11624235D01*
X-9356366Y-11624235D02*
X-9365889Y-11605188D01*
X-9365889Y-11605188D02*
X-9384937Y-11576616D01*
X-9384937Y-11576616D02*
X-9394461Y-11567092D01*
X-9032556Y-11871854D02*
X-9042080Y-11862330D01*
X-9042080Y-11862330D02*
X-9061127Y-11833759D01*
X-9061127Y-11833759D02*
X-9070651Y-11814711D01*
X-9070651Y-11814711D02*
X-9080175Y-11786140D01*
X-9080175Y-11786140D02*
X-9089699Y-11738521D01*
X-9089699Y-11738521D02*
X-9089699Y-11700426D01*
X-9089699Y-11700426D02*
X-9080175Y-11652807D01*
X-9080175Y-11652807D02*
X-9070651Y-11624235D01*
X-9070651Y-11624235D02*
X-9061127Y-11605188D01*
X-9061127Y-11605188D02*
X-9042080Y-11576616D01*
X-9042080Y-11576616D02*
X-9032556Y-11567092D01*
X-8956366Y-11662330D02*
X-8956366Y-11795664D01*
X-8956366Y-11681378D02*
X-8946842Y-11671854D01*
X-8946842Y-11671854D02*
X-8927794Y-11662330D01*
X-8927794Y-11662330D02*
X-8899223Y-11662330D01*
X-8899223Y-11662330D02*
X-8880175Y-11671854D01*
X-8880175Y-11671854D02*
X-8870651Y-11690902D01*
X-8870651Y-11690902D02*
X-8870651Y-11795664D01*
X-8746842Y-11795664D02*
X-8765889Y-11786140D01*
X-8765889Y-11786140D02*
X-8775413Y-11776616D01*
X-8775413Y-11776616D02*
X-8784937Y-11757568D01*
X-8784937Y-11757568D02*
X-8784937Y-11700426D01*
X-8784937Y-11700426D02*
X-8775413Y-11681378D01*
X-8775413Y-11681378D02*
X-8765889Y-11671854D01*
X-8765889Y-11671854D02*
X-8746842Y-11662330D01*
X-8746842Y-11662330D02*
X-8718270Y-11662330D01*
X-8718270Y-11662330D02*
X-8699223Y-11671854D01*
X-8699223Y-11671854D02*
X-8689699Y-11681378D01*
X-8689699Y-11681378D02*
X-8680175Y-11700426D01*
X-8680175Y-11700426D02*
X-8680175Y-11757568D01*
X-8680175Y-11757568D02*
X-8689699Y-11776616D01*
X-8689699Y-11776616D02*
X-8699223Y-11786140D01*
X-8699223Y-11786140D02*
X-8718270Y-11795664D01*
X-8718270Y-11795664D02*
X-8746842Y-11795664D01*
X-8623032Y-11662330D02*
X-8546842Y-11662330D01*
X-8594461Y-11595664D02*
X-8594461Y-11767092D01*
X-8594461Y-11767092D02*
X-8584937Y-11786140D01*
X-8584937Y-11786140D02*
X-8565889Y-11795664D01*
X-8565889Y-11795664D02*
X-8546842Y-11795664D01*
X-8327794Y-11662330D02*
X-8327794Y-11862330D01*
X-8327794Y-11671854D02*
X-8308746Y-11662330D01*
X-8308746Y-11662330D02*
X-8270651Y-11662330D01*
X-8270651Y-11662330D02*
X-8251603Y-11671854D01*
X-8251603Y-11671854D02*
X-8242080Y-11681378D01*
X-8242080Y-11681378D02*
X-8232556Y-11700426D01*
X-8232556Y-11700426D02*
X-8232556Y-11757568D01*
X-8232556Y-11757568D02*
X-8242080Y-11776616D01*
X-8242080Y-11776616D02*
X-8251603Y-11786140D01*
X-8251603Y-11786140D02*
X-8270651Y-11795664D01*
X-8270651Y-11795664D02*
X-8308746Y-11795664D01*
X-8308746Y-11795664D02*
X-8327794Y-11786140D01*
X-8118270Y-11795664D02*
X-8137318Y-11786140D01*
X-8137318Y-11786140D02*
X-8146842Y-11767092D01*
X-8146842Y-11767092D02*
X-8146842Y-11595664D01*
X-7956365Y-11795664D02*
X-7956365Y-11690902D01*
X-7956365Y-11690902D02*
X-7965889Y-11671854D01*
X-7965889Y-11671854D02*
X-7984937Y-11662330D01*
X-7984937Y-11662330D02*
X-8023032Y-11662330D01*
X-8023032Y-11662330D02*
X-8042080Y-11671854D01*
X-7956365Y-11786140D02*
X-7975413Y-11795664D01*
X-7975413Y-11795664D02*
X-8023032Y-11795664D01*
X-8023032Y-11795664D02*
X-8042080Y-11786140D01*
X-8042080Y-11786140D02*
X-8051603Y-11767092D01*
X-8051603Y-11767092D02*
X-8051603Y-11748045D01*
X-8051603Y-11748045D02*
X-8042080Y-11728997D01*
X-8042080Y-11728997D02*
X-8023032Y-11719473D01*
X-8023032Y-11719473D02*
X-7975413Y-11719473D01*
X-7975413Y-11719473D02*
X-7956365Y-11709949D01*
X-7889699Y-11662330D02*
X-7813508Y-11662330D01*
X-7861127Y-11595664D02*
X-7861127Y-11767092D01*
X-7861127Y-11767092D02*
X-7851603Y-11786140D01*
X-7851603Y-11786140D02*
X-7832556Y-11795664D01*
X-7832556Y-11795664D02*
X-7813508Y-11795664D01*
X-7670651Y-11786140D02*
X-7689699Y-11795664D01*
X-7689699Y-11795664D02*
X-7727794Y-11795664D01*
X-7727794Y-11795664D02*
X-7746842Y-11786140D01*
X-7746842Y-11786140D02*
X-7756365Y-11767092D01*
X-7756365Y-11767092D02*
X-7756365Y-11690902D01*
X-7756365Y-11690902D02*
X-7746842Y-11671854D01*
X-7746842Y-11671854D02*
X-7727794Y-11662330D01*
X-7727794Y-11662330D02*
X-7689699Y-11662330D01*
X-7689699Y-11662330D02*
X-7670651Y-11671854D01*
X-7670651Y-11671854D02*
X-7661127Y-11690902D01*
X-7661127Y-11690902D02*
X-7661127Y-11709949D01*
X-7661127Y-11709949D02*
X-7756365Y-11728997D01*
X-7489699Y-11795664D02*
X-7489699Y-11595664D01*
X-7489699Y-11786140D02*
X-7508746Y-11795664D01*
X-7508746Y-11795664D02*
X-7546842Y-11795664D01*
X-7546842Y-11795664D02*
X-7565889Y-11786140D01*
X-7565889Y-11786140D02*
X-7575413Y-11776616D01*
X-7575413Y-11776616D02*
X-7584937Y-11757568D01*
X-7584937Y-11757568D02*
X-7584937Y-11700426D01*
X-7584937Y-11700426D02*
X-7575413Y-11681378D01*
X-7575413Y-11681378D02*
X-7565889Y-11671854D01*
X-7565889Y-11671854D02*
X-7546842Y-11662330D01*
X-7546842Y-11662330D02*
X-7508746Y-11662330D01*
X-7508746Y-11662330D02*
X-7489699Y-11671854D01*
X-7413508Y-11871854D02*
X-7403984Y-11862330D01*
X-7403984Y-11862330D02*
X-7384937Y-11833759D01*
X-7384937Y-11833759D02*
X-7375413Y-11814711D01*
X-7375413Y-11814711D02*
X-7365889Y-11786140D01*
X-7365889Y-11786140D02*
X-7356365Y-11738521D01*
X-7356365Y-11738521D02*
X-7356365Y-11700426D01*
X-7356365Y-11700426D02*
X-7365889Y-11652807D01*
X-7365889Y-11652807D02*
X-7375413Y-11624235D01*
X-7375413Y-11624235D02*
X-7384937Y-11605188D01*
X-7384937Y-11605188D02*
X-7403984Y-11576616D01*
X-7403984Y-11576616D02*
X-7413508Y-11567092D01*
M02*
